<?xml version="1.0" encoding="utf-8"?>
<svg id="master-artboard" viewBox="0 0 1400 980" xmlns="http://www.w3.org/2000/svg" width="1400px" height="980px"><title>BARISTA_JUNE_18_EEZY_04</title><path class="cls-5" d="M456,225.76l.05.05a2.64,2.64,0,0,1,.24-.41c.08-.16,0-.24-.22-.22A4.7,4.7,0,0,0,456,225.76Z" style="fill: rgb(109, 109, 109);" transform="matrix(1, 0, 0, 1, -2.842170943040401e-14, 0)"/><path class="cls-5" d="M466.22,224.63a8.6,8.6,0,0,1-.16-.89,8.35,8.35,0,0,0-.46-1.65c0-.05,0-.08,0-.13a3.63,3.63,0,0,0-.65-2.05,1.9,1.9,0,0,0-1.27-.89,17.67,17.67,0,0,0-2.92-.22c-.24,0-.49,0-.76-.08a.58.58,0,0,0-.46.13,3.82,3.82,0,0,0-.67.65c-.38.49-.73,1-1.05,1.4-.14.16-.32.38-.32.54s-.16.35-.24.57a3.21,3.21,0,0,1-.32.51.37.37,0,0,0-.05.46c.05.08.16.11.24.19.08-.19.16-.35.24-.57-.32,1.3-.65,2.59-1,3.86a.58.58,0,0,1-.05-.3v-.27h-.08c0,.16-.08.32-.11.49h-.24a21.86,21.86,0,0,0-.46,4,1.4,1.4,0,0,0,.32,0c0,.24.08.49-.27.54a2.22,2.22,0,0,1,0,.4h.05a2.26,2.26,0,0,1,.08-.38c.08.24.16.46-.05.65,0,.05,0,.13,0,.22l.05,0a1.89,1.89,0,0,1,.11-.19.65.65,0,0,1,.05.27,8.19,8.19,0,0,0,.57,1.92,9.62,9.62,0,0,0,.81,1.32,11.56,11.56,0,0,0,2.59,2.4s.11,0,.19,0a3.07,3.07,0,0,0,.7,0c.35,0,.73-.16,1.08-.16a4,4,0,0,0,1.75-.57,2.18,2.18,0,0,0,1.16-1.38,8.36,8.36,0,0,1,.81-2,5.52,5.52,0,0,0,.54-1.92c.08-.73.16-1.4.19-2.13a7.16,7.16,0,0,0,.08-1,4.82,4.82,0,0,0,.05-.89,4.12,4.12,0,0,1,0-1A5.71,5.71,0,0,0,466.22,224.63Zm-10.2,4.7H456c0-.08,0-.11-.08-.19H456Zm.24-2.29c-.22-.22-.13-.3,0-.4A1.76,1.76,0,0,0,456.26,227Zm3.4-2.4a.42.42,0,0,1,.24-.4c0,.05,0,.05.08.08A3.71,3.71,0,0,0,459.67,224.63Zm5,5.1a10.87,10.87,0,0,1-.65,2.92,10.17,10.17,0,0,1-.43,1.38c-.05.16-.05.41-.38.32,0,0-.11.08-.19.16-.24.22-.46.4-.73.62-.46-.32-.86-.65-1.27-1a2.06,2.06,0,0,1-.59-1.27,12.3,12.3,0,0,1-.22-2.43c0-.43.05-.92.08-1.4a4.7,4.7,0,0,1,.08-.57c0-.05.05-.05.05-.08-.22-.62.19-1.13.24-1.75a2.94,2.94,0,0,1,.08-.81c0-.24-.05-.49.08-.73a2.34,2.34,0,0,0,0-.43c-.24-.16-.24-.16-.49-.08.08-.3.16-.54.24-.78s.08-.4.11-.59a4.2,4.2,0,0,1,.16-.54,4.61,4.61,0,0,0,.38-1.73c0-.16.08-.32.11-.46s.13-.32.3-.35.16-.08.19-.13c.3-.35.54-.24.86-.11s.59.43.76.81a12,12,0,0,1,.78,3.4c.11.84.27,1.7.41,2.54A16.85,16.85,0,0,1,464.71,229.73Z" style="fill: rgb(109, 109, 109);" transform="matrix(1, 0, 0, 1, -2.842170943040401e-14, 0)"/><path class="cls-5" d="M456.53,224.63c.05-.19.08-.4.16-.67a2.48,2.48,0,0,1-.43.35,1.33,1.33,0,0,0,.24.08.36.36,0,0,0-.05.22C456.51,224.6,456.51,224.63,456.53,224.63Z" style="fill: rgb(109, 109, 109);" transform="matrix(1, 0, 0, 1, -2.842170943040401e-14, 0)"/><path class="cls-5" d="M420.08,268.63c.05-.19.08-.4.16-.67a2.52,2.52,0,0,1-.43.35,1.3,1.3,0,0,0,.24.08.36.36,0,0,0-.05.22C420.06,268.6,420.06,268.63,420.08,268.63Z" style="fill: rgb(109, 109, 109);" transform="matrix(1, 0, 0, 1, -2.842170943040401e-14, 0)"/><path class="cls-5" d="M419.68,269.19a4.91,4.91,0,0,0-.08.57l.05.05a2.72,2.72,0,0,1,.24-.41C420,269.25,419.9,269.17,419.68,269.19Z" style="fill: rgb(109, 109, 109);" transform="matrix(1, 0, 0, 1, -2.842170943040401e-14, 0)"/><path class="cls-5" d="M447.27,280.45a6.94,6.94,0,0,0,.95,1.54c0,.05.11.05.16.08.24.16.57.05.84.24a1.18,1.18,0,0,0,.08-.4c.24-.11.22.13.22.16.24-.11.41-.16.57-.24s.32-.27.49-.41a1.16,1.16,0,0,1-.08-.41c.19.16.32.24.49.38.35-.24.24-.7.41-1a2,2,0,0,0,0-.41,2.15,2.15,0,0,1,.05-1.24V277.1c0-.73-.05-1.46,0-2.24,0-.49-.05-.92-.08-1.4,0-.3,0-.57,0-.86a.29.29,0,0,1,.08-.16,1.33,1.33,0,0,0,0-.32,7.25,7.25,0,0,1-.05-1.54c0-.84-.11-1.7-.16-2.54,0-.05,0-.13,0-.16-.16-.22-.05-.46-.08-.7a1.51,1.51,0,0,0,0-.35c-.05-.24-.08-.54-.13-.81a.64.64,0,0,0-.24.16,1,1,0,0,1,0-.3c.05,0,.16,0,.3-.08a1.29,1.29,0,0,1-.54-1c-.11,0-.16-.05-.27-.05v-.57c-.05-.16-.08-.27-.13-.43s-.16-.32-.24-.46a2.16,2.16,0,0,0-.32-.35,1.49,1.49,0,0,0-.27-.08c-.05-.08-.08-.16-.14-.24a.58.58,0,0,0-.16,0,1,1,0,0,0-.32-.24,2,2,0,0,0-.41,0,2.43,2.43,0,0,1-1-.13.68.68,0,0,0-.76.24c-.05,0-.08-.11-.13-.11a1.59,1.59,0,0,0-1.21.08,10.11,10.11,0,0,0-1.46,1.38,6.59,6.59,0,0,0-1.3,2.27,9.36,9.36,0,0,0-.32,3.24c.05.76.05,1.48.05,2.27a10.64,10.64,0,0,0,0,2.78,22.77,22.77,0,0,1,.38,3.29c0,.65,0,1.3,0,1.94a1.61,1.61,0,0,1-.22,1c.62.27.89.16.94-.46s0-1.4.08-2.11.08-1.57.16-2.35.11-1.4.19-2.11c.05-.51.13-1.08.16-1.62h3.48c0,.16.05.3.05.46-.05.84-.05,1.65-.08,2.51a.31.31,0,0,1-.08.19.63.63,0,0,0-.16.49,4.24,4.24,0,0,0-.05.81,2.53,2.53,0,0,0,0,.46c.22.19.13.35.13.57a1.58,1.58,0,0,0,.08.35c0,.13,0,.24,0,.32.05.54.08,1,.13,1.51a3.64,3.64,0,0,1-.08.41A2.41,2.41,0,0,0,447.27,280.45Zm3.64.08H451a.74.74,0,0,1,0,.24h-.05Zm-.32-14.2c0-.08-.11-.16-.16-.3C450.67,266,450.65,266.2,450.59,266.33Zm-.67,1.89v.32C449.75,268.38,449.78,268.3,449.92,268.22ZM449,268c.22.16,0,.35,0,.57Zm-.24-4.37h.05v.27h-.05Zm-.11,3.91v.3s-.05,0-.05,0a1.84,1.84,0,0,1-.08-.32Zm-1.27,2.27a4.89,4.89,0,0,0,0,.62,6.51,6.51,0,0,0-3.21.41,3.74,3.74,0,0,0,0-.78,14.72,14.72,0,0,1,.05-1.89,8.53,8.53,0,0,1,.51-2V266c.05-1,.78-1.54,1.35-2.16a2.91,2.91,0,0,1,.35-.27.15.15,0,0,1,.13-.05,18.36,18.36,0,0,1,.51,2.89c.08-.16.13-.24.22-.41a3.26,3.26,0,0,1-.24,2.46c.11,0,.19.05.32.05-.05.24.24.43,0,.73.05-.05.08-.05.16-.05s.08.24-.08.38A.3.3,0,0,0,447.35,269.76Z" style="fill: rgb(109, 109, 109);" transform="matrix(1, 0, 0, 1, -2.842170943040401e-14, 0)"/><path class="cls-5" d="M461.15,268.3c.05-.51.13-1,.22-1.54s0-.81.08-1.21c0-.19.08-.32.24-.35a4.52,4.52,0,0,0,1.13-.46,2.6,2.6,0,0,0,.27-.27c.16-.24.3-.49.46-.78a3.14,3.14,0,0,0-1.59-.16c-.65.08-1.32,0-2,0a.61.61,0,0,1-.3-.08,3.89,3.89,0,0,0-.81,0c-.27,0-.57.08-.89.11-.57.05-1.08.05-1.65.08a12.89,12.89,0,0,0-2.48.24,4.8,4.8,0,0,1-.65.08,1.42,1.42,0,0,0-.84.38s0,.08,0,.11a8.33,8.33,0,0,0,1.67.89s.11,0,.16,0c.41,0,.81.05,1.21.05a.58.58,0,0,1,.43.43v.78a4.75,4.75,0,0,1,.08,1.24,8.44,8.44,0,0,0,0,1.43v1.16c0,.54,0,1,0,1.54-.05,1.05-.14,2.16-.22,3.21,0,.65,0,1.24-.08,1.89,0,.41,0,.81,0,1.21s0,.86,0,1.3a3,3,0,0,0,.22,1.21.69.69,0,0,0,.49.4l.73,0a.11.11,0,0,0,.11-.05c.13-.19.3-.11.46-.11s.41.08.51,0,.32,0,.54.05c0-.22-.05-.32,0-.49s0-.24.19-.32v.43c.14,0,.22-.11.24-.08.54.08.62.05.73-.43,0-.05.05-.08.05-.14a.44.44,0,0,1,.24-.4,1.46,1.46,0,0,0,.4-.81c0-.35,0-.73,0-1.08,0-.57-.11-1.13-.08-1.67s.08-1.13.13-1.65.16-1.21.19-1.83c.05-.35,0-.73.08-1.08a13.92,13.92,0,0,0,.16-2.11A7.53,7.53,0,0,0,461.15,268.3Z" style="fill: rgb(109, 109, 109);" transform="matrix(1, 0, 0, 1, -2.842170943040401e-14, 0)"/><path class="cls-5" d="M465.39,268.63c.05-.19.08-.4.16-.67a2.52,2.52,0,0,1-.43.35,1.3,1.3,0,0,0,.24.08.36.36,0,0,0-.05.22C465.36,268.6,465.36,268.63,465.39,268.63Z" style="fill: rgb(109, 109, 109);" transform="matrix(1, 0, 0, 1, -2.842170943040401e-14, 0)"/><path class="cls-5" d="M465,269.19a4.91,4.91,0,0,0-.08.57l.05.05a2.72,2.72,0,0,1,.24-.41C465.28,269.25,465.2,269.17,465,269.19Z" style="fill: rgb(109, 109, 109);" transform="matrix(1, 0, 0, 1, -2.842170943040401e-14, 0)"/><path class="cls-5" d="M473.49,279.48a8.45,8.45,0,0,1,.81-2,5.52,5.52,0,0,0,.54-1.92c.08-.73.16-1.4.19-2.13a7.16,7.16,0,0,0,.08-1,4.82,4.82,0,0,0,.05-.89,4.12,4.12,0,0,1,0-1,5.76,5.76,0,0,0-.08-1.92,8.86,8.86,0,0,1-.16-.89,8.22,8.22,0,0,0-.46-1.65c0-.05,0-.08,0-.13a3.63,3.63,0,0,0-.65-2.05,1.9,1.9,0,0,0-1.27-.89,17.65,17.65,0,0,0-2.92-.22c-.24,0-.49,0-.76-.08a.58.58,0,0,0-.46.13,3.82,3.82,0,0,0-.67.65c-.38.49-.73,1-1.05,1.4-.13.16-.32.38-.32.54s-.16.35-.24.57a3.28,3.28,0,0,1-.32.51.37.37,0,0,0-.05.46c.05.08.16.11.24.19.08-.19.16-.35.24-.57-.32,1.3-.65,2.59-1,3.86a.58.58,0,0,1-.05-.3v-.27h-.08c0,.16-.08.32-.11.49h-.24a21.78,21.78,0,0,0-.46,4,1.41,1.41,0,0,0,.32,0c0,.24.08.49-.27.54a2.15,2.15,0,0,1,0,.4h.05a2.48,2.48,0,0,1,.08-.38c.08.24.16.46-.05.65,0,.05,0,.13,0,.22l.05,0s0-.08.11-.19a.65.65,0,0,1,.05.27,8.24,8.24,0,0,0,.57,1.92,9.63,9.63,0,0,0,.81,1.32,11.58,11.58,0,0,0,2.59,2.4s.11,0,.19,0a3.06,3.06,0,0,0,.7,0c.35,0,.73-.16,1.08-.16a4,4,0,0,0,1.75-.57A2.19,2.19,0,0,0,473.49,279.48Zm-8.61-6.15h-.05c0-.08,0-.11-.08-.19h.13Zm.24-2.29c-.22-.22-.14-.3,0-.4A1.82,1.82,0,0,0,465.12,271Zm3.4-2.4a.42.42,0,0,1,.24-.4c0,.05,0,.05.08.08A3.74,3.74,0,0,0,468.52,268.63Zm3.59,9.72s-.11.08-.19.16c-.24.22-.46.4-.73.62-.46-.32-.86-.65-1.27-1a2.07,2.07,0,0,1-.59-1.27,12.38,12.38,0,0,1-.22-2.43c0-.43.05-.92.08-1.4a4.91,4.91,0,0,1,.08-.57c0-.05.05-.05.05-.08-.22-.62.19-1.13.24-1.75a2.94,2.94,0,0,1,.08-.81c0-.24-.05-.49.08-.73a2.26,2.26,0,0,0,0-.43c-.24-.16-.24-.16-.49-.08.08-.3.16-.54.24-.78s.08-.4.11-.59a4.05,4.05,0,0,1,.16-.54,4.61,4.61,0,0,0,.38-1.73c0-.16.08-.32.11-.46s.13-.32.3-.35.16-.08.19-.13c.3-.35.54-.24.86-.11s.59.43.76.81a12,12,0,0,1,.78,3.4c.11.84.27,1.7.4,2.54a16.68,16.68,0,0,1,0,3.08,10.87,10.87,0,0,1-.65,2.92,10.31,10.31,0,0,1-.43,1.38C472.43,278.18,472.43,278.42,472.11,278.34Z" style="fill: rgb(109, 109, 109);" transform="matrix(1, 0, 0, 1, -2.842170943040401e-14, 0)"/><path class="cls-5" d="M442.17,325.66a2.76,2.76,0,0,0,1.62.05,3.83,3.83,0,0,0,1.62-1.05,2.46,2.46,0,0,0,.7-1.27c.08-.32.24-.65.35-1a1.58,1.58,0,0,0,.14-1.05,1.27,1.27,0,0,1-.14-.78,1.7,1.7,0,0,0-.27-.73.3.3,0,0,0-.41-.16.27.27,0,0,0-.05.16c-.16.81-.27,1.67-.41,2.48a4.41,4.41,0,0,1-.92,2,1,1,0,0,1-1.05.46,2.49,2.49,0,0,1-1.27-.65c.32-.24.05-.46,0-.7.08,0,.19-.11.19-.16,0-.32.24-.51.3-.81a4.34,4.34,0,0,1,.19-1A7,7,0,0,0,443,320c0-.54,0-1.05,0-1.59a2.2,2.2,0,0,0,0-.73.61.61,0,0,1,0-.49,3.09,3.09,0,0,0-.05-1.4,8.6,8.6,0,0,1,.05-1.19c0-.19.08-.35.08-.51s0-.62,0-.89c0-.54,0-1.05,0-1.59a3.91,3.91,0,0,0-.13-1.24,5.58,5.58,0,0,1-.19-2.67.36.36,0,0,1,.24-.32,1.74,1.74,0,0,1,1.16-.22,11.33,11.33,0,0,1,1.54.32c.24.14.38.24.41.49s.08.78.13,1.13a2.61,2.61,0,0,1-.13,1.3c.38.3.7.08,1.11.08a2.86,2.86,0,0,0,0-.49,1.54,1.54,0,0,1-.16-1.08,1.85,1.85,0,0,0-.05-.78,7.79,7.79,0,0,0-.41-1,1.23,1.23,0,0,0-1.16-.78.89.89,0,0,1-.46-.11,3.77,3.77,0,0,0-1.32-.22.42.42,0,0,1-.46-.11c-.16,0-.27.08-.4.11s-.19,0-.24.08c-.27.24-.27.24-.43.3a1.25,1.25,0,0,0-.57.11,2,2,0,0,1-.89.13h-.38c0,.27-.08.49-.11.73-.16.67-.38,1.4-.49,2.13s-.22,1.43-.3,2.11c-.11.86-.27,1.67-.32,2.48,0,.51-.11,1-.11,1.54a15.48,15.48,0,0,1-.16,2.21c-.05.7-.08,1.38-.13,2.08a9.38,9.38,0,0,0,.05,2.13.65.65,0,0,1,0,.32,1.11,1.11,0,0,0,.16.94,4.18,4.18,0,0,0,2,1.89A10.66,10.66,0,0,0,442.17,325.66Zm-.89-15.55h.08a.83.83,0,0,1-.08.62h-.11C441.2,310.52,441.25,310.33,441.28,310.12Zm-.27,2.27a1.56,1.56,0,0,1-.05,1.05h-.08C440.93,313.08,441,312.71,441,312.38Zm-.16,3.32a10.62,10.62,0,0,0-.22,1.62c0,.65-.08,1.35-.08,2a.85.85,0,0,1-.11.43,17.52,17.52,0,0,1,0-2.37c0-.81.11-1.62.16-2.43a.11.11,0,0,1,.11-.05c.05.08.13.13.13.22Z" style="fill: rgb(109, 109, 109);" transform="matrix(1, 0, 0, 1, -2.842170943040401e-14, 0)"/><path class="cls-5" d="M455.26,315a6,6,0,0,1,.11-1,3.58,3.58,0,0,0,.13-1.19c0-.27.08-.57.11-.84s.16-.54.22-.81c0-.49,0-1,0-1.54v-1.46l.73-.24a1,1,0,0,0,.49-.46c.14-.16.05-.32,0-.49v-.27a3.45,3.45,0,0,0-1.54-.22c-.65.05-1.35.05-2,.08s-1.05,0-1.57,0c-.7,0-1.43.13-2.11.13a1.42,1.42,0,0,0-1.05.57l-.16.11a2.21,2.21,0,0,0-.46.3,1.82,1.82,0,0,0,.49.19,3.08,3.08,0,0,0,1.11.08,7,7,0,0,1,.76.05c.08.24.16.41.22.57a.3.3,0,0,1,.08.16,3.52,3.52,0,0,0,0,1.4c0,.7,0,1.35.08,2V313c0,.16-.05.27,0,.41,0,.57.08,1.13.08,1.7,0,.24-.08.51-.08.81-.05.57-.05,1.08-.05,1.65a5.07,5.07,0,0,0,.05,1.11c.11.32-.05.67.08,1,0,.05,0,.08,0,.08a2.35,2.35,0,0,0,0,1.3,2.81,2.81,0,0,1-.05.95,1.52,1.52,0,0,0,0,.19v1.27c-.49,0-.95.16-1.38-.05a.45.45,0,0,0-.49.16l-.62.7a1.44,1.44,0,0,0-.35.35c.41.05.73.22,1.08.24a15.25,15.25,0,0,0,3.13,0,13.72,13.72,0,0,1,2.78.08,1.84,1.84,0,0,0,1.59-.81,2,2,0,0,0-1.92-.92,4,4,0,0,0,.38-1.62c0-.41-.08-.81-.05-1.19a5,5,0,0,0-.11-1.54v-.11c.08-.32.11-.65.16-1s0-.7,0-1v-.35C455.18,315.92,455.21,315.46,455.26,315Z" style="fill: rgb(109, 109, 109);" transform="matrix(1, 0, 0, 1, -2.842170943040401e-14, 0)"/><path class="cls-5" d="M470.06,306.85c-.19.08-.41.11-.59.19a.73.73,0,0,0-.38.73v.89c0,.3-.08.54-.08.81,0,.89,0,1.75,0,2.65s-.16,1.94-.22,2.86,0,2.11-.08,3.13c0,.57,0,1.08,0,1.62l-.08,0c-.08-.11-.13-.24-.22-.35a1.57,1.57,0,0,0-.16-.46l-.49-1.48a8.41,8.41,0,0,1-.43-1,4.72,4.72,0,0,1-.38-.73,11,11,0,0,0-1.21-2.78,7.82,7.82,0,0,1-.49-.81c-.51-.89-1-1.78-1.54-2.67-.08-.22-.27-.41-.35-.62-.13-.43-.57-.59-.81-.92,0-.05-.08-.05-.16-.05a5.83,5.83,0,0,0-2.16-.16,4.84,4.84,0,0,0-.59.16c-.16.05-.38,0-.4.22,0,0-.08,0-.13,0s-.35.13-.51.22a3.68,3.68,0,0,0-.38.16c.08.11.14.27.24.35a.51.51,0,0,1,.24.41,10.91,10.91,0,0,1,.16,2.11c0,.05,0,.13.05.16s0,.22,0,.32c-.08.41.13.78.08,1.19.24.11.05.32.08.51s-.16.54.13.7c0,0,0,.11,0,.16,0,.24-.19.51.05.73a.11.11,0,0,1-.05.11v.32a4.41,4.41,0,0,1,0,1c-.05,0,0,.16,0,.19a.41.41,0,0,1,.08.46,1.14,1.14,0,0,0-.08.51v.54c.05.24-.08.51.14.76,0,0-.05.05-.05.08a15.47,15.47,0,0,1,0,1.59c-.08,1.16.08,2.35.08,3.48,0,.19.08.35.08.51a2.39,2.39,0,0,0,.32,1.11l.13.08a.45.45,0,0,0-.05-.24c.22.16.4.16.4.41,0,.08.08.11.16.16a1.82,1.82,0,0,0,.38,0c.08-.11.11-.27.19-.4a2.27,2.27,0,0,1,.38-.24c.11.08.24.22.35.3.08-.16.22-.32.3-.46a.79.79,0,0,1,.35.38.37.37,0,0,0,.41,0,1.52,1.52,0,0,1,0-.19H463a3.52,3.52,0,0,1,.16-.57,1.39,1.39,0,0,0,.32.19c.08-.16.11-.35.19-.4a.25.25,0,0,0,.24-.27c0-.22.16-.22.3-.24a1.2,1.2,0,0,1-.05-.4c0-.95,0-1.92-.08-2.83,0-.41-.08-.81-.11-1.19a2.1,2.1,0,0,0-.16-1,.2.2,0,0,1,0-.24.92.92,0,0,0,.08-.7,5.94,5.94,0,0,1-.16-1,11.92,11.92,0,0,1-.16-2,3.34,3.34,0,0,0,0-.51h.13a.88.88,0,0,0,.08.24c.59,1.48,1.16,3,1.78,4.45.57,1.21,1.13,2.43,1.78,3.64.35.67.81,1.38,1.21,2.05.43,0,.76-.08.89-.51,0,0,0-.05,0-.05a1.07,1.07,0,0,0,.38-1.05.12.12,0,0,0,0-.08c0-.65.05-1.32.05-2a1.09,1.09,0,0,1,0-.32,6,6,0,0,0,.08-2.08,3,3,0,0,1-.08-.49c.05-.65.08-1.3.13-1.94a8.59,8.59,0,0,0-.08-1.65,3.2,3.2,0,0,1,0-1.13c0-.46.08-.89.11-1.35s0-.81,0-1.21c0-.76.08-1.54.08-2.29a6.53,6.53,0,0,0,0-1A1.18,1.18,0,0,0,470.06,306.85Z" style="fill: rgb(109, 109, 109);" transform="matrix(1, 0, 0, 1, -2.842170943040401e-14, 0)"/><path class="cls-5" d="M481.34,321.51a5.52,5.52,0,0,0,.54-1.92c.08-.73.16-1.4.19-2.13a7.16,7.16,0,0,0,.08-1,4.82,4.82,0,0,0,.05-.89,4.12,4.12,0,0,1,0-1,5.76,5.76,0,0,0-.08-1.92,8.86,8.86,0,0,1-.16-.89,8.22,8.22,0,0,0-.46-1.65c0-.05,0-.08,0-.13a3.63,3.63,0,0,0-.65-2.05,1.9,1.9,0,0,0-1.27-.89,17.65,17.65,0,0,0-2.92-.22c-.24,0-.49,0-.76-.08a.58.58,0,0,0-.46.13,3.82,3.82,0,0,0-.67.65c-.38.49-.73,1-1.05,1.4-.13.16-.32.38-.32.54s-.16.35-.24.57a3.28,3.28,0,0,1-.32.51.37.37,0,0,0-.05.46c.05.08.16.11.24.19.08-.19.16-.35.24-.57-.32,1.3-.65,2.59-1,3.86a.58.58,0,0,1-.05-.3v-.27h-.08c0,.16-.08.32-.11.49h-.24a21.78,21.78,0,0,0-.46,4,1.41,1.41,0,0,0,.32,0c0,.24.08.49-.27.54a2.15,2.15,0,0,1,0,.4h.05a2.48,2.48,0,0,1,.08-.38c.08.24.16.46-.05.65,0,.05,0,.13,0,.22l.05,0s0-.08.11-.19a.65.65,0,0,1,.05.27,8.24,8.24,0,0,0,.57,1.92,9.63,9.63,0,0,0,.81,1.32,11.58,11.58,0,0,0,2.59,2.4s.11,0,.19,0a3.06,3.06,0,0,0,.7,0c.35,0,.73-.16,1.08-.16a4,4,0,0,0,1.75-.57,2.19,2.19,0,0,0,1.16-1.38A8.45,8.45,0,0,1,481.34,321.51Zm-9.42-4.18h-.05c0-.08,0-.11-.08-.19h.13Zm.24-2.29c-.22-.22-.14-.3,0-.4A1.82,1.82,0,0,0,472.17,315Zm3.4-2.4a.42.42,0,0,1,.24-.4c0,.05,0,.05.08.08A3.74,3.74,0,0,0,475.57,312.63Zm4.4,8a10.31,10.31,0,0,1-.43,1.38c-.05.16-.05.41-.38.32,0,0-.11.08-.19.16-.24.22-.46.4-.73.62-.46-.32-.86-.65-1.27-1a2.07,2.07,0,0,1-.59-1.27,12.38,12.38,0,0,1-.22-2.43c0-.43.05-.92.08-1.4a4.91,4.91,0,0,1,.08-.57c0-.05.05-.05.05-.08-.22-.62.19-1.13.24-1.75a2.94,2.94,0,0,1,.08-.81c0-.24-.05-.49.08-.73a2.26,2.26,0,0,0,0-.43c-.24-.16-.24-.16-.49-.08.08-.3.16-.54.24-.78s.08-.4.11-.59a4.05,4.05,0,0,1,.16-.54,4.61,4.61,0,0,0,.38-1.73c0-.16.08-.32.11-.46s.13-.32.3-.35.16-.08.19-.13c.3-.35.54-.24.86-.11s.59.43.76.81a12,12,0,0,1,.78,3.4c.11.84.27,1.7.4,2.54a16.68,16.68,0,0,1,0,3.08A10.87,10.87,0,0,1,480,320.64Z" style="fill: rgb(109, 109, 109);" transform="matrix(1, 0, 0, 1, -2.842170943040401e-14, 0)"/><path class="cls-5" d="M472,313.19a4.91,4.91,0,0,0-.08.57l.05.05a2.72,2.72,0,0,1,.24-.41C472.33,313.25,472.25,313.17,472,313.19Z" style="fill: rgb(109, 109, 109);" transform="matrix(1, 0, 0, 1, -2.842170943040401e-14, 0)"/><path class="cls-5" d="M472.44,312.63c.05-.19.08-.4.16-.67a2.52,2.52,0,0,1-.43.35,1.3,1.3,0,0,0,.24.08.36.36,0,0,0-.05.22C472.41,312.6,472.41,312.63,472.44,312.63Z" style="fill: rgb(109, 109, 109);" transform="matrix(1, 0, 0, 1, -2.842170943040401e-14, 0)"/><path class="cls-5" d="M447.24,356a2.29,2.29,0,0,1-.46-.08c.16-.38.38-.7.54-1.05s.32-.73.49-1.11a2.59,2.59,0,0,0,.32-1,2.16,2.16,0,0,1,.11-.73,2.14,2.14,0,0,0-1.62-2.7,13.31,13.31,0,0,0-3.1,0,9.17,9.17,0,0,1-1.21.14c-.38-.05-.78-.32-1.19-.16H441a3.44,3.44,0,0,0-.49-.08c-.11.16-.27.27-.16.43a1.71,1.71,0,0,1,.24,1c0,.43,0,.89,0,1.32,0,.05,0,.13,0,.16s.14,0,.22,0a3.3,3.3,0,0,0-.22.43v.86c0,.67.05,1.38.05,2.05v.89c0,.57,0,1.11,0,1.67v.35c0,.13,0,.3.05.32s-.16.3,0,.32,0,.22,0,.3.05.11.05.11c.16.13.11.3.11.4a5.31,5.31,0,0,1-.08,1.46c-.08.16,0,.4,0,.62a4.5,4.5,0,0,0-.05.59.28.28,0,0,1,0,.32c-.14.16-.08.41-.14.62s0,.43,0,.67v1.78a1.81,1.81,0,0,1,0,.38,2.25,2.25,0,0,0,0,1.46c.05.08,0,.19,0,.27a.76.76,0,0,1-.16.3s0,0,0,.08a.23.23,0,0,0,.16-.05c.05.3.14.54.16.81a1.35,1.35,0,0,1-.27.08c.16.13.32.22.32.46a.29.29,0,0,0,.08.16.93.93,0,0,0,1,.27c.16,0,.24-.08.4.05s.32,0,.49,0c0-.08,0-.16,0-.22.3-.16.49.05.78.22.08-.57.49-.62.89-.65a.59.59,0,0,1,0,.24c.16-.16.22-.38.32-.41a7.87,7.87,0,0,0,1.62-.89c.54-.38,1.21-.57,1.43-1.3,0-.05.08-.05.08-.08a3,3,0,0,0,.24-.38c.16-.51.32-1.05.43-1.54a13.76,13.76,0,0,0,.46-2.59.77.77,0,0,1,0-.24c.05-.16.08-.27.13-.43,0-.54.08-1.11.11-1.67a7.51,7.51,0,0,0,.08-1.13,3.94,3.94,0,0,0-.76-2.27A2.13,2.13,0,0,0,447.24,356Zm-2.43-3.64a3.37,3.37,0,0,0-.49-1.35,1.73,1.73,0,0,1-.16-.49,2.48,2.48,0,0,1,1.86-.11,1.16,1.16,0,0,1,.73.65,1.5,1.5,0,0,1,0,.35,10,10,0,0,1-1.21,3.05c-.13.19-.24.4-.38.59a3.05,3.05,0,0,1-.24-1.38C444.9,353.2,444.84,352.74,444.82,352.31Zm3.24,9.66c-.14.78-.22,1.59-.38,2.35a9.06,9.06,0,0,1-.51,1.43.63.63,0,0,1-.3.35q-.65.61-1.38,1.21a1.32,1.32,0,0,1-.35.22v-.81a2.37,2.37,0,0,0-.08-.86v-.08c.27-.24.11-.57.16-.84s-.05-.62-.05-.89.08-.65.05-.95c-.13-.67.11-1.32,0-2a3.85,3.85,0,0,1,.11-.92,4.71,4.71,0,0,0,0-.62c-.05-.57-.13-1.13-.16-1.7a2.18,2.18,0,0,1,.11-.67.45.45,0,0,1,.32-.13c.16-.08.38-.08.54-.16a1,1,0,0,1,1.05.22,2.6,2.6,0,0,1,.51.43,2.13,2.13,0,0,1,.54,1.35A17.4,17.4,0,0,1,448.05,362Z" style="fill: rgb(109, 109, 109);" transform="matrix(1, 0, 0, 1, -2.842170943040401e-14, 0)"/><path class="cls-5" d="M458.67,367.64a1.65,1.65,0,0,0-.7-.16c-.57,0-1.13.05-1.65.05h-.41c-.05-.57-.13-1.11-.13-1.62s.05-.73.05-1.11a3.48,3.48,0,0,0,0-.75c-.05-.54-.24-1.05-.3-1.59,0-.11-.08-.19-.08-.27a2.2,2.2,0,0,0,0-1.11,7.65,7.65,0,0,0-.08-.81c-.08-.35-.16-.67-.24-1a1.16,1.16,0,0,1-.08-.22c0-.49-.11-.92-.16-1.4a3,3,0,0,1,0-.7,2.79,2.79,0,0,0,0-.67c-.08-.32-.22-.7-.3-1a3.65,3.65,0,0,0-.19-.73c-.08-.43-.24-.89-.32-1.32a1.27,1.27,0,0,0-.7-1,3.7,3.7,0,0,0-1.46-.41,4.53,4.53,0,0,0-1.05,0,.22.22,0,0,0-.19.32.86.86,0,0,1,.11.62v1.7c0,.51.05,1.08.05,1.62,0,.24-.05.51-.05.76,0,.08.08.16.16.3-.16.11-.16.32-.16.51a15.26,15.26,0,0,1,.05,1.54v.22c0,.16-.05.32-.05.51,0,.57.08,1.19.08,1.75,0,.84-.08,1.7-.11,2.59,0,.43-.05.89-.05,1.32a4.07,4.07,0,0,1,0,.81,3,3,0,0,0,.13,1.46,7.21,7.21,0,0,1,.24.81.64.64,0,0,0,.32.46,3.05,3.05,0,0,0,1.3.4c.51,0,1.05,0,1.57,0h1.27a14,14,0,0,0,2.13,0,2.16,2.16,0,0,0,1.43-.86c.08-.11.19-.35.11-.49A2,2,0,0,0,458.67,367.64Zm-7-9.47a1.77,1.77,0,0,0-.08-.41C451.81,357.84,451.81,358,451.7,358.17Zm1,2.11s.13-.11.22-.19c.08.24.11.43.16.65-.05,0-.08,0-.13,0Zm.38.57a2.39,2.39,0,0,1,0,.41C453,361.13,452.86,361,453.08,360.84Zm.11,2.08c-.24-.3-.19-.54.08-.7A1.24,1.24,0,0,1,453.19,362.92Z" style="fill: rgb(109, 109, 109);" transform="matrix(1, 0, 0, 1, -2.842170943040401e-14, 0)"/><path class="cls-5" d="M469.33,358.57c0-.84-.11-1.7-.16-2.54,0-.05,0-.13,0-.16-.16-.22-.05-.46-.08-.7a1.51,1.51,0,0,0,0-.35c-.05-.24-.08-.54-.13-.81a.64.64,0,0,0-.24.16,1.07,1.07,0,0,1,0-.3c.05,0,.16,0,.3-.08a1.3,1.3,0,0,1-.54-1c-.11,0-.16-.05-.27-.05v-.57c-.05-.16-.08-.27-.13-.43s-.16-.32-.24-.46a2.12,2.12,0,0,0-.32-.35,1.52,1.52,0,0,0-.27-.08c-.05-.08-.08-.16-.13-.24a.58.58,0,0,0-.16,0,.94.94,0,0,0-.32-.24,2,2,0,0,0-.4,0,2.43,2.43,0,0,1-1-.13.68.68,0,0,0-.76.24c-.05,0-.08-.11-.13-.11a1.59,1.59,0,0,0-1.21.08,10.07,10.07,0,0,0-1.46,1.38,6.61,6.61,0,0,0-1.3,2.27,9.33,9.33,0,0,0-.32,3.24c.05.76.05,1.48.05,2.27a10.64,10.64,0,0,0,0,2.78,22.91,22.91,0,0,1,.38,3.29c0,.65,0,1.3,0,1.94a1.61,1.61,0,0,1-.22,1c.62.27.89.16.94-.46s0-1.4.08-2.11.08-1.57.16-2.35.11-1.4.19-2.11c.05-.51.13-1.08.16-1.62h3.48c0,.16.05.3.05.46-.05.84-.05,1.65-.08,2.51a.31.31,0,0,1-.08.19.63.63,0,0,0-.16.49,4.24,4.24,0,0,0-.05.81,2.53,2.53,0,0,0,0,.46c.22.19.13.35.13.57a1.69,1.69,0,0,0,.08.35c0,.13,0,.24,0,.32.05.54.08,1,.13,1.51a3.46,3.46,0,0,1-.08.41,2.32,2.32,0,0,0-.05.43,6.93,6.93,0,0,0,.94,1.54c0,.05.11.05.16.08.24.16.57.05.84.24a1.2,1.2,0,0,0,.08-.4c.24-.11.22.13.22.16.24-.11.41-.16.57-.24s.32-.27.49-.41a1.18,1.18,0,0,1-.08-.41c.19.16.32.24.49.38.35-.24.24-.7.4-1a1.89,1.89,0,0,0,0-.41,2.15,2.15,0,0,1,.05-1.24V365.1c0-.73-.05-1.46,0-2.24,0-.49-.05-.92-.08-1.4,0-.3,0-.57,0-.86a.3.3,0,0,1,.08-.16,1.28,1.28,0,0,0,0-.32A7.19,7.19,0,0,1,469.33,358.57Zm-4-1a.3.3,0,0,0-.08.19,4.72,4.72,0,0,0,0,.62,6.5,6.5,0,0,0-3.21.41,3.81,3.81,0,0,0,0-.78,14.72,14.72,0,0,1,.05-1.89,8.63,8.63,0,0,1,.51-2V354c.05-1,.78-1.54,1.35-2.16a2.91,2.91,0,0,1,.35-.27.15.15,0,0,1,.13-.05,18.25,18.25,0,0,1,.51,2.89l.22-.41a3.25,3.25,0,0,1-.24,2.46c.11,0,.19.05.32.05-.05.24.24.43,0,.73.05-.05.08-.05.16-.05S465.52,357.44,465.36,357.57Zm1.19-1.78s-.05,0-.05,0a1.84,1.84,0,0,1-.08-.32h.13Zm.16-3.94h-.05v-.27h.05Zm.19,4.67V356C467.12,356.11,466.9,356.3,466.9,356.52Zm.95,0c-.16-.16-.14-.24,0-.32Zm.67-2.21c0-.08-.11-.16-.16-.3C468.6,354,468.57,354.2,468.52,354.33Zm.38,14.44h-.05v-.24h.08A.77.77,0,0,1,468.9,368.77Z" style="fill: rgb(109, 109, 109);" transform="matrix(1, 0, 0, 1, -2.842170943040401e-14, 0)"/><path class="cls-5" d="M479,352.87a1.85,1.85,0,0,0-.05-.78,7.79,7.79,0,0,0-.41-1,1.23,1.23,0,0,0-1.16-.78.89.89,0,0,1-.46-.11,3.77,3.77,0,0,0-1.32-.22.42.42,0,0,1-.46-.11c-.16,0-.27.08-.4.11s-.19,0-.24.08c-.27.24-.27.24-.43.3a1.25,1.25,0,0,0-.57.11,2,2,0,0,1-.89.13h-.38c0,.27-.08.49-.11.73-.16.67-.38,1.4-.49,2.13s-.22,1.43-.3,2.11c-.11.86-.27,1.67-.32,2.48,0,.51-.11,1-.11,1.54a15.48,15.48,0,0,1-.16,2.21c-.05.7-.08,1.38-.13,2.08a9.38,9.38,0,0,0,.05,2.13.65.65,0,0,1,0,.32,1.11,1.11,0,0,0,.16.94,4.18,4.18,0,0,0,2,1.89,10.66,10.66,0,0,0,1.29.49,2.76,2.76,0,0,0,1.62.05,3.83,3.83,0,0,0,1.62-1.05,2.46,2.46,0,0,0,.7-1.27c.08-.32.24-.65.35-1a1.58,1.58,0,0,0,.14-1.05,1.27,1.27,0,0,1-.14-.78,1.7,1.7,0,0,0-.27-.73.3.3,0,0,0-.41-.16.27.27,0,0,0-.05.16c-.16.81-.27,1.67-.41,2.48a4.41,4.41,0,0,1-.92,2,1,1,0,0,1-1.05.46,2.49,2.49,0,0,1-1.27-.65c.32-.24.05-.46,0-.7.08,0,.19-.11.19-.16,0-.32.24-.51.3-.81a4.34,4.34,0,0,1,.19-1A7,7,0,0,0,475,364c0-.54,0-1.05,0-1.59a2.2,2.2,0,0,0,0-.73.61.61,0,0,1,0-.49,3.09,3.09,0,0,0-.05-1.4,8.6,8.6,0,0,1,.05-1.19c0-.19.08-.35.08-.51s0-.62,0-.89c0-.54,0-1.05,0-1.59a3.91,3.91,0,0,0-.13-1.24,5.58,5.58,0,0,1-.19-2.67.36.36,0,0,1,.24-.32,1.74,1.74,0,0,1,1.16-.22,11.33,11.33,0,0,1,1.54.32c.24.14.38.24.41.49s.08.78.13,1.13a2.61,2.61,0,0,1-.13,1.3c.38.3.7.08,1.11.08a2.86,2.86,0,0,0,0-.49A1.54,1.54,0,0,1,479,352.87Zm-6.24,6.83a10.62,10.62,0,0,0-.22,1.62c0,.65-.08,1.35-.08,2a.85.85,0,0,1-.11.43,17.52,17.52,0,0,1,0-2.37c0-.81.11-1.62.16-2.43a.11.11,0,0,1,.11-.05c.05.08.13.13.13.22Zm.11-2.27h-.08c.05-.35.08-.73.13-1.05A1.56,1.56,0,0,1,472.92,357.44Zm.32-2.7h-.11c0-.22.08-.41.11-.62h.08A.83.83,0,0,1,473.25,354.74Z" style="fill: rgb(109, 109, 109);" transform="matrix(1, 0, 0, 1, -2.842170943040401e-14, 0)"/><path class="cls-5" d="M489.9,365.62a3,3,0,0,0-.3-.59c-.35-.78-.73-1.51-1.08-2.24a10.79,10.79,0,0,0-1-1.81,8.75,8.75,0,0,0-.59-.89c.24-.46.43-.86.65-1.27.24-.57.49-1.13.73-1.65s.57-1.05.81-1.62c.32-.73.59-1.46.92-2.19a.89.89,0,0,0,0-.65.49.49,0,0,0-.27-.3c-.16,0-.24.08-.32.22a3.15,3.15,0,0,1-.24.43c-.46.78-.89,1.51-1.27,2.27a15.61,15.61,0,0,1-1.7,3c-.08.08-.11.13-.27.3,0-.38.08-.65.11-.89a9.92,9.92,0,0,0,.14-2.19,1,1,0,0,1,0-.41,3.7,3.7,0,0,0,0-1.21c0-.38,0-.78,0-1.13s-.08-.57-.43-.65a5.35,5.35,0,0,0-2.32-.57h-.08c-.24-.22-.51-.08-.76-.05s-.65.08-1,.16-.41.05-.49.24a.44.44,0,0,1-.54.38c-.11.16-.24.27-.35.43.08.05.24.13.19.22,0,.32.32.51.3.84s.08.46.08.65a11.71,11.71,0,0,1,.08,1.38,1.92,1.92,0,0,0,.08.78s.08.11,0,.16,0,.49-.08.73a1.48,1.48,0,0,0,.05.59c0,.38,0,.7.08,1.05,0,.08-.05.13-.05.22a1.62,1.62,0,0,0-.08,1.08c.05-.08.08-.08.13-.16,0,.08,0,.22,0,.22-.3.19-.16.49-.22.73s.05.32.05.49c-.05.57-.08,1.08-.08,1.65v1.3a7.76,7.76,0,0,1,0,1.13,11.94,11.94,0,0,0,.24,2c0,.16.05.32.05.49a.55.55,0,0,0,.57.59h.43l.24-.24c.22.16.4.38.65.22s.3-.16.41-.08a.13.13,0,0,0,.16-.05c0-.24.05-.49-.11-.67a1.77,1.77,0,0,1,.41.16.77.77,0,0,0,0-.24c.24-.13.46,0,.65.08s.08.24.22.11a.35.35,0,0,0,.08-.27c0-.13-.08-.22.08-.3,0,.16.08.32.11.49.08-.27.16-.49.24-.73a.78.78,0,0,0,.08-.49c-.08-.51.05-1.05,0-1.57a8,8,0,0,1,0-.81,4.67,4.67,0,0,1,.08-.57,2.92,2.92,0,0,1,.08-1.19c.05-.11,0-.24,0-.32a1.18,1.18,0,0,1,.13-.73c0,.08.16.13.19.22a11.88,11.88,0,0,1,1.3,2.29c.22.57.38,1.19.62,1.75.27.73.57,1.48.89,2.21a2.85,2.85,0,0,0,.49.89.69.69,0,0,0,1.21-.08,1.44,1.44,0,0,1,.76-.67c-.08-.22-.16-.46-.24-.62A6.18,6.18,0,0,1,489.9,365.62Z" style="fill: rgb(109, 109, 109);" transform="matrix(1, 0, 0, 1, -2.842170943040401e-14, 0)"/><path class="cls-5" d="M658.9,227.54v.3H659v-.3Z" style="fill: rgb(109, 109, 109);" transform="matrix(1, 0, 0, 1, -2.842170943040401e-14, 0)"/><path class="cls-5" d="M658.42,220.55c.05.32.08.65.13,1s.19.73.16,1.13a.29.29,0,0,0,.08.16.37.37,0,0,1,.08.35c-.16.3.08.62-.05.86,0,0,0,.08,0,.11.24.22.38.46.22.73V225c.08.3-.08.57.16.78v0c-.08.41-.08.86-.16,1.27a.83.83,0,0,0,0,.57.71.71,0,0,1,0,.4s-.13,0-.13.08c0,.51-.08,1.05-.11,1.62a1.58,1.58,0,0,1,.19,0c.22.62-.08,1.19.05,1.78a1.64,1.64,0,0,1,0,.81c0,.3-.08.57-.08.86,0,.51-.16,1-.24,1.54a.34.34,0,0,0,.05.16c-.05.19-.16.32-.14.43.08.38.08.38.05.49s-.05.38-.05.57a6.73,6.73,0,0,1,0,.73c.08.16.16.38.27.57s.49.3.78.16c.08.24.27,0,.4.13a.17.17,0,0,0,.27,0c.08-.11.3-.19.08-.43.24-.05.4-.05.57-.08a2.49,2.49,0,0,0,.13.27,1,1,0,0,0,.59-.51c.16-.13.38-.16.41-.3a3.1,3.1,0,0,0,.46-1.54,6.72,6.72,0,0,1,0-.73c.14-.92.3-1.86.41-2.78,0-.14,0-.24,0-.38a5.81,5.81,0,0,0,.08-1.81c0-.32-.08-.62-.08-.95,0-.51,0-1.08,0-1.62,0,0,.08-.08.13-.16.41.81.81,1.59,1.16,2.35a.34.34,0,0,1,0,.32.32.32,0,0,0,.08.41,1.32,1.32,0,0,0,.54.3,2.83,2.83,0,0,0,1,.08,2,2,0,0,1,.57,0c.27,0,.27.08.43-.24.05-.05.08-.08.08-.13a6.19,6.19,0,0,0,1-2.54,3.08,3.08,0,0,0,.24-1.46,4.74,4.74,0,0,1,.13-.89,5.07,5.07,0,0,1,.51-1.86,2.52,2.52,0,0,1,.3-.41c0,.76,0,1.4.08,2.11,0,1,.08,2,.08,3s.16,2,.19,3a8.41,8.41,0,0,0,.22,1.4c.11.46-.08,1,.24,1.43a.81.81,0,0,0-.05.19v.38a2.48,2.48,0,0,1,.14.76,6.5,6.5,0,0,1,.08.78c-.05.16,0,.35,0,.51s.08.38.3.4.27,0,.43,0a1.31,1.31,0,0,1,.32,0c.32.14.3.14.49-.11s.3-.54.7-.41a1.86,1.86,0,0,0,.08-.32c-.05-.46-.13-.89-.16-1.38,0-.05-.05-.13,0-.16a2.94,2.94,0,0,0-.05-1,5.21,5.21,0,0,1-.16-1.13,8.49,8.49,0,0,0-.08-1.86c-.08-.81,0-1.62-.11-2.43v-.16c0-.78-.05-1.54-.05-2.27s-.08-1.3-.08-1.92a5.63,5.63,0,0,1,.05-.65c-.05-.57-.13-1.13-.16-1.73a4.12,4.12,0,0,0-.62-1.92,1,1,0,0,0-1.05-.51l-.73.11a.61.61,0,0,0-.51.62,1.35,1.35,0,0,1-.24.65c-.08.11-.22.27-.3.4a14.91,14.91,0,0,0-1.16,2.59c-.32,1.05-.7,2.11-1,3.16-.11.27-.24.59-.35.92-.08-.19-.16-.32-.24-.49-.3-.51-.62-1.08-.89-1.65s-.46-.95-.65-1.38c-.41-.81-.78-1.62-1.21-2.43a5.67,5.67,0,0,0-1.38-1.84.91.91,0,0,0-.73-.19,1.36,1.36,0,0,1-.86,0,1.78,1.78,0,0,0-1.24,0c-.32.08-.38.27-.22.57A.62.62,0,0,1,658.42,220.55Zm2,13.77.08,0c-.08.13-.16.24-.24.41C660.12,234.48,660.28,234.4,660.41,234.32Zm-.32,1.13c0-.05.16-.08.32-.22,0,.24-.05.38-.05.49s0,.05-.08.05C660.28,235.61,660,235.64,660.09,235.45Zm-.81-3.62h.08c0,.08-.05.22-.05.3s0,0-.08-.05A.4.4,0,0,0,659.28,231.83Zm.08,1.84a1.64,1.64,0,0,1,.08-.81c0-.41.08-.81.11-1.21a.59.59,0,0,1,.14-.32h.08a2.2,2.2,0,0,1,0,.84,2.68,2.68,0,0,0,0,.46c0,.11.08.27.11.43h-.11v-.43c-.05.08-.16.16-.16.27-.05.65-.08,1.35-.13,2,.05-.19.08-.4.13-.67.11.16.19.19.24.27a.57.57,0,0,1-.08.38.38.38,0,0,0-.08.43.56.56,0,0,1-.16.62c-.13-.08,0-.38-.24-.38-.05,0-.08-.16-.08-.24a5.18,5.18,0,0,0,0-1.3s0-.11,0-.16S659.36,233.75,659.36,233.67Z" style="fill: rgb(109, 109, 109);" transform="matrix(1, 0, 0, 1, -2.842170943040401e-14, 0)"/><path class="cls-5" d="M674.48,235.94c.16-.13.38-.3.32-.54v-1.24c0-.73-.08-1.46-.08-2.19,0-.49.05-1,.05-1.46s0-.81,0-1.21c0-.73.08-1.43.13-2.11,0-.32-.05-.7-.05-1s.08-.89.13-1.32c0,0,0-.05,0,0,1.13.08,2.24.11,3.32.19.14.32.05.32.08.73.05.57-.11,1.11,0,1.67v.27c0,.05.05.08.05.16a.17.17,0,0,0,.11,0c0-.3-.19-.57.05-.86a18.88,18.88,0,0,1-.08,3.54V230h-.22a1.86,1.86,0,0,0,.08.7.47.47,0,0,1,.08.51.79.79,0,0,1-.19.32c0,.08-.05.16-.05.24a7.22,7.22,0,0,0,.22.81v.24a4.55,4.55,0,0,0-.08,1.21,14.64,14.64,0,0,1-.08,1.54,2.79,2.79,0,0,1-.08.46c-.05.51-.08,1.05-.13,1.54s.13.73.65.65a.6.6,0,0,1,.49,0,1,1,0,0,0,.3,0,1,1,0,0,1,0-.27,1.63,1.63,0,0,0,.46.19,1.19,1.19,0,0,0,.49.05c0-.3.32-.24.43-.46s.38-.19.62-.16c0-.19.08-.41.11-.59a.3.3,0,0,1,.08-.16c.3-.05.24-.24.24-.46s.05-.27.05-.41c0-.35.08-.73.11-1.08s0-.7.08-1a1.57,1.57,0,0,0,.08-.78V233a2.5,2.5,0,0,0,.08-1v-.65c.08-.65.16-1.3.22-2,0-.92,0-1.89,0-2.83v-.27a2.26,2.26,0,0,0,.05-1.27.26.26,0,0,1-.05-.19,3.71,3.71,0,0,0,0-.54c-.22-.73-.41-1.48-.65-2.27-.13-.35-.3-.73-.46-1.05s-.16-.35-.24-.57c-.19.08-.27,0-.32-.19-.08-.38-.41-.57-.59-.86-.05,0-.16-.11-.22-.08s-.35-.08-.49-.16a3.15,3.15,0,0,0-2.94,0,6.2,6.2,0,0,0-1.43,1.35,4.78,4.78,0,0,0-1,2.21,12.36,12.36,0,0,0-.24,2.43c0,.46-.08.89-.11,1.35l-.24,3.67c-.05.57-.08,1.19-.13,1.75v1.81c0,.81.05,1.62.08,2.48A1,1,0,0,0,674.48,235.94Zm1.35-14.5a2.75,2.75,0,0,1,.59-.86,4,4,0,0,1,.81-.59,4.12,4.12,0,0,0,.3.73s0,.16.08.16c.32.08.35.32.32.59a.24.24,0,0,0,0,.14,1.81,1.81,0,0,1,.32,1.16,3.11,3.11,0,0,0,.16.78,9.7,9.7,0,0,0-3.18.08A7.22,7.22,0,0,1,675.83,221.44Z" style="fill: rgb(109, 109, 109);" transform="matrix(1, 0, 0, 1, -2.842170943040401e-14, 0)"/><path class="cls-5" d="M684,231.56a6.08,6.08,0,0,0,.3.92c.11.3,0,.7.49.81v.08a1.38,1.38,0,0,1,.19.46.29.29,0,0,1,.05.24c-.13.19,0,.4.08.51a6.39,6.39,0,0,0,1,1.29,4.86,4.86,0,0,0,2.73,1.13,2.83,2.83,0,0,0,2.29-1,6,6,0,0,0,1.11-1.62,2.13,2.13,0,0,0,.27-1.13c0-.4,0-.81-.08-1.21a7.7,7.7,0,0,0-.24-1.13.1.1,0,0,0-.08-.05c-.08.22-.11.41-.19.62-.24.73-.54,1.4-.78,2.11a1.89,1.89,0,0,1-.16.51c-.27.7-.57.78-1.21.46a.6.6,0,0,1-.35-.73,5.58,5.58,0,0,0-.05-.95,23.81,23.81,0,0,1-.57-2.83c0-.19.05-.35.05-.57a6.39,6.39,0,0,1-.05-1.62c.08-.51-.08-1.05,0-1.57s0-1.3,0-2v-1.62c0-.19-.08-.4-.08-.59a12.52,12.52,0,0,1,.05-1.43c0-.16,0-.32,0-.43a1.9,1.9,0,0,0,.62-.3c.19-.16.32-.19.49,0a.93.93,0,0,1,.24.32,10.57,10.57,0,0,1,.92,1.94,2.39,2.39,0,0,0,.57.89.48.48,0,0,0,.78-.08c.08-.19.27-.32.24-.59a.61.61,0,0,1,.19-.3c.16-.19.38-.41.22-.73,0,0-.05-.11,0-.16.11-.27-.05-.49-.13-.73s-.16-.19-.19-.32a2.92,2.92,0,0,0-1.38-1.57,2.19,2.19,0,0,0-1.75-.32,5.91,5.91,0,0,1-.92.11l-1.3.14a4.88,4.88,0,0,1-.57.08,3,3,0,0,0-.7.08.76.76,0,0,1-.76.08,3.58,3.58,0,0,0-.24,1.16c0,.08-.05.16-.05.24a.89.89,0,0,0-.11.46c-.08.4-.16.84-.24,1.24a7.8,7.8,0,0,0-.24,1.54c0,.24-.13.54-.13.81s-.11.54-.11.81a7.54,7.54,0,0,1-.05.78c-.08.59-.16,1.24-.19,1.86a12.47,12.47,0,0,0,0,1.4c0,.57,0,1.11-.08,1.67C683.9,231,684,231.27,684,231.56Zm2.92.41c-.16-.08-.11-.22-.08-.46a1.83,1.83,0,0,1,.08.46,4.9,4.9,0,0,1,.24.43C686.82,232.24,686.9,232.08,686.9,232Zm.3-.38a5.86,5.86,0,0,1,.19.94,1.43,1.43,0,0,1-.33-1.11h0C687.11,231.48,687.2,231.51,687.2,231.59Zm-.41-1.54c.11.53.19.93.26,1.35-.18-.05-.27-.14-.32-.38A2.05,2.05,0,0,1,686.79,230.05Zm-1.35,2a1.17,1.17,0,0,0,.08.32h0c-.05,0-.05-.08-.08-.11s-.05-.13-.05-.16S685.41,232.08,685.44,232.08Zm-1.32-4.21a1,1,0,0,0,.16.24C684.06,228.08,684.06,228.08,684.12,227.87Z" style="fill: rgb(109, 109, 109);" transform="matrix(1, 0, 0, 1, -2.842170943040401e-14, 0)"/><path class="cls-5" d="M694.92,231.73V232H695v-.27Z" style="fill: rgb(109, 109, 109);" transform="matrix(1, 0, 0, 1, -2.842170943040401e-14, 0)"/><path class="cls-5" d="M695.81,229.73h-.05c0,.14-.08.24-.11.38s0,0,.08,0A2.77,2.77,0,0,1,695.81,229.73Z" style="fill: rgb(109, 109, 109);" transform="matrix(1, 0, 0, 1, -2.842170943040401e-14, 0)"/><path class="cls-5" d="M737.51,224h0v0Z" style="fill: rgb(109, 109, 109);" transform="matrix(1, 0, 0, 1, -2.842170943040401e-14, 0)"/><path class="cls-5" d="M658.9,271.54v.3H659v-.3Z" style="fill: rgb(109, 109, 109);" transform="matrix(1, 0, 0, 1, -2.842170943040401e-14, 0)"/><path class="cls-5" d="M668.86,267.38a2.52,2.52,0,0,1,.3-.41c0,.76,0,1.4.08,2.11,0,1,.08,2,.08,3s.16,2,.19,3a8.41,8.41,0,0,0,.22,1.4c.11.46-.08,1,.24,1.43a.81.81,0,0,0-.05.19v.38a2.48,2.48,0,0,1,.14.76,6.5,6.5,0,0,1,.08.78c-.05.16,0,.35,0,.51s.08.38.3.4.27,0,.43,0a1.31,1.31,0,0,1,.32,0c.32.14.3.14.49-.11s.3-.54.7-.41a1.86,1.86,0,0,0,.08-.32c-.05-.46-.13-.89-.16-1.38,0-.05-.05-.13,0-.16a2.94,2.94,0,0,0-.05-1,5.21,5.21,0,0,1-.16-1.13,8.49,8.49,0,0,0-.08-1.86c-.08-.81,0-1.62-.11-2.43v-.16c0-.78-.05-1.54-.05-2.27s-.08-1.3-.08-1.92a5.63,5.63,0,0,1,.05-.65c-.05-.57-.13-1.13-.16-1.73a4.12,4.12,0,0,0-.62-1.92,1,1,0,0,0-1.05-.51l-.73.11a.61.61,0,0,0-.51.62,1.35,1.35,0,0,1-.24.65c-.08.11-.22.27-.3.4a14.91,14.91,0,0,0-1.16,2.59c-.32,1.05-.7,2.11-1,3.16-.11.27-.24.59-.35.92-.08-.19-.16-.32-.24-.49-.3-.51-.62-1.08-.89-1.65s-.46-.95-.65-1.38c-.41-.81-.78-1.62-1.21-2.43a5.67,5.67,0,0,0-1.38-1.84.91.91,0,0,0-.73-.19,1.36,1.36,0,0,1-.86,0,1.78,1.78,0,0,0-1.24,0c-.32.08-.38.27-.22.57a.62.62,0,0,1,.16.41c.05.32.08.65.13,1s.19.73.16,1.13a.29.29,0,0,0,.08.16.37.37,0,0,1,.08.35c-.16.3.08.62-.05.86,0,0,0,.08,0,.11.24.22.38.46.22.73V269c.08.3-.08.57.16.78v0c-.08.41-.08.86-.16,1.27a.83.83,0,0,0,0,.57.71.71,0,0,1,0,.4s-.13,0-.13.08c0,.51-.08,1.05-.11,1.62a1.58,1.58,0,0,1,.19,0c.22.62-.08,1.19.05,1.78a1.64,1.64,0,0,1,0,.81c0,.3-.08.57-.08.86,0,.51-.16,1-.24,1.54a.34.34,0,0,0,.05.16c-.05.19-.16.32-.14.43.08.38.08.38.05.49s-.05.38-.05.57a6.73,6.73,0,0,1,0,.73c.08.16.16.38.27.57s.49.3.78.16c.08.24.27,0,.4.13a.17.17,0,0,0,.27,0c.08-.11.3-.19.08-.43.24-.05.4-.05.57-.08a2.49,2.49,0,0,0,.13.27,1,1,0,0,0,.59-.51c.16-.13.38-.16.41-.3a3.1,3.1,0,0,0,.46-1.54,6.72,6.72,0,0,1,0-.73c.14-.92.3-1.86.41-2.78,0-.14,0-.24,0-.38a5.81,5.81,0,0,0,.08-1.81c0-.32-.08-.62-.08-.95,0-.51,0-1.08,0-1.62,0,0,.08-.08.13-.16.41.81.81,1.59,1.16,2.35a.34.34,0,0,1,0,.32.32.32,0,0,0,.08.41,1.32,1.32,0,0,0,.54.3,2.83,2.83,0,0,0,1,.08,2,2,0,0,1,.57,0c.27,0,.27.08.43-.24.05-.05.08-.08.08-.13a6.19,6.19,0,0,0,1-2.54,3.08,3.08,0,0,0,.24-1.46,4.74,4.74,0,0,1,.13-.89A5.07,5.07,0,0,1,668.86,267.38Zm-9.58,8.45h.08c0,.08-.05.22-.05.3s0,0-.08-.05A.4.4,0,0,0,659.28,275.83Zm.32,1.05c-.05.65-.08,1.35-.13,2,.05-.19.08-.4.13-.67.11.16.19.19.24.27a.57.57,0,0,1-.08.38.38.38,0,0,0-.08.43.56.56,0,0,1-.16.62c-.13-.08,0-.38-.24-.38-.05,0-.08-.16-.08-.24a5.18,5.18,0,0,0,0-1.3s0-.11,0-.16.13-.11.13-.19a1.64,1.64,0,0,1,.08-.81c0-.41.08-.81.11-1.21a.59.59,0,0,1,.14-.32h.08a2.2,2.2,0,0,1,0,.84,2.68,2.68,0,0,0,0,.46c0,.11.08.27.11.43h-.11v-.43C659.71,276.7,659.6,276.78,659.6,276.89Zm.76,2.83c0,.05,0,.05-.08.05,0-.16-.27-.13-.19-.32s.16-.08.32-.22C660.41,279.48,660.36,279.61,660.36,279.72Zm-.11-1c-.13-.27,0-.35.16-.43l.08,0C660.41,278.48,660.33,278.59,660.25,278.75Z" style="fill: rgb(109, 109, 109);" transform="matrix(1, 0, 0, 1, -2.842170943040401e-14, 0)"/><path class="cls-5" d="M674.29,278.51a3.24,3.24,0,0,0-.22-.43C674.07,278.26,674,278.48,674.29,278.51Z" style="fill: rgb(109, 109, 109);" transform="matrix(1, 0, 0, 1, -2.842170943040401e-14, 0)"/><path class="cls-5" d="M674.69,268h0v0Z" style="fill: rgb(109, 109, 109);" transform="matrix(1, 0, 0, 1, -2.842170943040401e-14, 0)"/><path class="cls-5" d="M674.4,268.3a1.63,1.63,0,0,0,.29-.34,1.07,1.07,0,0,0-.15-.23A1.17,1.17,0,0,0,674.4,268.3Z" style="fill: rgb(109, 109, 109);" transform="matrix(1, 0, 0, 1, -2.842170943040401e-14, 0)"/><path class="cls-5" d="M674.4,278.75c0-.08-.08-.16-.11-.24a.94.94,0,0,1,0,.3C674.37,278.8,674.37,278.8,674.4,278.75Z" style="fill: rgb(109, 109, 109);" transform="matrix(1, 0, 0, 1, -2.842170943040401e-14, 0)"/><path class="cls-5" d="M696.19,275.73V276h.08v-.27Z" style="fill: rgb(109, 109, 109);" transform="matrix(1, 0, 0, 1, -2.842170943040401e-14, 0)"/><path class="cls-5" d="M697.08,273.73H697c0,.14-.08.24-.11.38s0,0,.08,0A2.54,2.54,0,0,1,697.08,273.73Z" style="fill: rgb(109, 109, 109);" transform="matrix(1, 0, 0, 1, -2.842170943040401e-14, 0)"/><path class="cls-5" d="M658.9,323.94c.16-.13.38-.3.32-.54v-1.24c0-.73-.08-1.46-.08-2.19,0-.49.05-1,.05-1.46s0-.81,0-1.21c0-.73.08-1.43.13-2.11,0-.32-.05-.7-.05-1s.08-.89.13-1.32c0,0,0-.05,0,0,1.13.08,2.24.11,3.32.19.14.32.05.32.08.73.05.57-.11,1.11,0,1.67v.27c0,.05.05.08.05.16a.17.17,0,0,0,.11,0c0-.3-.19-.57.05-.86a18.88,18.88,0,0,1-.08,3.54V318h-.22a1.86,1.86,0,0,0,.08.7.47.47,0,0,1,.08.51.79.79,0,0,1-.19.32c0,.08-.05.16-.05.24a7.22,7.22,0,0,0,.22.81v.24a4.55,4.55,0,0,0-.08,1.21,14.64,14.64,0,0,1-.08,1.54,2.79,2.79,0,0,1-.08.46c-.05.51-.08,1.05-.13,1.54s.13.73.65.65a.6.6,0,0,1,.49,0,1,1,0,0,0,.3,0,1,1,0,0,1,0-.27,1.63,1.63,0,0,0,.46.19,1.19,1.19,0,0,0,.49.05c0-.3.32-.24.43-.46s.38-.19.62-.16c0-.19.08-.41.11-.59a.3.3,0,0,1,.08-.16c.3-.05.24-.24.24-.46s.05-.27.05-.41c0-.35.08-.73.11-1.08s0-.7.08-1a1.57,1.57,0,0,0,.08-.78V321a2.5,2.5,0,0,0,.08-1v-.65c.08-.65.16-1.3.22-2,0-.92,0-1.89,0-2.83v-.27a2.26,2.26,0,0,0,.05-1.27.26.26,0,0,1-.05-.19,3.71,3.71,0,0,0,0-.54c-.22-.73-.41-1.48-.65-2.27-.13-.35-.3-.73-.46-1.05s-.16-.35-.24-.57c-.19.08-.27,0-.32-.19-.08-.38-.41-.57-.59-.86-.05,0-.16-.11-.22-.08s-.35-.08-.49-.16a3.15,3.15,0,0,0-2.94,0,6.2,6.2,0,0,0-1.43,1.35,4.78,4.78,0,0,0-1,2.21,12.36,12.36,0,0,0-.24,2.43c0,.46-.08.89-.11,1.35l-.24,3.67c-.05.57-.08,1.19-.13,1.75v1.81c0,.81.05,1.62.08,2.48A1,1,0,0,0,658.9,323.94Zm1.35-14.5a2.75,2.75,0,0,1,.59-.86,4,4,0,0,1,.81-.59,4.12,4.12,0,0,0,.3.73s0,.16.08.16c.32.08.35.32.32.59a.24.24,0,0,0,0,.14,1.81,1.81,0,0,1,.32,1.16,3.11,3.11,0,0,0,.16.78,9.7,9.7,0,0,0-3.18.08A7.22,7.22,0,0,1,660.25,309.44Z" style="fill: rgb(109, 109, 109);" transform="matrix(1, 0, 0, 1, -2.842170943040401e-14, 0)"/><path class="cls-5" d="M669.21,315.54v.3h.05v-.3Z" style="fill: rgb(109, 109, 109);" transform="matrix(1, 0, 0, 1, -2.842170943040401e-14, 0)"/><path class="cls-5" d="M748.85,312h0v0Z" style="fill: rgb(109, 109, 109);" transform="matrix(1, 0, 0, 1, -2.842170943040401e-14, 0)"/><path class="cls-5" d="M667.65,359.84a.24.24,0,0,0,0-.14c-.13-.19-.08-.43-.13-.65a2.56,2.56,0,0,0-.27-1.08,4.28,4.28,0,0,1-.32-.57,1.32,1.32,0,0,0-.65-.86c-.22-.11-.46-.19-.7-.32a12.13,12.13,0,0,0,.73-1,5,5,0,0,0,.49-2.56,3.12,3.12,0,0,0-.19-.84,1.65,1.65,0,0,0-.86-1,4,4,0,0,0-3.4,0,1,1,0,0,1-.41.13,7,7,0,0,1-.73-.16.78.78,0,0,1-.27-.22c-.62.08-1.19.13-1.75.22a.84.84,0,0,1-.76.51.42.42,0,0,0-.38.57,5.18,5.18,0,0,0,.38,1.51v.08c-.13.27,0,.4.32.4a.94.94,0,0,0-.05.92c.05,0,.08-.11.14-.19,0,.08.11.11.11.19a.29.29,0,0,1,0,.3c-.11.57.08,1.13,0,1.7-.08.4.19.75,0,1.16,0,0,0,.08,0,.08.32.16,0,.38,0,.54s.22.16.16.24a2.18,2.18,0,0,0,.05.84c0,.05,0,.08-.05.16-.08.3.13.57-.08.86.24.19.08.43.05.59s.16.3.16.41a1.59,1.59,0,0,0-.16.4c0,.38.08.78.11,1.13a3.91,3.91,0,0,1,.13,1.27c-.05,0,0,.11,0,.16a7.24,7.24,0,0,1,.11.81,1.16,1.16,0,0,1,0,.43,3.92,3.92,0,0,0,0,.57c.05.49.08,1,.16,1.46a.62.62,0,0,0,.05.32c.08.32.16.7.24,1.05.57.38.89.38,1.21-.11a3.48,3.48,0,0,0,.49.11c.43-.24,1.05-.27,1.46-.73h.08a5,5,0,0,0,1-.51c.16-.14.32-.16.49-.32a5.92,5.92,0,0,0,.62-.81,1.3,1.3,0,0,1,.59-.49c.16-.08.46-.08.46-.4.32-.08.41-.41.57-.65a6.31,6.31,0,0,0,.92-3.81A12,12,0,0,1,667.65,359.84Zm-4.08-5.32a.71.71,0,0,1,.32-.59,1.13,1.13,0,0,0,.32-.73,6.18,6.18,0,0,1,.08-1,2.38,2.38,0,0,1,.84.89,1,1,0,0,1,0,1c-.32.43-.62.92-.94,1.32a.63.63,0,0,1-.59.4A10.43,10.43,0,0,1,663.57,354.52Zm2.13,8.42a7.07,7.07,0,0,1-.59,1.3l-.13.22a1.64,1.64,0,0,1-.57,1.08c-.24.3-.49.54-.73.81,0,0-.08,0-.08,0a1.21,1.21,0,0,0,0-.54.51.51,0,0,1,.08-.51v-.05c-.24-.49,0-1-.22-1.54,0,0,0-.16,0-.24s.05-.35.05-.57,0-.67,0-1a.53.53,0,0,0,0-.41,2.33,2.33,0,0,1,.13-1.35v0c0-.32-.05-.7-.05-1.05v-.73c0-.24.05-.49.05-.78a1.18,1.18,0,0,1,1.32.73c.16.3.24.62.38.89a7.1,7.1,0,0,1,.49,1.94A6.12,6.12,0,0,1,665.7,362.94Z" style="fill: rgb(109, 109, 109);" transform="matrix(1, 0, 0, 1, -2.842170943040401e-14, 0)"/><path d="M 638.690002 600.710022 A 2.5 2.5 0 0 1 636.190002 603.210022 A 2.5 2.5 0 0 1 633.690002 600.710022 A 2.5 2.5 0 0 1 636.190002 598.210022 A 2.5 2.5 0 0 1 638.690002 600.710022 Z" class="cls-13" style="fill: rgb(167, 169, 172);" transform="matrix(1, 0, 0, 1, -2.842170943040401e-14, 0)"/><path class="cls-16" d="M553.78,611.94h48.09a2.51,2.51,0,0,0,2.51-2.51v-2.86h-55l2.17,4A2.51,2.51,0,0,0,553.78,611.94Z" style="fill: rgb(88, 89, 91);" transform="matrix(1, 0, 0, 1, -2.842170943040401e-14, 0)"/><path class="cls-8" d="M458.46,557.19h52.93a2.1,2.1,0,0,0-2-1.49H460.46A2.1,2.1,0,0,0,458.46,557.19Z" style="fill: rgb(241, 242, 242);" transform="matrix(1, 0, 0, 1, -2.842170943040401e-14, 0)"/><path d="M 461.679993 511.359985 H 508.159992 V 512.849985 H 461.679993 V 511.359985 Z" class="cls-8" style="fill: rgb(241, 242, 242);" transform="matrix(1, 0, 0, 1, -2.842170943040401e-14, 0)"/><path class="cls-7" d="M472.48,554.21a23.3,23.3,0,0,0,2.73,1.49h19.41a23.27,23.27,0,0,0,2.73-1.49Z" style="fill: rgb(221, 221, 221);" transform="matrix(1, 0, 0, 1, -2.842170943040401e-14, 0)"/><path class="cls-8" d="M462.73,541.54h-2.35a8.68,8.68,0,0,1-8.67-8.67v-4.35a8.68,8.68,0,0,1,8.67-8.67h1.3v-5.48h-1.3a14.15,14.15,0,0,0-14.15,14.15v4.35A14.15,14.15,0,0,0,460.38,547h4.91A23.1,23.1,0,0,1,462.73,541.54Z" style="fill: rgb(241, 242, 242);" transform="matrix(1, 0, 0, 1, -2.842170943040401e-14, 0)"/><path class="cls-7" d="M461.15,541.54a24.6,24.6,0,0,0,2.36,5.48h1.78a23.1,23.1,0,0,1-2.56-5.48Z" style="fill: rgb(221, 221, 221);" transform="matrix(1, 0, 0, 1, -2.842170943040401e-14, 0)"/><path class="cls-7" d="M461.68,514.36h-1.54v5.48h1.54Z" style="fill: rgb(221, 221, 221);" transform="matrix(1, 0, 0, 1, -2.842170943040401e-14, 0)"/><path d="M 481.869995 486.070007 H 487.969995 V 493.760007 H 481.869995 V 486.070007 Z" class="cls-11" style="fill: rgb(209, 211, 212);" transform="matrix(1, 0, 0, 1, -2.842170943040401e-14, 0)"/><path d="M 481.869995 486.070007 H 487.969995 V 488.600007 H 481.869995 V 486.070007 Z" class="cls-13" style="fill: rgb(167, 169, 172);" transform="matrix(1, 0, 0, 1, -2.842170943040401e-14, 0)"/><path d="M 480.679993 493.76001 H 489.159992 V 497.23001 H 480.679993 V 493.76001 Z" class="cls-11" style="fill: rgb(209, 211, 212);" transform="matrix(1, 0, 0, 1, -2.842170943040401e-14, 0)"/><path d="M 480.679993 493.76001 H 489.159992 V 494.90001 H 480.679993 V 493.76001 Z" class="cls-8" style="fill: rgb(241, 242, 242);" transform="matrix(1, 0, 0, 1, -2.842170943040401e-14, 0)"/><path d="M 475.470001 481.070007 H 494.370001 V 486.070007 H 475.470001 V 481.070007 Z" class="cls-11" style="fill: rgb(209, 211, 212);" transform="matrix(1, 0, 0, 1, -2.842170943040401e-14, 0)"/><path d="M 475.470001 481.070007 H 494.370001 V 482.720007 H 475.470001 V 481.070007 Z" class="cls-8" style="fill: rgb(241, 242, 242);" transform="matrix(1, 0, 0, 1, -2.842170943040401e-14, 0)"/><path d="M 471.179993 476.070007 H 498.659992 V 481.070007 H 471.179993 V 476.070007 Z" class="cls-11" style="fill: rgb(209, 211, 212);" transform="matrix(1, 0, 0, 1, -2.842170943040401e-14, 0)"/><path d="M 471.179993 476.070007 H 498.659992 V 477.720007 H 471.179993 V 476.070007 Z" class="cls-8" style="fill: rgb(241, 242, 242);" transform="matrix(1, 0, 0, 1, -2.842170943040401e-14, 0)"/><path d="M 499.930012 451.570007 A 15.98 15.98 0 0 1 483.950012 467.550007 A 15.98 15.98 0 0 1 467.970013 451.570007 A 15.98 15.98 0 0 1 483.950012 435.590008 A 15.98 15.98 0 0 1 499.930012 451.570007 Z" class="cls-12" style="fill: rgb(188, 190, 192);" transform="matrix(1, 0, 0, 1, -2.842170943040401e-14, 0)"/><path d="M 446.809987 451.570007 A 6.98 6.98 0 0 1 439.829987 458.550007 A 6.98 6.98 0 0 1 432.849987 451.570007 A 6.98 6.98 0 0 1 439.829987 444.590007 A 6.98 6.98 0 0 1 446.809987 451.570007 Z" class="cls-8" style="fill: rgb(241, 242, 242);" transform="matrix(1, 0, 0, 1, -2.842170943040401e-14, 0)"/><path d="M 455.020006 895.280029 H 539.920004 A 1.67 1.67 0 0 1 541.590004 896.950029 V 900.740029 A 1.67 1.67 0 0 1 539.920004 902.410029 H 455.020006 A 1.67 1.67 0 0 1 453.350006 900.740029 V 896.950029 A 1.67 1.67 0 0 1 455.020006 895.280029 Z" class="cls-20" style="fill: rgb(57, 57, 58);" transform="matrix(1, 0, 0, 1, -2.842170943040401e-14, 0)"/><path class="cls-20" d="M606.57,493.58h-19.1l-8.13,4.14a53.28,53.28,0,0,1-48.35,0l-8.13-4.14h-19.1a22.54,22.54,0,0,0-22.54,22.54v51h22.54V542a3.74,3.74,0,0,1,0-.45c.27-2.25,3.67-1.94,3.67.32V746.28h95.42V541.86c0-2.26,3.4-2.56,3.67-.32a3.74,3.74,0,0,1,0,.45v25.09h22.54v-51A22.54,22.54,0,0,0,606.57,493.58Z" style="fill: rgb(57, 57, 58);" transform="matrix(1, 0, 0, 1, -2.842170943040401e-14, 0)"/><path class="cls-21" d="M522.85,484v9.6l8.13,4.14a53.28,53.28,0,0,0,48.35,0l8.13-4.14V484Z" style="fill: rgb(249, 220, 166);" transform="matrix(1, 0, 0, 1, -2.842170943040401e-14, 0)"/><path d="M 522.8499755859375 483.9800109863281 L 522.8499755859375 490.0299987792969 L 587.469970703125 490.0299987792969 L 587.469970703125 483.989990234375 L 522.8499755859375 483.9800109863281 Z" class="cls-22" style="fill: rgb(225, 197, 154);" transform="matrix(1, 0, 0, 1, -2.842170943040401e-14, 0)"/><path class="cls-23" d="M579.34,546.14a53.28,53.28,0,0,1-48.35,0L522.85,542h-15.4V746.28h95.42V542h-15.4Z" style="fill: rgb(140, 115, 93);" transform="matrix(1, 0, 0, 1, -2.842170943040401e-14, 0)"/><path d="M 532.900024 579.5 H 577.670025 V 582.32 H 532.900024 V 579.5 Z" class="cls-24" style="fill: rgb(107, 86, 71);" transform="matrix(1, 0, 0, 1, -2.842170943040401e-14, 0)"/><path d="M 532.900024 582.320007 H 577.670025 V 616.340008 H 532.900024 V 582.320007 Z" class="cls-25" style="fill: rgb(119, 96, 79);" transform="matrix(1, 0, 0, 1, -2.842170943040401e-14, 0)"/><path class="cls-8" d="M515.62,557.76h-2.89a.9.9,0,0,1-.9-.9V493.17h4.7v63.69A.9.9,0,0,1,515.62,557.76Z" style="fill: rgb(241, 242, 242);" transform="matrix(1, 0, 0, 1, -2.842170943040401e-14, 0)"/><path class="cls-26" d="M513.48,556.82h-.72v-.72a.17.17,0,1,1,.33,0v.39h.39a.17.17,0,0,1,0,.33Z" style="fill: rgb(153, 153, 153);" transform="matrix(1, 0, 0, 1, -2.842170943040401e-14, 0)"/><path class="cls-26" d="M512.93,555.16a.17.17,0,0,1-.17-.17v-1.11a.17.17,0,1,1,.33,0V555A.17.17,0,0,1,512.93,555.16Zm0-2.22a.17.17,0,0,1-.17-.17v-1.11a.17.17,0,1,1,.33,0v1.11A.17.17,0,0,1,512.93,552.94Zm0-2.22a.17.17,0,0,1-.17-.17v-1.11a.17.17,0,1,1,.33,0v1.11A.17.17,0,0,1,512.93,550.72Zm0-2.22a.17.17,0,0,1-.17-.17v-1.11a.17.17,0,1,1,.33,0v1.11A.17.17,0,0,1,512.93,548.5Zm0-2.22a.17.17,0,0,1-.17-.17V545a.17.17,0,1,1,.33,0v1.11A.17.17,0,0,1,512.93,546.28Zm0-2.22a.17.17,0,0,1-.17-.17v-1.11a.17.17,0,1,1,.33,0v1.11A.17.17,0,0,1,512.93,544.06Zm0-2.22a.17.17,0,0,1-.17-.17v-1.11a.17.17,0,1,1,.33,0v1.11A.17.17,0,0,1,512.93,541.84Zm0-2.22a.17.17,0,0,1-.17-.17v-1.11a.17.17,0,1,1,.33,0v1.11A.17.17,0,0,1,512.93,539.62Zm0-2.22a.17.17,0,0,1-.17-.17v-1.11a.17.17,0,1,1,.33,0v1.11A.17.17,0,0,1,512.93,537.4Zm0-2.22a.17.17,0,0,1-.17-.17V533.9a.17.17,0,1,1,.33,0V535A.17.17,0,0,1,512.93,535.18Zm0-2.22a.17.17,0,0,1-.17-.17v-1.11a.17.17,0,1,1,.33,0v1.11A.17.17,0,0,1,512.93,533Zm0-2.22a.17.17,0,0,1-.17-.17v-1.11a.17.17,0,1,1,.33,0v1.11A.17.17,0,0,1,512.93,530.74Zm0-2.22a.17.17,0,0,1-.17-.17v-1.11a.17.17,0,1,1,.33,0v1.11A.17.17,0,0,1,512.93,528.51Zm0-2.22a.17.17,0,0,1-.17-.17V525a.17.17,0,1,1,.33,0v1.11A.17.17,0,0,1,512.93,526.3Zm0-2.22a.17.17,0,0,1-.17-.17V522.8a.17.17,0,1,1,.33,0v1.11A.17.17,0,0,1,512.93,524.07Zm0-2.22a.17.17,0,0,1-.17-.17v-1.11a.17.17,0,1,1,.33,0v1.11A.17.17,0,0,1,512.93,521.85Zm0-2.22a.17.17,0,0,1-.17-.17v-1.11a.17.17,0,1,1,.33,0v1.11A.17.17,0,0,1,512.93,519.63Zm0-2.22a.17.17,0,0,1-.17-.17v-1.11a.17.17,0,1,1,.33,0v1.11A.17.17,0,0,1,512.93,517.41Zm0-2.22a.17.17,0,0,1-.17-.17v-1.11a.17.17,0,1,1,.33,0V515A.17.17,0,0,1,512.93,515.19Zm0-2.22a.17.17,0,0,1-.17-.17V511.7a.17.17,0,1,1,.33,0v1.11A.17.17,0,0,1,512.93,513Zm0-2.22a.17.17,0,0,1-.17-.17v-1.11a.17.17,0,1,1,.33,0v1.11A.17.17,0,0,1,512.93,510.75Zm0-2.22a.17.17,0,0,1-.17-.17v-1.11a.17.17,0,1,1,.33,0v1.11A.17.17,0,0,1,512.93,508.53Zm0-2.22a.17.17,0,0,1-.17-.17V505a.17.17,0,1,1,.33,0v1.11A.17.17,0,0,1,512.93,506.31Zm0-2.22a.17.17,0,0,1-.17-.17v-1.11a.17.17,0,1,1,.33,0v1.11A.17.17,0,0,1,512.93,504.09Zm0-2.22a.17.17,0,0,1-.17-.17V500.6a.17.17,0,1,1,.33,0v1.11A.17.17,0,0,1,512.93,501.87Zm0-2.22a.17.17,0,0,1-.17-.17v-1.11a.17.17,0,1,1,.33,0v1.11A.17.17,0,0,1,512.93,499.65Zm0-2.22a.17.17,0,0,1-.17-.17v-1.11a.17.17,0,1,1,.33,0v1.11A.17.17,0,0,1,512.93,497.43Zm0-2.22a.17.17,0,0,1-.17-.17v-1.11a.17.17,0,1,1,.33,0V495A.17.17,0,0,1,512.93,495.21Z" style="fill: rgb(153, 153, 153);" transform="matrix(1, 0, 0, 1, -2.842170943040401e-14, 0)"/><path class="cls-26" d="M515.41,555.16a.17.17,0,0,1-.17-.17v-1.11a.17.17,0,1,1,.33,0V555A.17.17,0,0,1,515.41,555.16Zm0-2.22a.17.17,0,0,1-.17-.17v-1.11a.17.17,0,1,1,.33,0v1.11A.17.17,0,0,1,515.41,552.94Zm0-2.22a.17.17,0,0,1-.17-.17v-1.11a.17.17,0,1,1,.33,0v1.11A.17.17,0,0,1,515.41,550.72Zm0-2.22a.17.17,0,0,1-.17-.17v-1.11a.17.17,0,1,1,.33,0v1.11A.17.17,0,0,1,515.41,548.5Zm0-2.22a.17.17,0,0,1-.17-.17V545a.17.17,0,1,1,.33,0v1.11A.17.17,0,0,1,515.41,546.28Zm0-2.22a.17.17,0,0,1-.17-.17v-1.11a.17.17,0,1,1,.33,0v1.11A.17.17,0,0,1,515.41,544.06Zm0-2.22a.17.17,0,0,1-.17-.17v-1.11a.17.17,0,1,1,.33,0v1.11A.17.17,0,0,1,515.41,541.84Zm0-2.22a.17.17,0,0,1-.17-.17v-1.11a.17.17,0,1,1,.33,0v1.11A.17.17,0,0,1,515.41,539.62Zm0-2.22a.17.17,0,0,1-.17-.17v-1.11a.17.17,0,1,1,.33,0v1.11A.17.17,0,0,1,515.41,537.4Zm0-2.22a.17.17,0,0,1-.17-.17V533.9a.17.17,0,1,1,.33,0V535A.17.17,0,0,1,515.41,535.18Zm0-2.22a.17.17,0,0,1-.17-.17v-1.11a.17.17,0,1,1,.33,0v1.11A.17.17,0,0,1,515.41,533Zm0-2.22a.17.17,0,0,1-.17-.17v-1.11a.17.17,0,1,1,.33,0v1.11A.17.17,0,0,1,515.41,530.74Zm0-2.22a.17.17,0,0,1-.17-.17v-1.11a.17.17,0,1,1,.33,0v1.11A.17.17,0,0,1,515.41,528.51Zm0-2.22a.17.17,0,0,1-.17-.17V525a.17.17,0,1,1,.33,0v1.11A.17.17,0,0,1,515.41,526.3Zm0-2.22a.17.17,0,0,1-.17-.17V522.8a.17.17,0,1,1,.33,0v1.11A.17.17,0,0,1,515.41,524.07Zm0-2.22a.17.17,0,0,1-.17-.17v-1.11a.17.17,0,1,1,.33,0v1.11A.17.17,0,0,1,515.41,521.85Zm0-2.22a.17.17,0,0,1-.17-.17v-1.11a.17.17,0,1,1,.33,0v1.11A.17.17,0,0,1,515.41,519.63Zm0-2.22a.17.17,0,0,1-.17-.17v-1.11a.17.17,0,1,1,.33,0v1.11A.17.17,0,0,1,515.41,517.41Zm0-2.22a.17.17,0,0,1-.17-.17v-1.11a.17.17,0,1,1,.33,0V515A.17.17,0,0,1,515.41,515.19Zm0-2.22a.17.17,0,0,1-.17-.17V511.7a.17.17,0,1,1,.33,0v1.11A.17.17,0,0,1,515.41,513Zm0-2.22a.17.17,0,0,1-.17-.17v-1.11a.17.17,0,1,1,.33,0v1.11A.17.17,0,0,1,515.41,510.75Zm0-2.22a.17.17,0,0,1-.17-.17v-1.11a.17.17,0,1,1,.33,0v1.11A.17.17,0,0,1,515.41,508.53Zm0-2.22a.17.17,0,0,1-.17-.17V505a.17.17,0,1,1,.33,0v1.11A.17.17,0,0,1,515.41,506.31Zm0-2.22a.17.17,0,0,1-.17-.17v-1.11a.17.17,0,1,1,.33,0v1.11A.17.17,0,0,1,515.41,504.09Zm0-2.22a.17.17,0,0,1-.17-.17V500.6a.17.17,0,1,1,.33,0v1.11A.17.17,0,0,1,515.41,501.87Zm0-2.22a.17.17,0,0,1-.17-.17v-1.11a.17.17,0,1,1,.33,0v1.11A.17.17,0,0,1,515.41,499.65Zm0-2.22a.17.17,0,0,1-.17-.17v-1.11a.17.17,0,1,1,.33,0v1.11A.17.17,0,0,1,515.41,497.43Zm0-2.22a.17.17,0,0,1-.17-.17v-1.11a.17.17,0,1,1,.33,0V495A.17.17,0,0,1,515.41,495.21Z" style="fill: rgb(153, 153, 153);" transform="matrix(1, 0, 0, 1, -2.842170943040401e-14, 0)"/><path class="cls-26" d="M515.58,556.82h-.72a.17.17,0,0,1,0-.33h.39v-.39a.17.17,0,1,1,.33,0Z" style="fill: rgb(153, 153, 153);" transform="matrix(1, 0, 0, 1, -2.842170943040401e-14, 0)"/><path class="cls-8" d="M597.6,557.76h-2.89a.9.9,0,0,1-.9-.9V493.17h4.7v63.69A.9.9,0,0,1,597.6,557.76Z" style="fill: rgb(241, 242, 242);" transform="matrix(1, 0, 0, 1, -2.842170943040401e-14, 0)"/><path class="cls-26" d="M595.46,556.82h-.72v-.72a.17.17,0,1,1,.33,0v.39h.39a.17.17,0,0,1,0,.33Z" style="fill: rgb(153, 153, 153);" transform="matrix(1, 0, 0, 1, -2.842170943040401e-14, 0)"/><path class="cls-26" d="M594.91,555.16a.17.17,0,0,1-.17-.17v-1.11a.17.17,0,1,1,.33,0V555A.17.17,0,0,1,594.91,555.16Zm0-2.22a.17.17,0,0,1-.17-.17v-1.11a.17.17,0,1,1,.33,0v1.11A.17.17,0,0,1,594.91,552.94Zm0-2.22a.17.17,0,0,1-.17-.17v-1.11a.17.17,0,1,1,.33,0v1.11A.17.17,0,0,1,594.91,550.72Zm0-2.22a.17.17,0,0,1-.17-.17v-1.11a.17.17,0,1,1,.33,0v1.11A.17.17,0,0,1,594.91,548.5Zm0-2.22a.17.17,0,0,1-.17-.17V545a.17.17,0,1,1,.33,0v1.11A.17.17,0,0,1,594.91,546.28Zm0-2.22a.17.17,0,0,1-.17-.17v-1.11a.17.17,0,1,1,.33,0v1.11A.17.17,0,0,1,594.91,544.06Zm0-2.22a.17.17,0,0,1-.17-.17v-1.11a.17.17,0,1,1,.33,0v1.11A.17.17,0,0,1,594.91,541.84Zm0-2.22a.17.17,0,0,1-.17-.17v-1.11a.17.17,0,1,1,.33,0v1.11A.17.17,0,0,1,594.91,539.62Zm0-2.22a.17.17,0,0,1-.17-.17v-1.11a.17.17,0,1,1,.33,0v1.11A.17.17,0,0,1,594.91,537.4Zm0-2.22a.17.17,0,0,1-.17-.17V533.9a.17.17,0,1,1,.33,0V535A.17.17,0,0,1,594.91,535.18Zm0-2.22a.17.17,0,0,1-.17-.17v-1.11a.17.17,0,1,1,.33,0v1.11A.17.17,0,0,1,594.91,533Zm0-2.22a.17.17,0,0,1-.17-.17v-1.11a.17.17,0,1,1,.33,0v1.11A.17.17,0,0,1,594.91,530.74Zm0-2.22a.17.17,0,0,1-.17-.17v-1.11a.17.17,0,1,1,.33,0v1.11A.17.17,0,0,1,594.91,528.51Zm0-2.22a.17.17,0,0,1-.17-.17V525a.17.17,0,1,1,.33,0v1.11A.17.17,0,0,1,594.91,526.3Zm0-2.22a.17.17,0,0,1-.17-.17V522.8a.17.17,0,1,1,.33,0v1.11A.17.17,0,0,1,594.91,524.07Zm0-2.22a.17.17,0,0,1-.17-.17v-1.11a.17.17,0,1,1,.33,0v1.11A.17.17,0,0,1,594.91,521.85Zm0-2.22a.17.17,0,0,1-.17-.17v-1.11a.17.17,0,1,1,.33,0v1.11A.17.17,0,0,1,594.91,519.63Zm0-2.22a.17.17,0,0,1-.17-.17v-1.11a.17.17,0,1,1,.33,0v1.11A.17.17,0,0,1,594.91,517.41Zm0-2.22a.17.17,0,0,1-.17-.17v-1.11a.17.17,0,1,1,.33,0V515A.17.17,0,0,1,594.91,515.19Zm0-2.22a.17.17,0,0,1-.17-.17V511.7a.17.17,0,1,1,.33,0v1.11A.17.17,0,0,1,594.91,513Zm0-2.22a.17.17,0,0,1-.17-.17v-1.11a.17.17,0,1,1,.33,0v1.11A.17.17,0,0,1,594.91,510.75Zm0-2.22a.17.17,0,0,1-.17-.17v-1.11a.17.17,0,1,1,.33,0v1.11A.17.17,0,0,1,594.91,508.53Zm0-2.22a.17.17,0,0,1-.17-.17V505a.17.17,0,1,1,.33,0v1.11A.17.17,0,0,1,594.91,506.31Zm0-2.22a.17.17,0,0,1-.17-.17v-1.11a.17.17,0,1,1,.33,0v1.11A.17.17,0,0,1,594.91,504.09Zm0-2.22a.17.17,0,0,1-.17-.17V500.6a.17.17,0,1,1,.33,0v1.11A.17.17,0,0,1,594.91,501.87Zm0-2.22a.17.17,0,0,1-.17-.17v-1.11a.17.17,0,1,1,.33,0v1.11A.17.17,0,0,1,594.91,499.65Zm0-2.22a.17.17,0,0,1-.17-.17v-1.11a.17.17,0,1,1,.33,0v1.11A.17.17,0,0,1,594.91,497.43Zm0-2.22a.17.17,0,0,1-.17-.17v-1.11a.17.17,0,1,1,.33,0V495A.17.17,0,0,1,594.91,495.21Z" style="fill: rgb(153, 153, 153);" transform="matrix(1, 0, 0, 1, -2.842170943040401e-14, 0)"/><path class="cls-26" d="M597.4,555.16a.17.17,0,0,1-.17-.17v-1.11a.17.17,0,1,1,.33,0V555A.17.17,0,0,1,597.4,555.16Zm0-2.22a.17.17,0,0,1-.17-.17v-1.11a.17.17,0,1,1,.33,0v1.11A.17.17,0,0,1,597.4,552.94Zm0-2.22a.17.17,0,0,1-.17-.17v-1.11a.17.17,0,1,1,.33,0v1.11A.17.17,0,0,1,597.4,550.72Zm0-2.22a.17.17,0,0,1-.17-.17v-1.11a.17.17,0,1,1,.33,0v1.11A.17.17,0,0,1,597.4,548.5Zm0-2.22a.17.17,0,0,1-.17-.17V545a.17.17,0,1,1,.33,0v1.11A.17.17,0,0,1,597.4,546.28Zm0-2.22a.17.17,0,0,1-.17-.17v-1.11a.17.17,0,1,1,.33,0v1.11A.17.17,0,0,1,597.4,544.06Zm0-2.22a.17.17,0,0,1-.17-.17v-1.11a.17.17,0,1,1,.33,0v1.11A.17.17,0,0,1,597.4,541.84Zm0-2.22a.17.17,0,0,1-.17-.17v-1.11a.17.17,0,1,1,.33,0v1.11A.17.17,0,0,1,597.4,539.62Zm0-2.22a.17.17,0,0,1-.17-.17v-1.11a.17.17,0,1,1,.33,0v1.11A.17.17,0,0,1,597.4,537.4Zm0-2.22a.17.17,0,0,1-.17-.17V533.9a.17.17,0,1,1,.33,0V535A.17.17,0,0,1,597.4,535.18Zm0-2.22a.17.17,0,0,1-.17-.17v-1.11a.17.17,0,1,1,.33,0v1.11A.17.17,0,0,1,597.4,533Zm0-2.22a.17.17,0,0,1-.17-.17v-1.11a.17.17,0,1,1,.33,0v1.11A.17.17,0,0,1,597.4,530.74Zm0-2.22a.17.17,0,0,1-.17-.17v-1.11a.17.17,0,1,1,.33,0v1.11A.17.17,0,0,1,597.4,528.51Zm0-2.22a.17.17,0,0,1-.17-.17V525a.17.17,0,1,1,.33,0v1.11A.17.17,0,0,1,597.4,526.3Zm0-2.22a.17.17,0,0,1-.17-.17V522.8a.17.17,0,1,1,.33,0v1.11A.17.17,0,0,1,597.4,524.07Zm0-2.22a.17.17,0,0,1-.17-.17v-1.11a.17.17,0,1,1,.33,0v1.11A.17.17,0,0,1,597.4,521.85Zm0-2.22a.17.17,0,0,1-.17-.17v-1.11a.17.17,0,1,1,.33,0v1.11A.17.17,0,0,1,597.4,519.63Zm0-2.22a.17.17,0,0,1-.17-.17v-1.11a.17.17,0,1,1,.33,0v1.11A.17.17,0,0,1,597.4,517.41Zm0-2.22a.17.17,0,0,1-.17-.17v-1.11a.17.17,0,1,1,.33,0V515A.17.17,0,0,1,597.4,515.19Zm0-2.22a.17.17,0,0,1-.17-.17V511.7a.17.17,0,1,1,.33,0v1.11A.17.17,0,0,1,597.4,513Zm0-2.22a.17.17,0,0,1-.17-.17v-1.11a.17.17,0,1,1,.33,0v1.11A.17.17,0,0,1,597.4,510.75Zm0-2.22a.17.17,0,0,1-.17-.17v-1.11a.17.17,0,1,1,.33,0v1.11A.17.17,0,0,1,597.4,508.53Zm0-2.22a.17.17,0,0,1-.17-.17V505a.17.17,0,1,1,.33,0v1.11A.17.17,0,0,1,597.4,506.31Zm0-2.22a.17.17,0,0,1-.17-.17v-1.11a.17.17,0,1,1,.33,0v1.11A.17.17,0,0,1,597.4,504.09Zm0-2.22a.17.17,0,0,1-.17-.17V500.6a.17.17,0,1,1,.33,0v1.11A.17.17,0,0,1,597.4,501.87Zm0-2.22a.17.17,0,0,1-.17-.17v-1.11a.17.17,0,1,1,.33,0v1.11A.17.17,0,0,1,597.4,499.65Zm0-2.22a.17.17,0,0,1-.17-.17v-1.11a.17.17,0,1,1,.33,0v1.11A.17.17,0,0,1,597.4,497.43Zm0-2.22a.17.17,0,0,1-.17-.17v-1.11a.17.17,0,1,1,.33,0V495A.17.17,0,0,1,597.4,495.21Z" style="fill: rgb(153, 153, 153);" transform="matrix(1, 0, 0, 1, -2.842170943040401e-14, 0)"/><path class="cls-26" d="M597.57,556.82h-.72a.17.17,0,0,1,0-.33h.39v-.39a.17.17,0,1,1,.33,0Z" style="fill: rgb(153, 153, 153);" transform="matrix(1, 0, 0, 1, -2.842170943040401e-14, 0)"/><path class="cls-15" d="M514.17,545.47a3.46,3.46,0,1,0,3.46,3.46A3.46,3.46,0,0,0,514.17,545.47Zm0,6.29a2.83,2.83,0,1,1,2.83-2.83A2.83,2.83,0,0,1,514.17,551.76Z" style="fill: rgb(147, 149, 152);" transform="matrix(1, 0, 0, 1, -2.842170943040401e-14, 0)"/><path class="cls-14" d="M514.17,546.1a2.83,2.83,0,1,0,2.83,2.83A2.83,2.83,0,0,0,514.17,546.1Zm-.68,3.24a.41.41,0,1,1,.41-.41A.41.41,0,0,1,513.49,549.34Zm1.39,0a.41.41,0,1,1,.41-.41A.41.41,0,0,1,514.88,549.34Z" style="fill: rgb(128, 130, 133);" transform="matrix(1, 0, 0, 1, -2.842170943040401e-14, 0)"/><path class="cls-10" d="M514.17,546.1a2.83,2.83,0,0,0-2.83,2.83c0,.08,0,.16,0,.24a2.81,2.81,0,0,1,5.6,0c0-.08,0-.16,0-.24A2.83,2.83,0,0,0,514.17,546.1Z" style="fill: rgb(109, 110, 113);" transform="matrix(1, 0, 0, 1, -2.842170943040401e-14, 0)"/><path class="cls-27" d="M514.17,552.39a3.46,3.46,0,0,1-3.45-3.22c0,.08,0,.16,0,.24a3.47,3.47,0,1,0,6.93,0c0-.08,0-.16,0-.24A3.46,3.46,0,0,1,514.17,552.39Z" style="fill: rgb(80, 70, 70);" transform="matrix(1, 0, 0, 1, -2.842170943040401e-14, 0)"/><path class="cls-15" d="M596.16,545.47a3.46,3.46,0,1,0,3.46,3.46A3.46,3.46,0,0,0,596.16,545.47Zm0,6.29a2.83,2.83,0,1,1,2.83-2.83A2.83,2.83,0,0,1,596.16,551.76Z" style="fill: rgb(147, 149, 152);" transform="matrix(1, 0, 0, 1, -2.842170943040401e-14, 0)"/><path class="cls-14" d="M596.16,546.1a2.83,2.83,0,1,0,2.83,2.83A2.83,2.83,0,0,0,596.16,546.1Zm-.68,3.24a.41.41,0,1,1,.41-.41A.41.41,0,0,1,595.47,549.34Zm1.39,0a.41.41,0,1,1,.41-.41A.41.41,0,0,1,596.87,549.34Z" style="fill: rgb(128, 130, 133);" transform="matrix(1, 0, 0, 1, -2.842170943040401e-14, 0)"/><path class="cls-10" d="M596.16,546.1a2.83,2.83,0,0,0-2.83,2.83c0,.08,0,.16,0,.24a2.81,2.81,0,0,1,5.6,0c0-.08,0-.16,0-.24A2.83,2.83,0,0,0,596.16,546.1Z" style="fill: rgb(109, 110, 113);" transform="matrix(1, 0, 0, 1, -2.842170943040401e-14, 0)"/><path class="cls-27" d="M596.16,552.39a3.46,3.46,0,0,1-3.45-3.22c0,.08,0,.16,0,.24a3.47,3.47,0,1,0,6.93,0c0-.08,0-.16,0-.24A3.46,3.46,0,0,1,596.16,552.39Z" style="fill: rgb(80, 70, 70);" transform="matrix(1, 0, 0, 1, -2.842170943040401e-14, 0)"/><path class="cls-21" d="M503.75,567.09H481.21V623a12.64,12.64,0,0,0,8.53,11.95A10.44,10.44,0,0,0,496,635l7.78-2.22Z" style="fill: rgb(249, 220, 166);" transform="matrix(1, 0, 0, 1, -2.842170943040401e-14, 0)"/><path d="M 481.2099914550781 567.0900268554688 L 481.2099914550781 575.7100219726562 L 503.75 575.7100219726562 L 503.75 567.0999755859375 L 481.2099914550781 567.0900268554688 Z" class="cls-22" style="fill: rgb(225, 197, 154);" transform="matrix(1, 0, 0, 1, -2.842170943040401e-14, 0)"/><path class="cls-20" d="M550.18,356.37H449.74v45.8c0,31.94,23.93,57.83,53.45,57.83H607.75c29.52,0,53.45-25.89,53.45-57.83v-45.8h-111Z" style="fill: rgb(57, 57, 58);" transform="matrix(1, 0, 0, 1, -2.842170943040401e-14, 0)"/><path class="cls-28" d="M607.75,460H503.19c-29.52,0-53.45-25.89-53.45-57.83v24c0,31.94,23.93,57.83,53.45,57.83H607.75c29.52,0,53.45-25.89,53.45-57.83v-24C661.2,434.11,637.27,460,607.75,460Z" style="fill: rgb(48, 48, 48);" transform="matrix(1, 0, 0, 1, -2.842170943040401e-14, 0)"/><path class="cls-21" d="M531.87,194.53h46.8c45.58,0,82.53,36.35,82.53,81.19V353.2a81.21,81.21,0,0,1-14.13,45.86q-.89,1.31-1.83,2.58a28.15,28.15,0,0,1-2.25,2.68,28.78,28.78,0,0,1-5.33,4.39q-.73.47-1.48.89a30,30,0,0,1-3.1,1.51,30.63,30.63,0,0,1-5,1.59,31.15,31.15,0,0,1-7,.79h-13a7.24,7.24,0,0,1-2.19-.34,8,8,0,0,1-4.76-4.29,15.9,15.9,0,0,0-14.44-9.18H521a15.87,15.87,0,0,0-12,5.46q-.36.42-.7.86a15.92,15.92,0,0,0-1.72,2.86,8.47,8.47,0,0,1-1.57,2.29,7.44,7.44,0,0,1-5.38,2.34H489.33a31.22,31.22,0,0,1-3.32-.18l-.37,0q-1.49-.18-2.94-.5c-.66-.15-1.32-.31-2-.49a30.51,30.51,0,0,1-3.27-1.15,30,30,0,0,1-3.1-1.51q-.75-.42-1.48-.89a28.78,28.78,0,0,1-5.33-4.39,28.14,28.14,0,0,1-2.25-2.68q-.94-1.27-1.83-2.58c-9.36-13.74-8.26-3.5-13-32.55a81.92,81.92,0,0,1-1.08-13.31V275.71C449.34,230.88,486.29,194.53,531.87,194.53Z" style="fill: rgb(249, 220, 166);" transform="matrix(1, 0, 0, 1, -2.842170943040401e-14, 0)"/><path id="_Path_" data-name="&lt;Path&gt;" class="cls-19" d="M569.21,433.69h-28.1a14.37,14.37,0,0,1-14.37-14.37h56.83A14.37,14.37,0,0,1,569.21,433.69Z" style="fill: rgb(255, 255, 255);" transform="matrix(1, 0, 0, 1, -2.842170943040401e-14, 0)"/><path class="cls-22" d="M567.83,371.39a6.46,6.46,0,0,1-6.34,5.24H548.84a6.46,6.46,0,0,1-6.34-5.24h-2.43A7.63,7.63,0,0,0,547.7,379h14.93a7.63,7.63,0,0,0,7.63-7.63Z" style="fill: rgb(225, 197, 154);" transform="matrix(1, 0, 0, 1, -2.842170943040401e-14, 0)"/><path d="M 510.78999 352.070007 A 11.55 11.55 0 0 1 499.23999 363.620008 A 11.55 11.55 0 0 1 487.68999 352.070007 A 11.55 11.55 0 0 1 499.23999 340.520007 A 11.55 11.55 0 0 1 510.78999 352.070007 Z" id="_Path_2" data-name="&lt;Path&gt;" class="cls-20" style="fill: rgb(57, 57, 58);" transform="matrix(1, 0, 0, 1, -2.842170943040401e-14, 0)"/><path id="_Path_3" data-name="&lt;Path&gt;" class="cls-20" d="M516.85,316.49a27.63,27.63,0,0,0-35.57,0c-1.83,1.54-4.44,2-6.09.72h0c-1.63-1.31-1.25-4.48,1.19-6.54a35.24,35.24,0,0,1,45.37,0c2.44,2.06,2.83,5.23,1.19,6.54h0C521.3,318.53,518.69,318,516.85,316.49Z" style="fill: rgb(57, 57, 58);" transform="matrix(1, 0, 0, 1, -2.842170943040401e-14, 0)"/><path d="M 621.930005 352.070007 A 11.55 11.55 0 0 1 610.380005 363.620008 A 11.55 11.55 0 0 1 598.830005 352.070007 A 11.55 11.55 0 0 1 610.380005 340.520007 A 11.55 11.55 0 0 1 621.930005 352.070007 Z" id="_Path_4" data-name="&lt;Path&gt;" class="cls-20" style="fill: rgb(57, 57, 58);" transform="matrix(1, 0, 0, 1, -2.842170943040401e-14, 0)"/><path id="_Path_5" data-name="&lt;Path&gt;" class="cls-20" d="M628,316.49a27.63,27.63,0,0,0-35.57,0c-1.83,1.54-4.44,2-6.09.72h0c-1.63-1.31-1.25-4.48,1.19-6.54a35.24,35.24,0,0,1,45.37,0c2.44,2.06,2.83,5.23,1.19,6.54h0C632.43,318.53,629.82,318,628,316.49Z" style="fill: rgb(57, 57, 58);" transform="matrix(1, 0, 0, 1, -2.842170943040401e-14, 0)"/><path id="_Path_6" data-name="&lt;Path&gt;" class="cls-21" d="M449.74,342.5h0v51.26h0a17.18,17.18,0,0,1-17.18-17.18v-16.9A17.18,17.18,0,0,1,449.74,342.5Z" style="fill: rgb(249, 220, 166);" transform="matrix(1, 0, 0, 1, -2.842170943040401e-14, 0)"/><path id="_Path_8" data-name="&lt;Path&gt;" class="cls-22" d="M667.05,343.54a17.11,17.11,0,0,0-5.85-1v51.26a17.11,17.11,0,0,0,5.85-1Z" style="fill: rgb(225, 197, 154);" transform="matrix(1, 0, 0, 1, -2.842170943040401e-14, 0)"/><path id="_Path_9" data-name="&lt;Path&gt;" class="cls-22" d="M443.88,343.54a17.11,17.11,0,0,1,5.85-1v51.26a17.11,17.11,0,0,1-5.85-1Z" style="fill: rgb(225, 197, 154);" transform="matrix(1, 0, 0, 1, -2.842170943040401e-14, 0)"/><path class="cls-20" d="M455,251.2h-3.89a9.73,9.73,0,0,0-9.73,9.73V332.8a9.73,9.73,0,0,0,9.73,9.73h0a3.89,3.89,0,0,0,3.89-3.89Z" style="fill: rgb(57, 57, 58);" transform="matrix(1, 0, 0, 1, -2.842170943040401e-14, 0)"/><path class="cls-20" d="M656.58,251.2h3.89a9.73,9.73,0,0,1,9.73,9.73V332.8a9.73,9.73,0,0,1-9.73,9.73h0a3.89,3.89,0,0,1-3.89-3.89Z" style="fill: rgb(57, 57, 58);" transform="matrix(1, 0, 0, 1, -2.842170943040401e-14, 0)"/><path class="cls-22" d="M656.58,254.81a51.6,51.6,0,0,1-7.92.61H455v12.65H648.66a51.67,51.67,0,0,0,7.92-.61Z" style="fill: rgb(225, 197, 154);" transform="matrix(1, 0, 0, 1, -2.842170943040401e-14, 0)"/><path class="cls-28" d="M660.47,251.2h-3.89v15.89a63,63,0,0,0,13.63-3.27v-2.89A9.73,9.73,0,0,0,660.47,251.2Z" style="fill: rgb(48, 48, 48);" transform="matrix(1, 0, 0, 1, -2.842170943040401e-14, 0)"/><path class="cls-28" d="M455,267.59V251.2h-3.89a9.73,9.73,0,0,0-9.73,9.73v6.65Z" style="fill: rgb(48, 48, 48);" transform="matrix(1, 0, 0, 1, -2.842170943040401e-14, 0)"/><path class="cls-28" d="M660.87,338.24H642.78a35.4,35.4,0,0,0-65.16,0h-45.8a35.4,35.4,0,0,0-65.16,0h-16.6a4.26,4.26,0,0,0,0,8.52h14.18a35.4,35.4,0,1,0,70,0h41a35.4,35.4,0,1,0,70,0h15.67a4.26,4.26,0,1,0,0-8.52ZM499.24,381.57a29.5,29.5,0,1,1,29.5-29.5A29.53,29.53,0,0,1,499.24,381.57Zm111,0a29.5,29.5,0,1,1,29.5-29.5A29.53,29.53,0,0,1,610.2,381.57Z" style="fill: rgb(48, 48, 48);" transform="matrix(1, 0, 0, 1, -2.842170943040401e-14, 0)"/><path d="M 541.9199829101562 855.4500122070312 L 507.45001220703125 855.4500122070312 L 507.45001220703125 746.280029296875 L 547.0900268554688 746.280029296875 L 541.9199829101562 855.4500122070312 Z" class="cls-20" style="fill: rgb(57, 57, 58);" transform="matrix(1, 0, 0, 1, -2.842170943040401e-14, 0)"/><path class="cls-23" d="M454.93,895.28H540V867.41H507.45a197.15,197.15,0,0,0-45.62,10,8.56,8.56,0,0,0-6.9,8.59Z" style="fill: rgb(140, 115, 93);" transform="matrix(1, 0, 0, 1, -2.842170943040401e-14, 0)"/><path class="cls-25" d="M540,891.73H454.93v3.55H540Z" style="fill: rgb(119, 96, 79);" transform="matrix(1, 0, 0, 1, -2.842170943040401e-14, 0)"/><path d="M 507.450012 855.450012 H 540.000011 V 867.410012 H 507.450012 V 855.450012 Z" class="cls-21" style="fill: rgb(249, 220, 166);" transform="matrix(1, 0, 0, 1, -2.842170943040401e-14, 0)"/><path d="M 507.450012 855.450012 H 540.000011 V 860.660012 H 507.450012 V 855.450012 Z" class="cls-22" style="fill: rgb(225, 197, 154);" transform="matrix(1, 0, 0, 1, -2.842170943040401e-14, 0)"/><path class="cls-25" d="M494.59,876.71a1.67,1.67,0,0,0,2,1.32l3.72-.72a1.67,1.67,0,0,0,1.32-2l-1.36-7.1q-3.56.48-7,1.08Z" style="fill: rgb(119, 96, 79);" transform="matrix(1, 0, 0, 1, -2.842170943040401e-14, 0)"/><path class="cls-25" d="M480.22,879a1.67,1.67,0,0,0,2,1.32l3.72-.72a1.67,1.67,0,0,0,1.32-2l-1.33-6.92c-2.34.49-4.66,1-7,1.57Z" style="fill: rgb(119, 96, 79);" transform="matrix(1, 0, 0, 1, -2.842170943040401e-14, 0)"/><path class="cls-25" d="M466.84,881.27a1.67,1.67,0,0,0,2,1.32l3.72-.72a1.67,1.67,0,0,0,1.32-2l-1.15-6c-2.31.65-4.59,1.36-6.85,2.1Z" style="fill: rgb(119, 96, 79);" transform="matrix(1, 0, 0, 1, -2.842170943040401e-14, 0)"/><path d="M 570.40999 895.280029 H 655.309988 A 1.67 1.67 0 0 1 656.979988 896.950029 V 900.740029 A 1.67 1.67 0 0 1 655.309988 902.410029 H 570.40999 A 1.67 1.67 0 0 1 568.73999 900.740029 V 896.950029 A 1.67 1.67 0 0 1 570.40999 895.280029 Z" class="cls-20" style="fill: rgb(57, 57, 58);" transform="matrix(1, 0, 0, 1, -2.842170943040401e-14, 0)"/><path d="M 568.4000244140625 855.4500122070312 L 602.8699951171875 855.4500122070312 L 602.8699951171875 746.280029296875 L 563.239990234375 746.280029296875 L 568.4000244140625 855.4500122070312 Z" class="cls-20" style="fill: rgb(57, 57, 58);" transform="matrix(1, 0, 0, 1, -2.842170943040401e-14, 0)"/><path class="cls-23" d="M655.4,895.28H570.32V867.41h32.55a197.15,197.15,0,0,1,45.62,10,8.56,8.56,0,0,1,6.9,8.59Z" style="fill: rgb(140, 115, 93);" transform="matrix(1, 0, 0, 1, -2.842170943040401e-14, 0)"/><path class="cls-25" d="M570.32,891.73H655.4v3.55H570.32Z" style="fill: rgb(119, 96, 79);" transform="matrix(1, 0, 0, 1, -2.842170943040401e-14, 0)"/><path d="M 570.320007 855.450012 H 602.870007 V 867.410012 H 570.320007 V 855.450012 Z" class="cls-21" style="fill: rgb(249, 220, 166);" transform="matrix(1, 0, 0, 1, -2.842170943040401e-14, 0)"/><path d="M 570.320007 855.450012 H 602.870007 V 860.660012 H 570.320007 V 855.450012 Z" class="cls-22" style="fill: rgb(225, 197, 154);" transform="matrix(1, 0, 0, 1, -2.842170943040401e-14, 0)"/><path class="cls-25" d="M615.74,876.71a1.67,1.67,0,0,1-2,1.32l-3.72-.72a1.67,1.67,0,0,1-1.32-2l1.36-7.1q3.56.48,7,1.08Z" style="fill: rgb(119, 96, 79);" transform="matrix(1, 0, 0, 1, -2.842170943040401e-14, 0)"/><path class="cls-25" d="M630.11,879a1.67,1.67,0,0,1-2,1.32l-3.72-.72a1.67,1.67,0,0,1-1.32-2l1.33-6.92c2.34.49,4.66,1,7,1.57Z" style="fill: rgb(119, 96, 79);" transform="matrix(1, 0, 0, 1, -2.842170943040401e-14, 0)"/><path class="cls-25" d="M643.49,881.27a1.67,1.67,0,0,1-2,1.32l-3.72-.72a1.67,1.67,0,0,1-1.32-2l1.15-6c2.31.65,4.59,1.36,6.85,2.1Z" style="fill: rgb(119, 96, 79);" transform="matrix(1, 0, 0, 1, -2.842170943040401e-14, 0)"/><path d="M 503.75 607.3800048828125 L 483.95001220703125 612.3599853515625 L 503.75 602.52001953125 L 503.75 607.3800048828125 Z" class="cls-29" style="fill: rgb(237, 206, 157);" transform="matrix(1, 0, 0, 1, -2.842170943040401e-14, 0)"/><path class="cls-21" d="M584.47,587.07l-103.26,26V623a12.64,12.64,0,0,0,8.53,11.95A10.44,10.44,0,0,0,496,635l87.9-25a42,42,0,0,1,11.5-1.61h11.2V585.8H594.72A42,42,0,0,0,584.47,587.07Z" style="fill: rgb(249, 220, 166);" transform="matrix(1, 0, 0, 1, -2.842170943040401e-14, 0)"/><path d="M 600.929993 585.799988 H 606.569993 V 608.339989 H 600.929993 V 585.799988 Z" class="cls-22" style="fill: rgb(225, 197, 154);" transform="matrix(1, 0, 0, 1, -2.842170943040401e-14, 0)"/><path class="cls-21" d="M606.57,567.09h22.54V623a12.64,12.64,0,0,1-8.53,11.95,10.44,10.44,0,0,1-6.23.07l-7.78-2.22Z" style="fill: rgb(249, 220, 166);" transform="matrix(1, 0, 0, 1, -2.842170943040401e-14, 0)"/><path d="M 629.1199951171875 567.0900268554688 L 629.1199951171875 575.7100219726562 L 606.5800170898438 575.7100219726562 L 606.5800170898438 567.0999755859375 L 629.1199951171875 567.0900268554688 Z" class="cls-22" style="fill: rgb(225, 197, 154);" transform="matrix(1, 0, 0, 1, -2.842170943040401e-14, 0)"/><path d="M 606.5800170898438 606.8400268554688 L 626.3800048828125 612.2999877929688 L 606.5800170898438 601.97998046875 L 606.5800170898438 606.8400268554688 Z" class="cls-29" style="fill: rgb(237, 206, 157);" transform="matrix(1, 0, 0, 1, -2.842170943040401e-14, 0)"/><path class="cls-21" d="M525.86,584.56l103.26,28.49V623a12.64,12.64,0,0,1-8.53,11.95,10.44,10.44,0,0,1-6.23.07l-87.9-27.55a42,42,0,0,0-11.5-1.61h-11.2V583.29h11.86A42,42,0,0,1,525.86,584.56Z" style="fill: rgb(249, 220, 166);" transform="matrix(1, 0, 0, 1, -2.842170943040401e-14, 0)"/><path d="M 503.75 583.289978 H 509.39 V 605.829979 H 503.75 V 583.289978 Z" class="cls-22" style="fill: rgb(225, 197, 154);" transform="matrix(1, 0, 0, 1, -2.842170943040401e-14, 0)"/><path d="M 600.9299926757812 605.280029296875 L 600.9299926757812 601.1300048828125 L 566.4299926757812 591.6099853515625 L 558.5700073242188 593.5900268554688 L 600.9299926757812 605.280029296875 Z" class="cls-29" style="fill: rgb(237, 206, 157);" transform="matrix(1, 0, 0, 1, -2.842170943040401e-14, 0)"/><path class="cls-29" d="M505.78,607.38A42,42,0,0,1,516,608.65l36.78,10.15,5.17-1.47-31.53-9.88a42,42,0,0,0-11.5-1.61h-5.06l-6.13,1.54Z" style="fill: rgb(237, 206, 157);" transform="matrix(1, 0, 0, 1, -2.842170943040401e-14, 0)"/><path class="cls-28" d="M693.35,179.15,671.23,214a25.42,25.42,0,0,1-22.71,14H482.82a31.7,31.7,0,0,0-31.39,27.38H648.66A51.34,51.34,0,0,0,700,204.08h0a51.34,51.34,0,0,0-5.36-22.85Z" style="fill: rgb(48, 48, 48);" transform="matrix(1, 0, 0, 1, -2.842170943040401e-14, 0)"/><path class="cls-20" d="M482.82,192H620.94a25.42,25.42,0,0,0,22.71-14l24.85-39.2,26.14,42.41A51.34,51.34,0,0,1,700,204.08h0a51.34,51.34,0,0,1-51.34,51.34H451.13v-31.7A31.7,31.7,0,0,1,482.82,192Z" style="fill: rgb(57, 57, 58);" transform="matrix(1, 0, 0, 1, -2.842170943040401e-14, 0)"/></svg>