<?xml version="1.0" encoding="utf-8"?>
<svg id="master-artboard" viewBox="0 0 1096 780" version="1.1" xmlns="http://www.w3.org/2000/svg" x="0px" y="0px" style="enable-background:new 0 0 1096 780;" width="1096px" height="780px">

<path d="M 304.899994 695.400024 A 97.5 30.4 0 0 1 207.399994 725.800024 A 97.5 30.4 0 0 1 109.899994 695.400024 A 97.5 30.4 0 0 1 207.399994 665.000025 A 97.5 30.4 0 0 1 304.899994 695.400024 Z" class="st1" style="fill: rgb(176, 122, 43);" transform="matrix(2.7434599399566655, 0, 0, 2.7434599399566655, -41.78004555291591, -1362.3496222744352)"/><path class="st2" d="M275.9,615.6c-2,11.1-4.6,22.8-7.6,33.7c-0.2,0.6-0.3,1.2-0.5,1.8c-0.2,0.8-0.5,1.7-0.7,2.5&#10;&#9;&#9;&#9;c0,0.1-0.1,0.2-0.1,0.4c10.2-0.6,24.2-5,28.4-23.9C300.8,605.8,286.9,607.2,275.9,615.6z" style="fill: none;" transform="matrix(2.7434599399566655, 0, 0, 2.7434599399566655, -41.78004555291591, -1362.3496222744352)"/><path class="st5" d="M242,695.4c-0.5,0.2-1.1,0.3-1.7,0.5C240.9,695.7,241.5,695.6,242,695.4z" style="fill: rgb(142, 80, 36);" transform="matrix(2.7434599399566655, 0, 0, 2.7434599399566655, -41.78004555291591, -1362.3496222744352)"/><path class="st5" d="M243.6,694.9c-0.5,0.2-1,0.3-1.5,0.5C242.6,695.2,243.1,695,243.6,694.9z" style="fill: rgb(142, 80, 36);" transform="matrix(2.7434599399566655, 0, 0, 2.7434599399566655, -41.78004555291591, -1362.3496222744352)"/><path class="st5" d="M240,696c-0.6,0.1-1.1,0.3-1.7,0.4C238.8,696.2,239.4,696.1,240,696z" style="fill: rgb(142, 80, 36);" transform="matrix(2.7434599399566655, 0, 0, 2.7434599399566655, -41.78004555291591, -1362.3496222744352)"/><path class="st5" d="M247,693.5c-0.4,0.2-0.9,0.4-1.4,0.6C246.1,693.9,246.6,693.7,247,693.5c5-2.5,9.8-10.9,14.2-22.2h0&#10;&#9;&#9;&#9;C256.8,682.6,252,691,247,693.5z" style="fill: rgb(142, 80, 36);" transform="matrix(2.7434599399566655, 0, 0, 2.7434599399566655, -41.78004555291591, -1362.3496222744352)"/><path class="st5" d="M245.4,694.2c-0.5,0.2-1,0.4-1.4,0.6C244.4,694.6,244.9,694.4,245.4,694.2z" style="fill: rgb(142, 80, 36);" transform="matrix(2.7434599399566655, 0, 0, 2.7434599399566655, -41.78004555291591, -1362.3496222744352)"/><path class="st5" d="M280.4,582.1c0,0.1,0,0.1,0,0.2C280.4,582.3,280.4,582.2,280.4,582.1z" style="fill: rgb(142, 80, 36);" transform="matrix(2.7434599399566655, 0, 0, 2.7434599399566655, -41.78004555291591, -1362.3496222744352)"/><path class="st5" d="M234.1,629.4c-5.2-18.6-27.7-28.5-47-33.6c-1-0.1-2-0.2-2.9-0.3c-0.1,0-0.2,0-0.3,0c-0.7-0.1-1.4-0.2-2.1-0.2&#10;&#9;&#9;&#9;c-0.1,0-0.1,0-0.2,0c-29.4-3.4-54.5-12.3-54.5-22.4c0,0,1.5,85.5,39.5,117.2c4.4,3.7,21.9,7.1,40,8.1c-12.1-0.6-23.9-2.4-31.7-4.6&#10;&#9;&#9;&#9;C201.6,694.7,243,661.2,234.1,629.4z M135.5,597.2c7.3,38,26.6,79.3,26.6,79.3C132.2,639.8,135.5,597.2,135.5,597.2z" style="fill: rgb(142, 80, 36);" transform="matrix(2.7434599399566655, 0, 0, 2.7434599399566655, -41.78004555291591, -1362.3496222744352)"/><path class="st5" d="M267,654L267,654c0-0.1,0.1-0.2,0.1-0.4C267,653.7,267,653.9,267,654z" style="fill: rgb(142, 80, 36);" transform="matrix(2.7434599399566655, 0, 0, 2.7434599399566655, -41.78004555291591, -1362.3496222744352)"/><path class="st5" d="M267.8,651.1c0.2-0.6,0.3-1.2,0.5-1.8C268.1,649.9,267.9,650.5,267.8,651.1z" style="fill: rgb(142, 80, 36);" transform="matrix(2.7434599399566655, 0, 0, 2.7434599399566655, -41.78004555291591, -1362.3496222744352)"/><path class="st5" d="M238,696.4c-0.6,0.1-1.1,0.2-1.7,0.3C236.8,696.7,237.4,696.5,238,696.4z" style="fill: rgb(142, 80, 36);" transform="matrix(2.7434599399566655, 0, 0, 2.7434599399566655, -41.78004555291591, -1362.3496222744352)"/><path class="st5" d="M236,696.8c-0.6,0.1-1.3,0.2-1.9,0.3C234.7,697,235.4,696.9,236,696.8z" style="fill: rgb(142, 80, 36);" transform="matrix(2.7434599399566655, 0, 0, 2.7434599399566655, -41.78004555291591, -1362.3496222744352)"/><path class="st5" d="M221.9,698.3c-0.8,0-1.5,0.1-2.3,0.1C220.4,698.3,221.2,698.3,221.9,698.3z" style="fill: rgb(142, 80, 36);" transform="matrix(2.7434599399566655, 0, 0, 2.7434599399566655, -41.78004555291591, -1362.3496222744352)"/><path class="st5" d="M226.7,698c-0.7,0.1-1.5,0.1-2.2,0.2C225.3,698.1,226,698,226.7,698z" style="fill: rgb(142, 80, 36);" transform="matrix(2.7434599399566655, 0, 0, 2.7434599399566655, -41.78004555291591, -1362.3496222744352)"/><path class="st5" d="M214.3,698.4c-0.8,0-1.7,0-2.5,0C212.6,698.3,213.5,698.4,214.3,698.4z" style="fill: rgb(142, 80, 36);" transform="matrix(2.7434599399566655, 0, 0, 2.7434599399566655, -41.78004555291591, -1362.3496222744352)"/><path class="st5" d="M211.8,698.3c-1.7,0-3.4-0.1-5.2-0.2C208.3,698.2,210.1,698.3,211.8,698.3z" style="fill: rgb(142, 80, 36);" transform="matrix(2.7434599399566655, 0, 0, 2.7434599399566655, -41.78004555291591, -1362.3496222744352)"/><path class="st5" d="M224.5,698.1c-0.8,0-1.5,0.1-2.3,0.1C223,698.2,223.8,698.2,224.5,698.1z" style="fill: rgb(142, 80, 36);" transform="matrix(2.7434599399566655, 0, 0, 2.7434599399566655, -41.78004555291591, -1362.3496222744352)"/><path class="st5" d="M214.5,698.4c1.6,0,3.2,0,4.8,0C217.7,698.4,216.1,698.4,214.5,698.4z" style="fill: rgb(142, 80, 36);" transform="matrix(2.7434599399566655, 0, 0, 2.7434599399566655, -41.78004555291591, -1362.3496222744352)"/><path class="st5" d="M231.5,697.5c-0.6,0.1-1.3,0.2-1.9,0.2C230.2,697.7,230.8,697.6,231.5,697.5z" style="fill: rgb(142, 80, 36);" transform="matrix(2.7434599399566655, 0, 0, 2.7434599399566655, -41.78004555291591, -1362.3496222744352)"/><path class="st5" d="M233.7,697.2c-0.6,0.1-1.3,0.2-2,0.3C232.4,697.4,233,697.3,233.7,697.2z" style="fill: rgb(142, 80, 36);" transform="matrix(2.7434599399566655, 0, 0, 2.7434599399566655, -41.78004555291591, -1362.3496222744352)"/><path class="st5" d="M229.2,697.8c-0.7,0.1-1.4,0.1-2.1,0.2C227.8,697.9,228.5,697.8,229.2,697.8z" style="fill: rgb(142, 80, 36);" transform="matrix(2.7434599399566655, 0, 0, 2.7434599399566655, -41.78004555291591, -1362.3496222744352)"/><path class="st6" d="M272.3,560.2c0.4,0.2,0.9,0.5,1.3,0.7C273.1,560.7,272.7,560.4,272.3,560.2z" style="fill: rgb(194, 129, 77);" transform="matrix(2.7434599399566655, 0, 0, 2.7434599399566655, -41.78004555291591, -1362.3496222744352)"/><path class="st6" d="M270.9,559.5c0.4,0.2,0.9,0.4,1.3,0.7C271.8,559.9,271.3,559.7,270.9,559.5z" style="fill: rgb(194, 129, 77);" transform="matrix(2.7434599399566655, 0, 0, 2.7434599399566655, -41.78004555291591, -1362.3496222744352)"/><path class="st6" d="M267.5,558c0.5,0.2,1.1,0.4,1.6,0.7C268.5,558.4,268,558.2,267.5,558z" style="fill: rgb(194, 129, 77);" transform="matrix(2.7434599399566655, 0, 0, 2.7434599399566655, -41.78004555291591, -1362.3496222744352)"/><path class="st6" d="M259.5,555.2c0.7,0.2,1.3,0.4,2,0.6C260.9,555.6,260.2,555.4,259.5,555.2z" style="fill: rgb(194, 129, 77);" transform="matrix(2.7434599399566655, 0, 0, 2.7434599399566655, -41.78004555291591, -1362.3496222744352)"/><path class="st6" d="M261.7,555.9c0.6,0.2,1.2,0.4,1.7,0.6C262.8,556.3,262.3,556.1,261.7,555.9z" style="fill: rgb(194, 129, 77);" transform="matrix(2.7434599399566655, 0, 0, 2.7434599399566655, -41.78004555291591, -1362.3496222744352)"/><path class="st6" d="M265.6,557.2c0.5,0.2,1,0.4,1.5,0.6C266.6,557.6,266.1,557.4,265.6,557.2z" style="fill: rgb(194, 129, 77);" transform="matrix(2.7434599399566655, 0, 0, 2.7434599399566655, -41.78004555291591, -1362.3496222744352)"/><path class="st6" d="M269.1,558.6c0.5,0.2,1,0.4,1.4,0.7C270,559.1,269.6,558.9,269.1,558.6z" style="fill: rgb(194, 129, 77);" transform="matrix(2.7434599399566655, 0, 0, 2.7434599399566655, -41.78004555291591, -1362.3496222744352)"/><path class="st6" d="M277.3,563.7c0.3,0.3,0.6,0.5,0.8,0.8C277.8,564.2,277.6,563.9,277.3,563.7z" style="fill: rgb(194, 129, 77);" transform="matrix(2.7434599399566655, 0, 0, 2.7434599399566655, -41.78004555291591, -1362.3496222744352)"/><path class="st6" d="M279.6,566.6c0.1,0.2,0.2,0.5,0.3,0.8C279.9,567.1,279.7,566.9,279.6,566.6z" style="fill: rgb(194, 129, 77);" transform="matrix(2.7434599399566655, 0, 0, 2.7434599399566655, -41.78004555291591, -1362.3496222744352)"/><path class="st6" d="M280.4,569.8c0,0.3,0,0.7,0,1C280.4,570.5,280.4,570.1,280.4,569.8z" style="fill: rgb(194, 129, 77);" transform="matrix(2.7434599399566655, 0, 0, 2.7434599399566655, -41.78004555291591, -1362.3496222744352)"/><path class="st6" d="M279,565.6c0.2,0.3,0.4,0.6,0.5,0.9C279.4,566.2,279.2,565.9,279,565.6z" style="fill: rgb(194, 129, 77);" transform="matrix(2.7434599399566655, 0, 0, 2.7434599399566655, -41.78004555291591, -1362.3496222744352)"/><path class="st6" d="M280,567.6c0.1,0.3,0.2,0.6,0.3,0.9C280.2,568.3,280.2,567.9,280,567.6z" style="fill: rgb(194, 129, 77);" transform="matrix(2.7434599399566655, 0, 0, 2.7434599399566655, -41.78004555291591, -1362.3496222744352)"/><path class="st6" d="M280.3,568.7c0.1,0.3,0.1,0.6,0.1,0.9C280.4,569.3,280.4,569,280.3,568.7z" style="fill: rgb(194, 129, 77);" transform="matrix(2.7434599399566655, 0, 0, 2.7434599399566655, -41.78004555291591, -1362.3496222744352)"/><path class="st6" d="M278.3,564.7c0.2,0.2,0.4,0.5,0.6,0.7C278.6,565.1,278.5,564.9,278.3,564.7z" style="fill: rgb(194, 129, 77);" transform="matrix(2.7434599399566655, 0, 0, 2.7434599399566655, -41.78004555291591, -1362.3496222744352)"/><path class="st6" d="M275,561.9c0.4,0.3,0.7,0.5,1,0.8C275.7,562.4,275.4,562.1,275,561.9z" style="fill: rgb(194, 129, 77);" transform="matrix(2.7434599399566655, 0, 0, 2.7434599399566655, -41.78004555291591, -1362.3496222744352)"/><path class="st6" d="M276.3,562.8c0.3,0.2,0.5,0.4,0.8,0.7C276.8,563.3,276.6,563,276.3,562.8z" style="fill: rgb(194, 129, 77);" transform="matrix(2.7434599399566655, 0, 0, 2.7434599399566655, -41.78004555291591, -1362.3496222744352)"/><path class="st6" d="M273.8,561.1c0.3,0.2,0.7,0.4,1,0.6C274.5,561.5,274.2,561.3,273.8,561.1z" style="fill: rgb(194, 129, 77);" transform="matrix(2.7434599399566655, 0, 0, 2.7434599399566655, -41.78004555291591, -1362.3496222744352)"/><path class="st6" d="M263.7,556.5c0.6,0.2,1.2,0.4,1.8,0.6C264.9,557,264.3,556.8,263.7,556.5z" style="fill: rgb(194, 129, 77);" transform="matrix(2.7434599399566655, 0, 0, 2.7434599399566655, -41.78004555291591, -1362.3496222744352)"/><path class="st6" d="M257.4,554.7c0.7,0.2,1.3,0.4,2,0.6C258.8,555,258.1,554.8,257.4,554.7z" style="fill: rgb(194, 129, 77);" transform="matrix(2.7434599399566655, 0, 0, 2.7434599399566655, -41.78004555291591, -1362.3496222744352)"/><path class="st6" d="M184.1,595.5c1,0.1,2,0.2,2.9,0.3c0.6,0.1,1.2,0.1,1.8,0.2C187.3,595.9,185.7,595.7,184.1,595.5z" style="fill: rgb(194, 129, 77);" transform="matrix(2.7434599399566655, 0, 0, 2.7434599399566655, -41.78004555291591, -1362.3496222744352)"/><path class="st6" d="M183.9,595.5c-0.7-0.1-1.4-0.2-2.1-0.2C182.5,595.4,183.2,595.4,183.9,595.5z" style="fill: rgb(194, 129, 77);" transform="matrix(2.7434599399566655, 0, 0, 2.7434599399566655, -41.78004555291591, -1362.3496222744352)"/><path class="st6" d="M181.5,595.3c-14.3-1.7-27.7-4.6-37.5-8.4c0.7,0.1,1.4,0.2,2.2,0.3c9.8,1.7,21.6,2,33.7,1.2&#10;&#9;&#9;&#9;c-0.2,0-0.4,0-0.5-0.1c-0.4,0-0.8-0.1-1.2-0.1c-0.8-0.1-1.6-0.2-2.4-0.3c-0.3,0-0.7-0.1-1-0.1c-1.1-0.1-2.2-0.3-3.2-0.4&#10;&#9;&#9;&#9;c0,0-0.1,0-0.1,0l0,0c-21-3.1-35.3-9.2-35.3-16.2c0-6.3,11.6-11.9,29.4-15.2l0,0c0,0,0,0,0,0c1.3-0.2,2.6-0.5,4-0.7&#10;&#9;&#9;&#9;c0.2,0,0.3-0.1,0.5-0.1c2.7-0.4,5.4-0.8,8.3-1.1c0.2,0,0.5-0.1,0.7-0.1c1.4-0.1,2.8-0.3,4.2-0.4c0,0,0.1,0,0.1,0&#10;&#9;&#9;&#9;c1.4-0.1,2.9-0.2,4.4-0.3c0.3,0,0.6,0,1-0.1c1.4-0.1,2.9-0.2,4.3-0.2c0.1,0,0.1,0,0.2,0c1.5-0.1,3-0.1,4.5-0.1c0.4,0,0.8,0,1.2,0&#10;&#9;&#9;&#9;c1.5,0,3,0,4.6,0c0,0,0.1,0,0.1,0c15,0,28.8,1.3,40,3.6c-4.2-3-10-5.3-16.3-7.3c10,1.2,20.8,3,30.2,5.5c-17.9-4.8-41.5-7-53.3-7.4&#10;&#9;&#9;&#9;c-66.6-2.2-77,11.8-77,25.7C127.1,582.9,152.2,591.9,181.5,595.3z" style="fill: rgb(194, 129, 77);" transform="matrix(2.7434599399566655, 0, 0, 2.7434599399566655, -41.78004555291591, -1362.3496222744352)"/><path class="st6" d="M198.6,596.6c-0.8,0-1.5-0.1-2.3-0.1C197,596.5,197.8,596.5,198.6,596.6z" style="fill: rgb(194, 129, 77);" transform="matrix(2.7434599399566655, 0, 0, 2.7434599399566655, -41.78004555291591, -1362.3496222744352)"/><path class="st6" d="M200.8,596.6c-0.6,0-1.1,0-1.7-0.1C199.7,596.6,200.3,596.6,200.8,596.6z" style="fill: rgb(194, 129, 77);" transform="matrix(2.7434599399566655, 0, 0, 2.7434599399566655, -41.78004555291591, -1362.3496222744352)"/><path class="st6" d="M203.2,596.7c-0.5,0-1.1,0-1.6,0C202.1,596.7,202.7,596.7,203.2,596.7z" style="fill: rgb(194, 129, 77);" transform="matrix(2.7434599399566655, 0, 0, 2.7434599399566655, -41.78004555291591, -1362.3496222744352)"/><path class="st6" d="M196.1,596.5c-0.7,0-1.4-0.1-2.1-0.1C194.7,596.4,195.4,596.4,196.1,596.5z" style="fill: rgb(194, 129, 77);" transform="matrix(2.7434599399566655, 0, 0, 2.7434599399566655, -41.78004555291591, -1362.3496222744352)"/><path class="st6" d="M275.2,581.5c-4.4,4.5-11.6,7.9-21.5,10.3C263.6,589.4,270.8,586.1,275.2,581.5z" style="fill: rgb(194, 129, 77);" transform="matrix(2.7434599399566655, 0, 0, 2.7434599399566655, -41.78004555291591, -1362.3496222744352)"/><path class="st6" d="M215.7,596.5c-0.7,0-1.3,0.1-2,0.1C214.4,596.5,215,596.5,215.7,596.5z" style="fill: rgb(194, 129, 77);" transform="matrix(2.7434599399566655, 0, 0, 2.7434599399566655, -41.78004555291591, -1362.3496222744352)"/><path class="st6" d="M253.7,591.8c-2.6,0.6-5.4,1.2-8.4,1.7C248.3,593,251.1,592.5,253.7,591.8z" style="fill: rgb(194, 129, 77);" transform="matrix(2.7434599399566655, 0, 0, 2.7434599399566655, -41.78004555291591, -1362.3496222744352)"/><path class="st6" d="M205.8,596.7c-0.6,0-1.3,0-1.9,0C204.5,596.7,205.2,596.7,205.8,596.7z" style="fill: rgb(194, 129, 77);" transform="matrix(2.7434599399566655, 0, 0, 2.7434599399566655, -41.78004555291591, -1362.3496222744352)"/><path class="st6" d="M193.4,596.3c-0.6,0-1.2-0.1-1.8-0.1C192.2,596.2,192.8,596.3,193.4,596.3z" style="fill: rgb(194, 129, 77);" transform="matrix(2.7434599399566655, 0, 0, 2.7434599399566655, -41.78004555291591, -1362.3496222744352)"/><path class="st6" d="M210.6,596.7c-0.5,0-1,0-1.5,0C209.6,596.7,210.1,596.7,210.6,596.7z" style="fill: rgb(194, 129, 77);" transform="matrix(2.7434599399566655, 0, 0, 2.7434599399566655, -41.78004555291591, -1362.3496222744352)"/><path class="st6" d="M212.9,596.6c-0.5,0-1,0-1.5,0C211.9,596.6,212.4,596.6,212.9,596.6z" style="fill: rgb(194, 129, 77);" transform="matrix(2.7434599399566655, 0, 0, 2.7434599399566655, -41.78004555291591, -1362.3496222744352)"/><path class="st6" d="M208.4,596.7c-0.7,0-1.5,0-2.2,0C206.9,596.7,207.6,596.7,208.4,596.7z" style="fill: rgb(194, 129, 77);" transform="matrix(2.7434599399566655, 0, 0, 2.7434599399566655, -41.78004555291591, -1362.3496222744352)"/><path class="st6" d="M191.1,596.2c-0.7-0.1-1.4-0.1-2.1-0.2C189.7,596.1,190.4,596.1,191.1,596.2z" style="fill: rgb(194, 129, 77);" transform="matrix(2.7434599399566655, 0, 0, 2.7434599399566655, -41.78004555291591, -1362.3496222744352)"/><path class="st7" d="M243.4,556.4c16.6,3.4,27.4,8.7,27.4,14.8c0,1-0.3,1.9-0.8,2.8c-0.2,0.3-0.4,0.6-0.6,0.9c0,0,0,0,0,0&#10;&#9;&#9;&#9;c-6.3,8.4-33.5,14.7-66.1,14.7c-1.3,0-2.7,0-4,0c-0.4,0-0.8,0-1.2,0c-0.9,0-1.9,0-2.8-0.1c-0.4,0-0.9,0-1.3,0&#10;&#9;&#9;&#9;c-0.9,0-1.8-0.1-2.7-0.1c-0.4,0-0.8,0-1.1-0.1c-2.5-0.1-5-0.3-7.4-0.5c-0.4,0-0.7-0.1-1.1-0.1c-0.7-0.1-1.3-0.1-2-0.2&#10;&#9;&#9;&#9;c-12.1,0.8-23.9,0.5-33.7-1.2c-0.8-0.1-1.5-0.2-2.2-0.3c9.9,3.8,23.2,6.8,37.5,8.4c0.1,0,0.1,0,0.2,0c0.7,0.1,1.4,0.2,2.1,0.2&#10;&#9;&#9;&#9;c0.1,0,0.2,0,0.3,0c1.6,0.2,3.1,0.3,4.7,0.4c0,0,0.1,0,0.1,0c0.7,0.1,1.4,0.1,2.1,0.2c0.2,0,0.4,0,0.5,0c0.6,0,1.2,0.1,1.8,0.1&#10;&#9;&#9;&#9;c0.2,0,0.4,0,0.6,0c0.7,0,1.4,0.1,2.1,0.1c0.1,0,0.1,0,0.2,0c0.8,0,1.5,0.1,2.3,0.1c0.2,0,0.4,0,0.5,0c0.6,0,1.1,0,1.7,0.1&#10;&#9;&#9;&#9;c0.2,0,0.5,0,0.7,0c0.5,0,1.1,0,1.6,0c0.2,0,0.5,0,0.7,0c0.7,0,1.3,0,1.9,0c0.1,0,0.2,0,0.3,0c0.7,0,1.5,0,2.2,0&#10;&#9;&#9;&#9;c0.2,0,0.5,0,0.7,0c0.5,0,1,0,1.5,0c0.3,0,0.6,0,0.8,0c0.5,0,1,0,1.5,0c0.3,0,0.5,0,0.8,0c0.7,0,1.3-0.1,2-0.1c0.1,0,0.1,0,0.2,0&#10;&#9;&#9;&#9;c11.3-0.6,21.1-1.5,29.5-2.9c3-0.5,5.8-1.1,8.4-1.7c9.9-2.4,17-5.7,21.5-10.3c2.9-3,4.7-6.6,5.2-10.7c0,0,0,0,0,0&#10;&#9;&#9;&#9;c0-0.3,0.1-0.7,0-1c0-0.1,0-0.2,0-0.3c0-0.3,0-0.6-0.1-0.9c0,0,0-0.1,0-0.1c-0.1-0.3-0.2-0.6-0.3-0.9c0-0.1-0.1-0.2-0.1-0.2&#10;&#9;&#9;&#9;c-0.1-0.3-0.2-0.5-0.3-0.8c0-0.1-0.1-0.1-0.1-0.2c-0.2-0.3-0.3-0.6-0.5-0.9c-0.1-0.1-0.1-0.1-0.2-0.2c-0.2-0.2-0.4-0.5-0.6-0.7&#10;&#9;&#9;&#9;c-0.1-0.1-0.1-0.1-0.2-0.2c-0.2-0.3-0.5-0.5-0.8-0.8c-0.1-0.1-0.1-0.1-0.2-0.2c-0.2-0.2-0.5-0.4-0.8-0.7c-0.1-0.1-0.2-0.1-0.3-0.2&#10;&#9;&#9;&#9;c-0.3-0.3-0.7-0.5-1-0.8c-0.1,0-0.1-0.1-0.2-0.1c-0.3-0.2-0.6-0.4-1-0.6c-0.1-0.1-0.2-0.1-0.3-0.2c-0.4-0.2-0.8-0.5-1.3-0.7&#10;&#9;&#9;&#9;c0,0-0.1,0-0.1,0c-0.4-0.2-0.9-0.4-1.3-0.7c-0.1-0.1-0.2-0.1-0.4-0.2c-0.5-0.2-0.9-0.4-1.4-0.7c0,0,0,0-0.1,0&#10;&#9;&#9;&#9;c-0.5-0.2-1-0.4-1.6-0.7c-0.1,0-0.2-0.1-0.3-0.1c-0.5-0.2-1-0.4-1.5-0.6c0,0-0.1,0-0.1-0.1c-0.6-0.2-1.2-0.4-1.8-0.6&#10;&#9;&#9;&#9;c-0.1,0-0.2-0.1-0.3-0.1c-0.6-0.2-1.1-0.4-1.7-0.6c0,0-0.1,0-0.1,0c-0.6-0.2-1.3-0.4-2-0.6c0,0-0.1,0-0.1,0&#10;&#9;&#9;&#9;c-0.7-0.2-1.3-0.4-2-0.6c0,0-0.1,0-0.1,0c-9.3-2.5-20.2-4.3-30.2-5.5C233.4,551,239.3,553.4,243.4,556.4z" style="fill: rgb(166, 111, 65);" transform="matrix(2.7434599399566655, 0, 0, 2.7434599399566655, -41.78004555291591, -1362.3496222744352)"/><path class="st10" d="M772.4,221.9c-0.4-0.6-0.8-1.3-1.2-1.9C771.6,220.6,772,221.3,772.4,221.9z" style="fill: rgb(255, 250, 192);" transform="matrix(1, 0, 0, 1, -2.842170943040401e-14, 0)"/><path class="st10" d="M771,219.6c-0.3-0.6-0.7-1.3-1-1.9C770.4,218.3,770.7,219,771,219.6z" style="fill: rgb(255, 250, 192);" transform="matrix(1, 0, 0, 1, -2.842170943040401e-14, 0)"/><path class="st10" d="M768.4,213c-0.4-1.4-0.6-2.9-0.8-4.4C767.8,210.1,768.1,211.6,768.4,213z" style="fill: rgb(255, 250, 192);" transform="matrix(1, 0, 0, 1, -2.842170943040401e-14, 0)"/><path class="st10" d="M769.1,215.3c-0.2-0.7-0.4-1.4-0.6-2C768.7,214,768.9,214.7,769.1,215.3z" style="fill: rgb(255, 250, 192);" transform="matrix(1, 0, 0, 1, -2.842170943040401e-14, 0)"/><path class="st10" d="M770,217.4c-0.3-0.6-0.5-1.2-0.7-1.8C769.5,216.2,769.7,216.8,770,217.4z" style="fill: rgb(255, 250, 192);" transform="matrix(1, 0, 0, 1, -2.842170943040401e-14, 0)"/><path class="st5" d="M561.7,78.3c0,0,0,0.1,0,0.1C561.7,78.4,561.7,78.3,561.7,78.3z" style="fill: rgb(142, 80, 36);" transform="matrix(1, 0, 0, 1, -2.842170943040401e-14, 0)"/><path class="st5" d="M561,82.2c0,0.1,0,0.1,0,0.2C560.9,82.3,560.9,82.2,561,82.2z" style="fill: rgb(142, 80, 36);" transform="matrix(1, 0, 0, 1, -2.842170943040401e-14, 0)"/><path class="st5" d="M563.4,69.7c0,0.1,0,0.1,0,0.2C563.3,69.8,563.4,69.8,563.4,69.7z" style="fill: rgb(142, 80, 36);" transform="matrix(1, 0, 0, 1, -2.842170943040401e-14, 0)"/><path class="st5" d="M563.1,71.1c0,0.1,0,0.2-0.1,0.4C563.1,71.4,563.1,71.3,563.1,71.1z" style="fill: rgb(142, 80, 36);" transform="matrix(1, 0, 0, 1, -2.842170943040401e-14, 0)"/><path class="st5" d="M562.8,72.7c0,0.1,0,0.2-0.1,0.4C562.8,73,562.8,72.8,562.8,72.7z" style="fill: rgb(142, 80, 36);" transform="matrix(1, 0, 0, 1, -2.842170943040401e-14, 0)"/><path class="st5" d="M562.5,74.6c0,0,0,0.1,0,0.1C562.5,74.6,562.5,74.6,562.5,74.6z" style="fill: rgb(142, 80, 36);" transform="matrix(1, 0, 0, 1, -2.842170943040401e-14, 0)"/><path class="st5" d="M561.4,80.2c0,0.1,0,0.2-0.1,0.3C561.3,80.3,561.3,80.2,561.4,80.2z" style="fill: rgb(142, 80, 36);" transform="matrix(1, 0, 0, 1, -2.842170943040401e-14, 0)"/><path class="st5" d="M553.9,115C553.9,115,553.9,115,553.9,115C553.9,115,553.9,115,553.9,115z" style="fill: rgb(142, 80, 36);" transform="matrix(1, 0, 0, 1, -2.842170943040401e-14, 0)"/><path class="st5" d="M564.2,64.4c0,0.1,0,0.2,0,0.3C564.2,64.7,564.2,64.5,564.2,64.4z" style="fill: rgb(142, 80, 36);" transform="matrix(1, 0, 0, 1, -2.842170943040401e-14, 0)"/><path class="st5" d="M563.9,58.3c0.1,0.1,0.1,0.3,0.2,0.4C564.1,58.5,564,58.4,563.9,58.3z" style="fill: rgb(142, 80, 36);" transform="matrix(1, 0, 0, 1, -2.842170943040401e-14, 0)"/><path class="st5" d="M564.2,58.9c0.1,0.1,0.1,0.3,0.1,0.4C564.3,59.2,564.3,59,564.2,58.9z" style="fill: rgb(142, 80, 36);" transform="matrix(1, 0, 0, 1, -2.842170943040401e-14, 0)"/><path class="st5" d="M564.4,59.5c0.1,0.2,0.1,0.4,0.1,0.6C564.5,60,564.5,59.7,564.4,59.5z" style="fill: rgb(142, 80, 36);" transform="matrix(1, 0, 0, 1, -2.842170943040401e-14, 0)"/><path class="st5" d="M562.6,56.5c0.1,0.1,0.3,0.3,0.4,0.5C562.9,56.8,562.8,56.7,562.6,56.5z" style="fill: rgb(142, 80, 36);" transform="matrix(1, 0, 0, 1, -2.842170943040401e-14, 0)"/><path class="st5" d="M564.6,60.6c0,0,0,0.1,0,0.1C564.6,60.7,564.6,60.6,564.6,60.6z" style="fill: rgb(142, 80, 36);" transform="matrix(1, 0, 0, 1, -2.842170943040401e-14, 0)"/><path class="st5" d="M563.1,57.1c0.1,0.1,0.2,0.3,0.3,0.4C563.4,57.3,563.3,57.2,563.1,57.1z" style="fill: rgb(142, 80, 36);" transform="matrix(1, 0, 0, 1, -2.842170943040401e-14, 0)"/><path class="st5" d="M563.6,57.6c0.1,0.1,0.2,0.3,0.2,0.4C563.8,57.9,563.7,57.8,563.6,57.6z" style="fill: rgb(142, 80, 36);" transform="matrix(1, 0, 0, 1, -2.842170943040401e-14, 0)"/><path class="st5" d="M564.1,65.5c0,0.1,0,0.2-0.1,0.3C564,65.7,564,65.6,564.1,65.5z" style="fill: rgb(142, 80, 36);" transform="matrix(1, 0, 0, 1, -2.842170943040401e-14, 0)"/><path class="st5" d="M563.9,66.7c0,0.1,0,0.2-0.1,0.3C563.8,66.9,563.9,66.8,563.9,66.7z" style="fill: rgb(142, 80, 36);" transform="matrix(1, 0, 0, 1, -2.842170943040401e-14, 0)"/><path class="st5" d="M563.6,68.2C563.6,68.3,563.6,68.3,563.6,68.2C563.6,68.3,563.6,68.3,563.6,68.2z" style="fill: rgb(142, 80, 36);" transform="matrix(1, 0, 0, 1, -2.842170943040401e-14, 0)"/><path class="st5" d="M564.5,62.5c0,0.1,0,0.1,0,0.2C564.5,62.6,564.5,62.5,564.5,62.5z" style="fill: rgb(142, 80, 36);" transform="matrix(1, 0, 0, 1, -2.842170943040401e-14, 0)"/><path class="st5" d="M564.6,61.7c0,0.1,0,0.1,0,0.2C564.5,61.8,564.5,61.7,564.6,61.7z" style="fill: rgb(142, 80, 36);" transform="matrix(1, 0, 0, 1, -2.842170943040401e-14, 0)"/><path class="st5" d="M564.4,63.5c0,0,0,0.1,0,0.1C564.3,63.6,564.4,63.5,564.4,63.5z" style="fill: rgb(142, 80, 36);" transform="matrix(1, 0, 0, 1, -2.842170943040401e-14, 0)"/><path class="st5" d="M564.6,61.1c0,0.1,0,0.1,0,0.2C564.6,61.2,564.6,61.1,564.6,61.1z" style="fill: rgb(142, 80, 36);" transform="matrix(1, 0, 0, 1, -2.842170943040401e-14, 0)"/><path class="st5" d="M554.5,112.5C554.5,112.5,554.5,112.5,554.5,112.5C554.5,112.5,554.5,112.5,554.5,112.5z" style="fill: rgb(142, 80, 36);" transform="matrix(1, 0, 0, 1, -2.842170943040401e-14, 0)"/><path d="M 531.2999877929688 402.5 L 531.2999877929688 402.5 L 531.2999877929688 402.5 Z" class="st6" style="fill: rgb(194, 129, 77);" transform="matrix(1, 0, 0, 1, -2.842170943040401e-14, 0)"/><path class="st13" d="M550.8,393.1C550.8,393.1,550.8,393.1,550.8,393.1C550.8,393.1,550.8,393.1,550.8,393.1z" style="fill: rgb(124, 69, 28);" transform="matrix(1, 0, 0, 1, -2.842170943040401e-14, 0)"/><path class="st15" d="M260.7,387.7C260.7,387.7,260.7,387.7,260.7,387.7C260.7,387.7,260.7,387.7,260.7,387.7z" style="fill: rgb(161, 89, 67);" transform="matrix(1, 0, 0, 1, -2.842170943040401e-14, 0)"/><path class="st15" d="M257.4,388.3C257.4,388.3,257.4,388.3,257.4,388.3C257.4,388.3,257.4,388.3,257.4,388.3z" style="fill: rgb(161, 89, 67);" transform="matrix(1, 0, 0, 1, -2.842170943040401e-14, 0)"/><path class="st10" d="M298.3,209.6c0.1-0.1,0.2-0.1,0.2-0.2c0.7-0.7,1.3-1.5,1.8-2.4c-0.5,0.9-1.1,1.7-1.8,2.4&#10;&#9;&#9;&#9;C298.5,209.5,298.4,209.5,298.3,209.6z" style="fill: rgb(255, 250, 192);" transform="matrix(1, 0, 0, 1, -2.842170943040401e-14, 0)"/><path class="st10" d="M297.8,209.8c-0.1,0-0.2,0.1-0.3,0.1C297.7,209.9,297.8,209.9,297.8,209.8z" style="fill: rgb(255, 250, 192);" transform="matrix(1, 0, 0, 1, -2.842170943040401e-14, 0)"/><path class="st10" d="M296.4,210.3c-0.2,0-0.3,0.1-0.5,0.1C296.1,210.4,296.3,210.4,296.4,210.3z" style="fill: rgb(255, 250, 192);" transform="matrix(1, 0, 0, 1, -2.842170943040401e-14, 0)"/><path class="st10" d="M293.4,211c-0.2,0-0.4,0.1-0.6,0.1C293,211.1,293.2,211,293.4,211z" style="fill: rgb(255, 250, 192);" transform="matrix(1, 0, 0, 1, -2.842170943040401e-14, 0)"/><path class="st10" d="M292.5,211.1c-0.2,0-0.4,0.1-0.7,0.1C292.1,211.2,292.3,211.2,292.5,211.1z" style="fill: rgb(255, 250, 192);" transform="matrix(1, 0, 0, 1, -2.842170943040401e-14, 0)"/><path class="st10" d="M297.4,210c-0.1,0-0.2,0.1-0.3,0.1C297.2,210.1,297.3,210.1,297.4,210z" style="fill: rgb(255, 250, 192);" transform="matrix(1, 0, 0, 1, -2.842170943040401e-14, 0)"/><path class="st10" d="M298.2,209.7c-0.1,0-0.1,0.1-0.2,0.1C298.1,209.7,298.1,209.7,298.2,209.7z" style="fill: rgb(255, 250, 192);" transform="matrix(1, 0, 0, 1, -2.842170943040401e-14, 0)"/><path class="st10" d="M295.9,210.5c-0.4,0.1-0.9,0.2-1.4,0.3C295,210.7,295.4,210.6,295.9,210.5z" style="fill: rgb(255, 250, 192);" transform="matrix(1, 0, 0, 1, -2.842170943040401e-14, 0)"/><path class="st10" d="M291.6,211.3c-0.3,0-0.5,0.1-0.8,0.1C291.1,211.4,291.4,211.3,291.6,211.3z" style="fill: rgb(255, 250, 192);" transform="matrix(1, 0, 0, 1, -2.842170943040401e-14, 0)"/><path class="st10" d="M294.3,210.9c-0.2,0-0.4,0.1-0.6,0.1C293.9,210.9,294.1,210.9,294.3,210.9z" style="fill: rgb(255, 250, 192);" transform="matrix(1, 0, 0, 1, -2.842170943040401e-14, 0)"/><path class="st10" d="M297,210.2c-0.1,0-0.2,0.1-0.4,0.1C296.7,210.3,296.9,210.2,297,210.2z" style="fill: rgb(255, 250, 192);" transform="matrix(1, 0, 0, 1, -2.842170943040401e-14, 0)"/><path class="st10" d="M287.3,211.8c0.4,0,0.8-0.1,1.1-0.1C288.1,211.7,287.7,211.8,287.3,211.8z" style="fill: rgb(255, 250, 192);" transform="matrix(1, 0, 0, 1, -2.842170943040401e-14, 0)"/><path class="st10" d="M286.1,211.9c0.3,0,0.7-0.1,1-0.1C286.8,211.9,286.5,211.9,286.1,211.9z" style="fill: rgb(255, 250, 192);" transform="matrix(1, 0, 0, 1, -2.842170943040401e-14, 0)"/><path class="st10" d="M284.9,212.1c0.3,0,0.7-0.1,1-0.1C285.5,212,285.2,212,284.9,212.1z" style="fill: rgb(255, 250, 192);" transform="matrix(1, 0, 0, 1, -2.842170943040401e-14, 0)"/><path class="st10" d="M288.5,211.7c0.7-0.1,1.4-0.2,2.1-0.3c0,0,0.1,0,0.1,0C290,211.5,289.2,211.6,288.5,211.7z" style="fill: rgb(255, 250, 192);" transform="matrix(1, 0, 0, 1, -2.842170943040401e-14, 0)"/><path class="st10" d="M283.5,212.2c0.4,0,0.7-0.1,1.1-0.1C284.2,212.1,283.8,212.1,283.5,212.2z" style="fill: rgb(255, 250, 192);" transform="matrix(1, 0, 0, 1, -2.842170943040401e-14, 0)"/><path class="st10" d="M616,221C616,221,616,221,616,221C616,221,616,221,616,221z" style="fill: rgb(255, 250, 192);" transform="matrix(1, 0, 0, 1, -2.842170943040401e-14, 0)"/><path class="st10" d="M193.1,553c1.5-0.1,3-0.1,4.5-0.1C196.1,552.9,194.6,552.9,193.1,553z" style="fill: rgb(255, 250, 192);" transform="matrix(2.7434599399566655, 0, 0, 2.7434599399566655, -41.78004555291591, -1362.3496222744352)"/><path class="st10" d="M198.8,552.8c1.5,0,3,0,4.6,0C201.8,552.8,200.3,552.8,198.8,552.8z" style="fill: rgb(255, 250, 192);" transform="matrix(2.7434599399566655, 0, 0, 2.7434599399566655, -41.78004555291591, -1362.3496222744352)"/><path class="st10" d="M183.2,553.6c1.4-0.1,2.9-0.2,4.4-0.3C186.1,553.4,184.6,553.5,183.2,553.6z" style="fill: rgb(255, 250, 192);" transform="matrix(2.7434599399566655, 0, 0, 2.7434599399566655, -41.78004555291591, -1362.3496222744352)"/><path class="st10" d="M178.8,554c1.4-0.1,2.8-0.3,4.2-0.4C181.6,553.7,180.2,553.9,178.8,554z" style="fill: rgb(255, 250, 192);" transform="matrix(2.7434599399566655, 0, 0, 2.7434599399566655, -41.78004555291591, -1362.3496222744352)"/><path class="st10" d="M188.5,553.2c1.4-0.1,2.9-0.2,4.3-0.2C191.4,553.1,190,553.1,188.5,553.2z" style="fill: rgb(255, 250, 192);" transform="matrix(2.7434599399566655, 0, 0, 2.7434599399566655, -41.78004555291591, -1362.3496222744352)"/><path class="st10" d="M165.3,556c1.3-0.2,2.6-0.5,4-0.7C168,555.5,166.6,555.7,165.3,556z" style="fill: rgb(255, 250, 192);" transform="matrix(2.7434599399566655, 0, 0, 2.7434599399566655, -41.78004555291591, -1362.3496222744352)"/><path class="st10" d="M169.8,555.2c2.7-0.4,5.4-0.8,8.3-1.1C175.2,554.4,172.5,554.8,169.8,555.2z" style="fill: rgb(255, 250, 192);" transform="matrix(2.7434599399566655, 0, 0, 2.7434599399566655, -41.78004555291591, -1362.3496222744352)"/><path class="st10" d="M174.2,577.9c-5.3-0.9-23.1-1.8-25.8-11.5c-1.1-4.2,7.1-7.7,16.9-10.4c-17.7,3.3-29.4,8.9-29.4,15.2&#10;&#9;&#9;&#9;c0,7,14.3,13.1,35.3,16.2C165.3,583.6,178.6,578.6,174.2,577.9z" style="fill: rgb(255, 250, 192);" transform="matrix(2.7434599399566655, 0, 0, 2.7434599399566655, -41.78004555291591, -1362.3496222744352)"/><path class="st10" d="M178.1,588.2c-0.8-0.1-1.6-0.2-2.4-0.3C176.5,588,177.3,588.1,178.1,588.2z" style="fill: rgb(255, 250, 192);" transform="matrix(2.7434599399566655, 0, 0, 2.7434599399566655, -41.78004555291591, -1362.3496222744352)"/><path class="st10" d="M174.6,587.8c-1.1-0.1-2.2-0.3-3.2-0.4C172.5,587.5,173.5,587.7,174.6,587.8z" style="fill: rgb(255, 250, 192);" transform="matrix(2.7434599399566655, 0, 0, 2.7434599399566655, -41.78004555291591, -1362.3496222744352)"/><path class="st10" d="M190.3,589.2c-2.5-0.1-5-0.3-7.4-0.5C185.3,588.9,187.8,589.1,190.3,589.2z" style="fill: rgb(255, 250, 192);" transform="matrix(2.7434599399566655, 0, 0, 2.7434599399566655, -41.78004555291591, -1362.3496222744352)"/><path class="st10" d="M194.2,589.4c-0.9,0-1.8-0.1-2.7-0.1C192.3,589.3,193.3,589.3,194.2,589.4z" style="fill: rgb(255, 250, 192);" transform="matrix(2.7434599399566655, 0, 0, 2.7434599399566655, -41.78004555291591, -1362.3496222744352)"/><path class="st10" d="M198.3,589.5c-0.9,0-1.9,0-2.8-0.1C196.4,589.5,197.3,589.5,198.3,589.5z" style="fill: rgb(255, 250, 192);" transform="matrix(2.7434599399566655, 0, 0, 2.7434599399566655, -41.78004555291591, -1362.3496222744352)"/><path class="st10" d="M270.1,574c-0.2,0.3-0.4,0.6-0.6,0.9C269.7,574.5,269.9,574.3,270.1,574z" style="fill: rgb(255, 250, 192);" transform="matrix(2.7434599399566655, 0, 0, 2.7434599399566655, -41.78004555291591, -1362.3496222744352)"/><path class="st10" d="M203.4,589.6c-1.3,0-2.7,0-4,0C200.7,589.5,202.1,589.6,203.4,589.6c32.6,0,59.8-6.3,66.1-14.7&#10;&#9;&#9;&#9;C263.2,583.3,236,589.6,203.4,589.6z" style="fill: rgb(255, 250, 192);" transform="matrix(2.7434599399566655, 0, 0, 2.7434599399566655, -41.78004555291591, -1362.3496222744352)"/><path class="st10" d="M179.3,588.3c0.2,0,0.4,0,0.5,0.1c0.7,0.1,1.3,0.1,2,0.2C181,588.5,180.1,588.4,179.3,588.3z" style="fill: rgb(255, 250, 192);" transform="matrix(2.7434599399566655, 0, 0, 2.7434599399566655, -41.78004555291591, -1362.3496222744352)"/><path class="st11" d="M181.8,588.6c0.4,0,0.7,0.1,1.1,0.1c2.4,0.2,4.9,0.4,7.4,0.5c0.4,0,0.8,0,1.1,0.1c0.9,0,1.8,0.1,2.7,0.1&#10;&#9;&#9;&#9;c0.4,0,0.9,0,1.3,0c0.9,0,1.9,0.1,2.8,0.1c0.4,0,0.8,0,1.2,0c1.3,0,2.6,0,4,0c32.6,0,59.8-6.3,66.1-14.7c0,0,0,0,0,0&#10;&#9;&#9;&#9;c0.2-0.3,0.4-0.6,0.6-0.9c0.5-0.9,0.8-1.8,0.8-2.8c0-6.1-10.8-11.5-27.4-14.8c-11.2-2.3-25-3.6-40-3.6c0,0-0.1,0-0.1,0&#10;&#9;&#9;&#9;c-1.5,0-3.1,0-4.6,0c-0.4,0-0.8,0-1.2,0c-1.5,0-3,0.1-4.5,0.1c-0.1,0-0.1,0-0.2,0c-1.5,0.1-2.9,0.1-4.3,0.2c-0.3,0-0.6,0-1,0.1&#10;&#9;&#9;&#9;c-1.5,0.1-3,0.2-4.4,0.3c0,0-0.1,0-0.1,0c-1.4,0.1-2.9,0.3-4.2,0.4c-0.2,0-0.5,0-0.7,0.1c-2.9,0.3-5.7,0.7-8.3,1.1&#10;&#9;&#9;&#9;c-0.2,0-0.3,0.1-0.5,0.1c-1.3,0.2-2.7,0.4-4,0.7c0,0,0,0,0,0l0,0c-9.8,2.7-18.1,6.2-16.9,10.4c2.7,9.8,20.4,10.7,25.8,11.5&#10;&#9;&#9;&#9;c4.4,0.7-8.9,5.7-2.9,9.5l0,0c0,0,0.1,0,0.1,0c1.1,0.2,2.1,0.3,3.2,0.4c0.3,0,0.7,0.1,1,0.1c0.8,0.1,1.6,0.2,2.4,0.3&#10;&#9;&#9;&#9;c0.4,0,0.8,0.1,1.2,0.1C180.1,588.4,181,588.5,181.8,588.6z M157.8,563.3c8.9-8.2,95.3-5.6,90.6,2c-5.5,8.9-30.7,2.7-45,1&#10;&#9;&#9;&#9;c-14.3-1.7-38.8-1.7-29.3,2.4c9.5,4.1,27.3,5.5,23.8,8.2C194.5,579.7,148.9,571.5,157.8,563.3z M232,576.3&#10;&#9;&#9;&#9;c7.5-3.4,13.6-0.7,8.9,2.7c-4.8,3.4-51.1,8.2-62.7,2.7C173.3,579.4,215.9,583.6,232,576.3z" style="fill: rgb(255, 223, 157);" transform="matrix(2.7434599399566655, 0, 0, 2.7434599399566655, -41.78004555291591, -1362.3496222744352)"/><path class="st5" d="M198,577c3.4-2.7-14.3-4.1-23.8-8.2c-9.5-4.1,15-4.1,29.3-2.4c14.3,1.7,39.5,7.8,45-1&#10;&#9;&#9;&#9;c4.7-7.6-81.8-10.2-90.6-2C148.9,571.5,194.5,579.7,198,577z" style="fill: rgb(142, 80, 36);" transform="matrix(2.7434599399566655, 0, 0, 2.7434599399566655, -41.78004555291591, -1362.3496222744352)"/><path class="st5" d="M240.9,579c4.8-3.4-1.4-6.1-8.9-2.7c-16.1,7.3-58.8,3.1-53.8,5.5C189.8,587.2,236.1,582.4,240.9,579z" style="fill: rgb(142, 80, 36);" transform="matrix(2.7434599399566655, 0, 0, 2.7434599399566655, -41.78004555291591, -1362.3496222744352)"/><path class="st13" d="M279.8,588.9c0.2-2.4,0.4-4.6,0.6-6.6c0-0.1,0-0.1,0-0.2c0.1-1.6,0.2-3.2,0.2-4.6c0-0.5,0-0.9,0-1.4&#10;&#9;&#9;&#9;c0-2.2-0.1-4-0.3-5.4c-0.5,4.2-2.3,7.7-5.2,10.7c-4.4,4.5-11.6,7.9-21.5,10.3c-2.6,0.6-5.4,1.2-8.4,1.7&#10;&#9;&#9;&#9;c-8.3,1.4-18.2,2.4-29.5,2.9c-0.1,0-0.1,0-0.2,0c-0.7,0-1.3,0.1-2,0.1c-0.3,0-0.5,0-0.8,0c-0.5,0-1,0-1.5,0c-0.3,0-0.5,0-0.8,0&#10;&#9;&#9;&#9;c-0.5,0-1,0-1.5,0c-0.2,0-0.5,0-0.7,0c-0.7,0-1.5,0-2.2,0c-0.1,0-0.2,0-0.3,0c-0.6,0-1.3,0-1.9,0c-0.2,0-0.5,0-0.7,0&#10;&#9;&#9;&#9;c-0.5,0-1.1,0-1.6,0c-0.2,0-0.5,0-0.7,0c-0.6,0-1.1,0-1.7-0.1c-0.2,0-0.4,0-0.5,0c-0.8,0-1.5-0.1-2.3-0.1c-0.1,0-0.1,0-0.2,0&#10;&#9;&#9;&#9;c-0.7,0-1.4-0.1-2.1-0.1c-0.2,0-0.4,0-0.6,0c-0.6,0-1.2-0.1-1.8-0.1c-0.2,0-0.4,0-0.5,0c-0.7-0.1-1.4-0.1-2.1-0.2c0,0-0.1,0-0.1,0&#10;&#9;&#9;&#9;c-0.6,0-1.2-0.1-1.8-0.2c19.3,5.1,41.8,15,47,33.6c8.9,31.7-32.5,65.2-59.1,64.2c7.8,2.2,19.6,3.9,31.7,4.6c0,0,0,0,0,0&#10;&#9;&#9;&#9;c1.7,0.1,3.4,0.2,5.2,0.2c0,0,0,0,0,0c0.8,0,1.7,0,2.5,0c0.1,0,0.1,0,0.2,0c1.6,0,3.2,0,4.8,0c0.1,0,0.2,0,0.3,0&#10;&#9;&#9;&#9;c0.8,0,1.5,0,2.3-0.1c0.1,0,0.2,0,0.3,0c0.8,0,1.5-0.1,2.3-0.1c0,0,0,0,0,0c0.7,0,1.5-0.1,2.2-0.2c0.1,0,0.3,0,0.4,0&#10;&#9;&#9;&#9;c0.7-0.1,1.4-0.1,2.1-0.2c0.1,0,0.2,0,0.3,0c0.7-0.1,1.3-0.1,1.9-0.2c0.1,0,0.2,0,0.2,0c0.7-0.1,1.3-0.2,2-0.3&#10;&#9;&#9;&#9;c0.1,0,0.3,0,0.4-0.1c0.6-0.1,1.3-0.2,1.9-0.3c0.1,0,0.2,0,0.3,0c0.6-0.1,1.1-0.2,1.7-0.3c0.1,0,0.2,0,0.3-0.1&#10;&#9;&#9;&#9;c0.6-0.1,1.2-0.3,1.7-0.4c0.1,0,0.2-0.1,0.4-0.1c0.6-0.1,1.1-0.3,1.7-0.5c0,0,0.1,0,0.1,0c0.5-0.2,1-0.3,1.5-0.5&#10;&#9;&#9;&#9;c0.1,0,0.2-0.1,0.3-0.1c0.5-0.2,1-0.4,1.4-0.6c0.1,0,0.2-0.1,0.3-0.1c0.5-0.2,0.9-0.4,1.4-0.6c5-2.5,9.8-10.9,14.2-22.2h0&#10;&#9;&#9;&#9;c37,6.7,70-48.2,49.8-74.5C299.6,581.8,287.9,584.1,279.8,588.9z M295.4,630.1c-4.2,18.9-18.3,23.3-28.4,23.9l0,0&#10;&#9;&#9;&#9;c0-0.1,0.1-0.2,0.1-0.4c0.2-0.8,0.5-1.7,0.7-2.5c0.2-0.6,0.3-1.2,0.5-1.8c3-10.9,5.6-22.7,7.6-33.7&#10;&#9;&#9;&#9;C286.9,607.2,300.8,605.8,295.4,630.1z" style="fill: rgb(124, 69, 28);" transform="matrix(2.7434599399566655, 0, 0, 2.7434599399566655, -41.78004555291591, -1362.3496222744352)"/><path class="st10" d="M910.3,467.6c0.7,0.1,1.4,0.2,2.1,0.3C911.7,467.8,911,467.7,910.3,467.6z" style="fill: rgb(255, 250, 192);" transform="matrix(1, 0, 0, 1, -2.842170943040401e-14, 0)"/><path class="st10" d="M918.8,702.5c2-2.7,4-14,5.9-30.2C922.8,688.5,920.8,699.8,918.8,702.5z" style="fill: rgb(255, 250, 192);" transform="matrix(1, 0, 0, 1, -2.842170943040401e-14, 0)"/><path class="st10" d="M936.2,474.1c0.1,0.1,0.1,0.2,0.2,0.3C936.4,474.3,936.3,474.2,936.2,474.1z" style="fill: rgb(255, 250, 192);" transform="matrix(1, 0, 0, 1, -2.842170943040401e-14, 0)"/><path class="st10" d="M907.6,467.3c0.8,0.1,1.5,0.2,2.3,0.3C909.1,467.5,908.4,467.4,907.6,467.3z" style="fill: rgb(255, 250, 192);" transform="matrix(1, 0, 0, 1, -2.842170943040401e-14, 0)"/><path class="st10" d="M904.8,467c0.8,0.1,1.6,0.2,2.5,0.3C906.5,467.2,905.7,467.1,904.8,467z" style="fill: rgb(255, 250, 192);" transform="matrix(1, 0, 0, 1, -2.842170943040401e-14, 0)"/><path class="st10" d="M902,466.7c0.9,0.1,1.7,0.2,2.6,0.3C903.8,466.9,902.9,466.8,902,466.7z" style="fill: rgb(255, 250, 192);" transform="matrix(1, 0, 0, 1, -2.842170943040401e-14, 0)"/><path class="st10" d="M925.3,666.4c-0.2,1.6-0.3,3.1-0.5,4.6C925,669.5,925.1,668,925.3,666.4z" style="fill: rgb(255, 250, 192);" transform="matrix(1, 0, 0, 1, -2.842170943040401e-14, 0)"/><path class="st10" d="M912.8,468c0.7,0.1,1.3,0.2,2,0.3C914.2,468.1,913.5,468.1,912.8,468z" style="fill: rgb(255, 250, 192);" transform="matrix(1, 0, 0, 1, -2.842170943040401e-14, 0)"/><path class="st10" d="M917.7,468.7c0.6,0.1,1.1,0.2,1.7,0.3C918.8,468.8,918.2,468.7,917.7,468.7z" style="fill: rgb(255, 250, 192);" transform="matrix(1, 0, 0, 1, -2.842170943040401e-14, 0)"/><path class="st10" d="M929.3,471c0.3,0.1,0.6,0.2,0.9,0.3C929.9,471.2,929.6,471.1,929.3,471z" style="fill: rgb(255, 250, 192);" transform="matrix(1, 0, 0, 1, -2.842170943040401e-14, 0)"/><path class="st10" d="M932.1,471.8c0.2,0.1,0.5,0.2,0.7,0.3C932.6,472,932.4,471.9,932.1,471.8z" style="fill: rgb(255, 250, 192);" transform="matrix(1, 0, 0, 1, -2.842170943040401e-14, 0)"/><path class="st10" d="M927.7,470.6c0.4,0.1,0.7,0.2,1,0.3C928.4,470.7,928.1,470.7,927.7,470.6z" style="fill: rgb(255, 250, 192);" transform="matrix(1, 0, 0, 1, -2.842170943040401e-14, 0)"/><path class="st10" d="M919.9,469c0.5,0.1,1,0.2,1.5,0.3C921,469.2,920.4,469.1,919.9,469z" style="fill: rgb(255, 250, 192);" transform="matrix(1, 0, 0, 1, -2.842170943040401e-14, 0)"/><path class="st10" d="M922.1,469.4c0.5,0.1,0.9,0.2,1.4,0.3C923,469.6,922.5,469.5,922.1,469.4z" style="fill: rgb(255, 250, 192);" transform="matrix(1, 0, 0, 1, -2.842170943040401e-14, 0)"/><path class="st10" d="M926,470.2c0.4,0.1,0.8,0.2,1.1,0.3C926.7,470.3,926.4,470.3,926,470.2z" style="fill: rgb(255, 250, 192);" transform="matrix(1, 0, 0, 1, -2.842170943040401e-14, 0)"/><path class="st10" d="M924.1,469.8c0.4,0.1,0.8,0.2,1.3,0.3C924.9,470,924.5,469.9,924.1,469.8z" style="fill: rgb(255, 250, 192);" transform="matrix(1, 0, 0, 1, -2.842170943040401e-14, 0)"/><path class="st10" d="M930.8,471.4c0.3,0.1,0.5,0.2,0.8,0.3C931.3,471.6,931.1,471.5,930.8,471.4z" style="fill: rgb(255, 250, 192);" transform="matrix(1, 0, 0, 1, -2.842170943040401e-14, 0)"/><path class="st10" d="M936.5,474.5c0.1,0.1,0.1,0.3,0.1,0.4C936.6,474.8,936.6,474.7,936.5,474.5z" style="fill: rgb(255, 250, 192);" transform="matrix(1, 0, 0, 1, -2.842170943040401e-14, 0)"/><path class="st10" d="M935.8,473.6c0.1,0.1,0.2,0.2,0.3,0.3C936,473.8,935.9,473.7,935.8,473.6z" style="fill: rgb(255, 250, 192);" transform="matrix(1, 0, 0, 1, -2.842170943040401e-14, 0)"/><path class="st10" d="M915.3,468.3c0.6,0.1,1.2,0.2,1.8,0.3C916.5,468.5,915.9,468.4,915.3,468.3z" style="fill: rgb(255, 250, 192);" transform="matrix(1, 0, 0, 1, -2.842170943040401e-14, 0)"/><path class="st10" d="M933.3,472.3c0.2,0.1,0.4,0.2,0.6,0.3C933.7,472.4,933.5,472.4,933.3,472.3z" style="fill: rgb(255, 250, 192);" transform="matrix(1, 0, 0, 1, -2.842170943040401e-14, 0)"/><path class="st10" d="M934.3,472.7c0.2,0.1,0.3,0.2,0.5,0.3C934.6,472.9,934.4,472.8,934.3,472.7z" style="fill: rgb(255, 250, 192);" transform="matrix(1, 0, 0, 1, -2.842170943040401e-14, 0)"/><path class="st10" d="M935.1,473.2c0.1,0.1,0.3,0.2,0.4,0.3C935.4,473.3,935.2,473.3,935.1,473.2z" style="fill: rgb(255, 250, 192);" transform="matrix(1, 0, 0, 1, -2.842170943040401e-14, 0)"/><path class="st15" d="M918.7,495.1c0.2,1.2,0.3,9.6,0.1,22.2C919,504.7,918.9,496.3,918.7,495.1c-0.2-0.9-1-1.7-2.2-2.6&#10;&#9;&#9;&#9;C917.7,493.4,918.5,494.3,918.7,495.1z" style="fill: rgb(161, 89, 67);" transform="matrix(1, 0, 0, 1, -2.842170943040401e-14, 0)"/><path class="st15" d="M911.6,653.6c-0.2,1.9-0.5,3.6-0.7,5.3C911.2,657.2,911.4,655.5,911.6,653.6z" style="fill: rgb(161, 89, 67);" transform="matrix(1, 0, 0, 1, -2.842170943040401e-14, 0)"/><path class="st10" d="M162.2,676.5c0,0-19.3-41.3-26.6-79.3C135.5,597.2,132.2,639.8,162.2,676.5z" style="fill: rgb(255, 250, 192);" transform="matrix(2.7434599399566655, 0, 0, 2.7434599399566655, -41.78004555291591, -1362.3496222744352)"/>
<g class="st17" transform="matrix(1, 0, 0, 1, -2.842170943040401e-14, 0)" style="opacity: 0.26;">
		<g>
			<g>
				<path class="st18" d="M570.5,748.7c0.5,0,1,0.5,1,0.5l-8.9,19c-1,0-3.3,0.1-3.9,0.1c-0.5,0-1-0.5-1-0.5l-3-19&#10;&#9;&#9;&#9;&#9;&#9;c1.8,0,4.2-0.1,4.8-0.1c0.5,0,1,0.5,1,0.5l0.9,9.3c0.1,0.8,0.1,1.9,0.1,3.1c0.3-1.3,0.6-2.5,1-3.3l3.7-9.4&#10;&#9;&#9;&#9;&#9;&#9;C567.9,748.8,569.9,748.7,570.5,748.7L570.5,748.7z" style="fill: rgb(60, 36, 21);"/>
			</g>
			<g>
				<path class="st18" d="M579.7,758.1c0,2.1-1.2,3.4-4,4l-3,0.6c0.2,1.3,1.1,1.9,2.4,1.9c1.7,0,2.8-1.3,2.8-1.3s0.8,0.5,0.8,1.4&#10;&#9;&#9;&#9;&#9;&#9;c0,1.7-2.6,3.6-5.7,3.6c-3.1,0-5.2-2-5.2-5.3c0-3.8,2.7-9.1,7.6-9.1C578.1,754.1,579.7,755.7,579.7,758.1L579.7,758.1z&#10;&#9;&#9;&#9;&#9;&#9; M574.6,760.1c0.6-0.2,0.8-0.7,0.8-1.3c0-0.6-0.2-1.4-0.9-1.4c-1.2,0-1.7,1.9-1.9,3.4L574.6,760.1z" style="fill: rgb(60, 36, 21);"/>
			</g>
			<g>
				<path class="st18" d="M587.9,754.1c2.4,0,4.3,1.3,4.3,3c0,2.1-2.6,2.9-2.6,2.9s-0.7-2.3-2.5-2.3c-1.2,0-1.8,1.2-1.8,3.7&#10;&#9;&#9;&#9;&#9;&#9;c0,2.3,0.6,3.3,2.1,3.3c1.5,0,2.5-1,2.5-1s0.9,0.5,0.9,1.4c0,1.7-2.5,3.4-5.5,3.4c-3.2,0-5.1-2-5.1-5.3&#10;&#9;&#9;&#9;&#9;&#9;C580.1,759.3,582.9,754.1,587.9,754.1L587.9,754.1z" style="fill: rgb(60, 36, 21);"/>
			</g>
			<g>
				<path class="st18" d="M599.6,751c0.6,0,1,0.5,1,0.5l-0.5,2.9h3.1l-0.7,2.2c-0.2,0.7-0.6,1.1-1.3,1.1h-1.6l-0.9,5.7&#10;&#9;&#9;&#9;&#9;&#9;c-0.1,0.9,0.1,1.3,0.7,1.3c0.6,0,1.1-0.3,1.1-0.3s0.9,0.5,0.9,1.4c0,1.4-2,2.8-4.5,2.8c-2.6,0-3.7-1.6-3.3-4.5l1-6.3H593&#10;&#9;&#9;&#9;&#9;&#9;l0.7-2.3c0.2-0.6,0.7-1,1.3-1h0.8l1-2.7C598,751.4,599.1,751,599.6,751L599.6,751z" style="fill: rgb(60, 36, 21);"/>
			</g>
			<g>
				<path class="st18" d="M614.5,758.1c0,2.1-1.2,3.4-4,4l-3,0.6c0.2,1.3,1.1,1.9,2.4,1.9c1.7,0,2.8-1.3,2.8-1.3s0.9,0.5,0.9,1.4&#10;&#9;&#9;&#9;&#9;&#9;c0,1.7-2.6,3.6-5.7,3.6c-3.1,0-5.2-2-5.2-5.3c0-3.8,2.7-9.1,7.6-9.1C612.9,754.1,614.5,755.7,614.5,758.1L614.5,758.1z&#10;&#9;&#9;&#9;&#9;&#9; M609.4,760.1c0.6-0.2,0.8-0.7,0.8-1.3c0-0.6-0.2-1.4-0.9-1.4c-1.2,0-1.7,1.9-1.9,3.4L609.4,760.1z" style="fill: rgb(60, 36, 21);"/>
			</g>
			<g>
				<path class="st18" d="M626.9,758.1c0,2.1-1.2,3.4-4,4l-3,0.6c0.2,1.3,1.1,1.9,2.4,1.9c1.7,0,2.8-1.3,2.8-1.3s0.9,0.5,0.9,1.4&#10;&#9;&#9;&#9;&#9;&#9;c0,1.7-2.6,3.6-5.7,3.6c-3.1,0-5.2-2-5.2-5.3c0-3.8,2.7-9.1,7.6-9.1C625.2,754.1,626.9,755.7,626.9,758.1L626.9,758.1z&#10;&#9;&#9;&#9;&#9;&#9; M621.8,760.1c0.6-0.2,0.8-0.7,0.8-1.3c0-0.6-0.2-1.4-0.9-1.4c-1.2,0-1.7,1.9-1.9,3.4L621.8,760.1z" style="fill: rgb(60, 36, 21);"/>
			</g>
			<g>
				<path class="st18" d="M637,763.2c0,0,1,1,1,2.5c0,2.1-1.8,2.7-3.3,2.7c-2,0-3.4-0.9-4.9-1.4c-0.4,0.5-0.8,1-1.2,1.4&#10;&#9;&#9;&#9;&#9;&#9;c0,0-2.2-0.1-2.2-1.6c0-1.8,3.1-5,6.4-8.5c-0.4-0.1-0.7-0.1-1.1-0.1c-1.9,0-2.6,0.9-2.6,0.9s-1-1.1-0.9-2.5c0.1-2,2-2.5,3.5-2.5&#10;&#9;&#9;&#9;&#9;&#9;c1.6,0,2.7,0.6,3.9,1.1l0.9-1.1c0,0,2.2,0.1,2.2,1.6c0,1.8-3,4.9-6.2,8.3c0.7,0.2,1.3,0.3,1.9,0.3&#10;&#9;&#9;&#9;&#9;&#9;C636.2,764.3,637,763.2,637,763.2L637,763.2z" style="fill: rgb(60, 36, 21);"/>
			</g>
			<g>
				<path class="st18" d="M651.3,767.2c-0.8,4.8-4.1,7.3-8.3,7.3c-2.7,0-4.7-1.4-4.7-3c0-1.1,0.9-1.6,0.9-1.6s0.9,0.8,2.7,0.8&#10;&#9;&#9;&#9;&#9;&#9;c1.7,0,4-0.7,4.4-3.3l0.3-2c-1.1,1.6-2.6,3-4.5,3c-2.1,0-3.1-1.7-2.5-5.3l0.6-3.8c0.4-2.3,0.5-4.3,0.5-4.3c1.5-0.3,3.5-1,4.2-1&#10;&#9;&#9;&#9;&#9;&#9;c0.5,0,1,0.5,1,0.5l-0.8,4.8l-0.7,4.4c-0.1,0.4,0,0.6,0.4,0.6c1.8,0,2.8-5.1,2.8-5.1c0.4-2.3,0.5-4.3,0.5-4.3&#10;&#9;&#9;&#9;&#9;&#9;c1.5-0.3,3.5-1,4.2-1c0.5,0,1,0.5,1,0.5l-0.8,4.8L651.3,767.2z" style="fill: rgb(60, 36, 21);"/>
			</g>
		</g>
		<g>
			<path class="st18" d="M446.6,754.9h4.8c1.1,0,1.9,0.1,2.5,0.2c0.8,0.2,1.4,0.6,1.9,1.2c0.5,0.6,0.9,1.3,1.2,2.1&#10;&#9;&#9;&#9;&#9;c0.3,0.8,0.4,1.8,0.4,3c0,1.1-0.1,2-0.4,2.7c-0.3,0.9-0.8,1.7-1.4,2.3c-0.5,0.4-1.1,0.8-1.8,1c-0.6,0.2-1.3,0.3-2.3,0.3h-4.9&#10;&#9;&#9;&#9;&#9;V754.9z M449.2,757v8.5h1.9c0.7,0,1.3,0,1.6-0.1c0.4-0.1,0.8-0.3,1.1-0.5c0.3-0.3,0.5-0.7,0.7-1.2c0.2-0.6,0.3-1.4,0.3-2.4&#10;&#9;&#9;&#9;&#9;s-0.1-1.8-0.3-2.3c-0.2-0.5-0.4-0.9-0.7-1.2c-0.3-0.3-0.7-0.5-1.2-0.6c-0.4-0.1-1.1-0.1-2.1-0.1H449.2z" style="fill: rgb(60, 36, 21);"/>
			<path class="st18" d="M464.6,764.8l2.5,0.4c-0.3,0.9-0.8,1.6-1.5,2.1c-0.7,0.5-1.5,0.7-2.6,0.7c-1.6,0-2.8-0.5-3.6-1.6&#10;&#9;&#9;&#9;&#9;c-0.6-0.8-0.9-1.9-0.9-3.2c0-1.5,0.4-2.8,1.2-3.6c0.8-0.9,1.8-1.3,3.1-1.3c1.4,0,2.5,0.5,3.3,1.4c0.8,0.9,1.2,2.3,1.2,4.2H461&#10;&#9;&#9;&#9;&#9;c0,0.7,0.2,1.3,0.6,1.7c0.4,0.4,0.9,0.6,1.4,0.6c0.4,0,0.7-0.1,1-0.3C464.3,765.6,464.5,765.2,464.6,764.8z M464.7,762.3&#10;&#9;&#9;&#9;&#9;c0-0.7-0.2-1.3-0.6-1.6c-0.4-0.4-0.8-0.6-1.3-0.6c-0.5,0-1,0.2-1.3,0.6c-0.4,0.4-0.5,0.9-0.5,1.6H464.7z" style="fill: rgb(60, 36, 21);"/>
			<path class="st18" d="M468,765.1l2.5-0.4c0.1,0.5,0.3,0.8,0.6,1.1c0.3,0.2,0.8,0.4,1.4,0.4c0.6,0,1.1-0.1,1.4-0.4&#10;&#9;&#9;&#9;&#9;c0.2-0.2,0.3-0.4,0.3-0.7c0-0.2-0.1-0.3-0.2-0.5c-0.1-0.1-0.4-0.2-0.8-0.3c-2-0.4-3.3-0.8-3.8-1.2c-0.7-0.5-1.1-1.2-1.1-2.1&#10;&#9;&#9;&#9;&#9;c0-0.8,0.3-1.5,1-2c0.6-0.6,1.6-0.8,3-0.8c1.3,0,2.2,0.2,2.8,0.6c0.6,0.4,1,1,1.3,1.8l-2.3,0.4c-0.1-0.4-0.3-0.6-0.6-0.8&#10;&#9;&#9;&#9;&#9;c-0.3-0.2-0.7-0.3-1.2-0.3c-0.7,0-1.1,0.1-1.4,0.3c-0.2,0.1-0.3,0.3-0.3,0.5c0,0.2,0.1,0.3,0.2,0.4c0.2,0.2,1,0.4,2.3,0.7&#10;&#9;&#9;&#9;&#9;c1.3,0.3,2.2,0.7,2.8,1.1c0.5,0.4,0.8,1.1,0.8,1.8c0,0.9-0.4,1.6-1.1,2.2c-0.7,0.6-1.8,0.9-3.2,0.9c-1.3,0-2.3-0.3-3-0.8&#10;&#9;&#9;&#9;&#9;C468.7,766.7,468.2,766,468,765.1z" style="fill: rgb(60, 36, 21);"/>
			<path class="st18" d="M478.5,757.1v-2.3h2.5v2.3H478.5z M478.5,767.7v-9.3h2.5v9.3H478.5z" style="fill: rgb(60, 36, 21);"/>
			<path class="st18" d="M482.9,768.4l2.8,0.3c0,0.3,0.2,0.6,0.3,0.7c0.2,0.2,0.6,0.3,1.1,0.3c0.6,0,1.1-0.1,1.5-0.3&#10;&#9;&#9;&#9;&#9;c0.2-0.1,0.4-0.3,0.5-0.6c0.1-0.2,0.1-0.6,0.1-1.1v-1.4c-0.7,1-1.7,1.5-2.8,1.5c-1.3,0-2.2-0.5-3-1.6c-0.6-0.8-0.9-1.9-0.9-3.1&#10;&#9;&#9;&#9;&#9;c0-1.6,0.4-2.8,1.1-3.6c0.8-0.8,1.7-1.2,2.8-1.2c1.2,0,2.1,0.5,2.9,1.5v-1.3h2.3v8.4c0,1.1-0.1,1.9-0.3,2.5s-0.4,1-0.8,1.3&#10;&#9;&#9;&#9;&#9;c-0.3,0.3-0.8,0.6-1.3,0.7c-0.5,0.2-1.2,0.3-2.1,0.3c-1.6,0-2.7-0.3-3.4-0.8c-0.7-0.5-1-1.2-1-2.1&#10;&#9;&#9;&#9;&#9;C482.9,768.6,482.9,768.5,482.9,768.4z M485.1,762.9c0,1,0.2,1.7,0.6,2.2c0.4,0.5,0.9,0.7,1.4,0.7c0.6,0,1.1-0.2,1.5-0.7&#10;&#9;&#9;&#9;&#9;c0.4-0.5,0.6-1.2,0.6-2.1c0-1-0.2-1.7-0.6-2.2c-0.4-0.5-0.9-0.7-1.5-0.7c-0.6,0-1.1,0.2-1.5,0.7&#10;&#9;&#9;&#9;&#9;C485.3,761.2,485.1,761.9,485.1,762.9z" style="fill: rgb(60, 36, 21);"/>
			<path class="st18" d="M502.2,767.7h-2.5V763c0-1-0.1-1.7-0.2-2c-0.1-0.3-0.3-0.5-0.5-0.7c-0.2-0.2-0.5-0.2-0.9-0.2&#10;&#9;&#9;&#9;&#9;c-0.4,0-0.8,0.1-1.2,0.4c-0.3,0.2-0.6,0.5-0.7,0.9c-0.1,0.4-0.2,1.1-0.2,2.1v4.2h-2.5v-9.3h2.3v1.4c0.8-1.1,1.8-1.6,3.1-1.6&#10;&#9;&#9;&#9;&#9;c0.5,0,1,0.1,1.5,0.3c0.5,0.2,0.8,0.4,1,0.8c0.2,0.3,0.4,0.7,0.5,1c0.1,0.4,0.1,0.9,0.1,1.7V767.7z" style="fill: rgb(60, 36, 21);"/>
			<path class="st18" d="M509.8,764.8l2.5,0.4c-0.3,0.9-0.8,1.6-1.5,2.1c-0.7,0.5-1.5,0.7-2.6,0.7c-1.6,0-2.8-0.5-3.6-1.6&#10;&#9;&#9;&#9;&#9;c-0.6-0.8-0.9-1.9-0.9-3.2c0-1.5,0.4-2.8,1.2-3.6c0.8-0.9,1.8-1.3,3.1-1.3c1.4,0,2.5,0.5,3.3,1.4c0.8,0.9,1.2,2.3,1.2,4.2h-6.2&#10;&#9;&#9;&#9;&#9;c0,0.7,0.2,1.3,0.6,1.7c0.4,0.4,0.9,0.6,1.4,0.6c0.4,0,0.7-0.1,1-0.3C509.5,765.6,509.7,765.2,509.8,764.8z M509.9,762.3&#10;&#9;&#9;&#9;&#9;c0-0.7-0.2-1.3-0.6-1.6c-0.4-0.4-0.8-0.6-1.3-0.6c-0.5,0-1,0.2-1.3,0.6c-0.4,0.4-0.5,0.9-0.5,1.6H509.9z" style="fill: rgb(60, 36, 21);"/>
			<path class="st18" d="M522.6,767.7h-2.3v-1.4c-0.4,0.5-0.8,0.9-1.3,1.2c-0.5,0.3-1,0.4-1.6,0.4c-1.1,0-2-0.4-2.8-1.3&#10;&#9;&#9;&#9;&#9;c-0.8-0.9-1.1-2.1-1.1-3.6c0-1.6,0.4-2.8,1.1-3.6c0.7-0.8,1.7-1.2,2.8-1.2c1,0,1.9,0.4,2.7,1.3v-4.6h2.5V767.7z M516,762.9&#10;&#9;&#9;&#9;&#9;c0,1,0.1,1.7,0.4,2.2c0.4,0.6,1,1,1.7,1c0.6,0,1.1-0.2,1.5-0.7c0.4-0.5,0.6-1.2,0.6-2.2c0-1.1-0.2-1.8-0.6-2.3&#10;&#9;&#9;&#9;&#9;c-0.4-0.5-0.9-0.7-1.5-0.7c-0.6,0-1.1,0.2-1.5,0.7C516.2,761.2,516,761.9,516,762.9z" style="fill: rgb(60, 36, 21);"/>
			<path class="st18" d="M529.2,767.7v-12.9h2.5v4.6c0.8-0.9,1.7-1.3,2.7-1.3c1.1,0,2.1,0.4,2.8,1.2c0.7,0.8,1.1,2,1.1,3.5&#10;&#9;&#9;&#9;&#9;c0,1.6-0.4,2.8-1.1,3.7c-0.8,0.9-1.7,1.3-2.8,1.3c-0.5,0-1.1-0.1-1.6-0.4c-0.5-0.3-1-0.7-1.3-1.2v1.4H529.2z M531.7,762.9&#10;&#9;&#9;&#9;&#9;c0,1,0.2,1.7,0.5,2.1c0.4,0.7,1,1,1.7,1c0.5,0,1-0.2,1.4-0.7c0.4-0.5,0.6-1.2,0.6-2.2c0-1.1-0.2-1.8-0.6-2.3&#10;&#9;&#9;&#9;&#9;c-0.4-0.5-0.9-0.7-1.5-0.7c-0.6,0-1.1,0.2-1.5,0.7C531.9,761.2,531.7,761.9,531.7,762.9z" style="fill: rgb(60, 36, 21);"/>
			<path class="st18" d="M538.8,758.4h2.6l2.2,6.6l2.2-6.6h2.6l-3.3,9l-0.6,1.6c-0.2,0.5-0.4,1-0.6,1.2c-0.2,0.3-0.4,0.5-0.7,0.7&#10;&#9;&#9;&#9;&#9;c-0.3,0.2-0.6,0.3-0.9,0.4c-0.4,0.1-0.8,0.1-1.3,0.1c-0.5,0-0.9,0-1.4-0.1l-0.2-1.9c0.4,0.1,0.7,0.1,1,0.1c0.6,0,1-0.2,1.3-0.5&#10;&#9;&#9;&#9;&#9;c0.3-0.3,0.5-0.8,0.6-1.3L538.8,758.4z" style="fill: rgb(60, 36, 21);"/>
		</g>
	</g>
</svg>