<?xml version="1.0" encoding="utf-8"?>
<svg id="master-artboard" viewBox="0 0 2155 1510" version="1.1" xmlns="http://www.w3.org/2000/svg" x="0px" y="0px" style="enable-background:new 0 0 1400 980;" width="2155px" height="1510px"><rect id="ee-background" x="0" y="0" width="2155" height="1510" style="fill: white; fill-opacity: 0; pointer-events: none;"/>


<path d="M 939.900024 495.200012 H 1400.000031 V 980 H 939.900024 V 495.200012 Z" class="st1" style="fill: rgb(119, 90, 66);" transform="matrix(1.5558388233184814, 0, 0, 1.5558388233184814, -14.114959716796875, -10)"/>
<path d="M 1400.0999755859375 762.2000122070312 L 1264.699951171875 626.4000244140625 L 1098.5999755859375 881.2999877929688 L 1197.300048828125 980 L 1400.0999755859375 980 Z" class="st2" style="fill: rgb(104, 77, 58);" transform="matrix(1.5558388233184814, 0, 0, 1.5558388233184814, -14.114959716796875, -10)"/>
<path d="M 1239.300048828125 881.2999877929688 L 1098.5999755859375 881.2999877929688 L 1083.5 646.7999877929688 L 1254.4000244140625 646.7999877929688 Z" class="st3" style="fill: rgb(232, 185, 135);" transform="matrix(1.5558388233184814, 0, 0, 1.5558388233184814, -14.114959716796875, -10)"/>
<path d="M 1168.9000244140625 881.2999877929688 L 1239.300048828125 881.2999877929688 L 1254.4000244140625 646.7999877929688 L 1168.9000244140625 646.7999877929688 Z" class="st4" style="fill: rgb(214, 160, 104);" transform="matrix(1.5558388233184814, 0, 0, 1.5558388233184814, -14.114959716796875, -10)"/>
<path d="M 1243.199951171875 811.7000122070312 L 1250.5999755859375 697.0999755859375 L 1087.300048828125 697.0999755859375 L 1094.699951171875 811.7000122070312 Z" class="st5" style="fill: rgb(255, 255, 255);" transform="matrix(1.5558388233184814, 0, 0, 1.5558388233184814, -14.114959716796875, -10)"/>
<path d="M 1168.9000244140625 811.7000122070312 L 1243.199951171875 811.7000122070312 L 1250.5999755859375 697.0999755859375 L 1168.9000244140625 697.0999755859375 Z" class="st0" style="fill: rgb(219, 219, 219);" transform="matrix(1.5558388233184814, 0, 0, 1.5558388233184814, -14.114959716796875, -10)"/>










<path d="M 1234.5 626.4000244140625 L 1227.199951171875 606 L 1110.699951171875 606 L 1103.4000244140625 626.4000244140625 L 1073.199951171875 626.4000244140625 L 1073.199951171875 646.7999877929688 L 1264.699951171875 646.7999877929688 L 1264.699951171875 626.4000244140625 Z" class="st6" style="fill: rgb(86, 87, 89);" transform="matrix(1.5558388233184814, 0, 0, 1.5558388233184814, -14.114959716796875, -10)"/>
<path d="M 1227.199951171875 606 L 1168.9000244140625 606 L 1168.9000244140625 646.7999877929688 L 1264.699951171875 646.7999877929688 L 1264.699951171875 626.4000244140625 L 1234.5 626.4000244140625 Z" class="st7" style="fill: rgb(64, 64, 65);" transform="matrix(1.5558388233184814, 0, 0, 1.5558388233184814, -14.114959716796875, -10)"/>
<g transform="matrix(1.5558388233184814, 0, 0, 1.5558388233184814, -14.114959716796875, -10)">
	
		<path d="M 1204.199951 752.299988 A 23.5 33 0 0 1 1180.699951 785.299988 A 23.5 33 0 0 1 1157.199951 752.299988 A 23.5 33 0 0 1 1180.699951 719.299988 A 23.5 33 0 0 1 1204.199951 752.299988 Z" transform="matrix(0.7071 0.7071 -0.7071 0.7071 877.7919 -614.54)" class="st8" style="fill: rgb(143, 92, 41);"/>
	<path class="st1" d="M1154.9,772.5c0.7,1.1,1.5,2.2,2.5,3.1c1,1,2,1.8,3.1,2.5l46-46c-0.7-1.1-1.5-2.2-2.5-3.1c-1-1-2-1.8-3.1-2.5&#10;&#9;&#9;L1154.9,772.5z" style="fill: rgb(119, 90, 66);"/>
	<path d="M 1175.599976 758.400024 A 23.5 33 0 0 1 1152.099976 791.400024 A 23.5 33 0 0 1 1128.599976 758.400024 A 23.5 33 0 0 1 1152.099976 725.400024 A 23.5 33 0 0 1 1175.599976 758.400024 Z" class="st9" style="fill: rgb(177, 109, 41);"/>
	<path class="st8" d="M1148.1,790.9c1.3,0.3,2.6,0.5,4,0.5c1.4,0,2.7-0.2,4-0.5v-65c-1.3-0.3-2.6-0.5-4-0.5c-1.4,0-2.7,0.2-4,0.5&#10;&#9;&#9;V790.9z" style="fill: rgb(143, 92, 41);"/>
</g>





</svg>